<?xml version="1.0" encoding="UTF-8"?>
<!DOCTYPE svg PUBLIC "-//W3C//DTD SVG 1.1//EN" "http://www.w3.org/Graphics/SVG/1.1/DTD/svg11.dtd">
<!-- Creator: CorelDRAW X6 -->
<svg xmlns="http://www.w3.org/2000/svg" xml:space="preserve" width="165mm" height="78mm" version="1.1" style="shape-rendering:geometricPrecision; text-rendering:geometricPrecision; image-rendering:optimizeQuality; fill-rule:evenodd; clip-rule:evenodd"
viewBox="0 0 16500 7800"
 xmlns:xlink="http://www.w3.org/1999/xlink">
 <defs>
  <style type="text/css">
   <![CDATA[
    .fil0 {fill:#2B2A29;fill-rule:nonzero}
   ]]>
  </style>
 </defs>
 <g id="Слой_x0020_1">
  <metadata id="CorelCorpID_0Corel-Layer"/>
  <g>
   <path class="fil0" d="M300 495l5 0 6 1 5 0 5 1 5 1 5 2 5 1 5 2 4 2 5 3 4 2 5 3 4 3 4 3 3 3 4 4 4 3 3 4 3 4 3 4 3 5 2 4 3 5 2 4 1 5 2 5 2 5 1 5 1 5 0 5 1 6 0 5 0 0 0 5 -1 6 0 5 -1 5 -1 5 -2 5 -2 5 -1 5 -2 4 -3 5 -2 4 -3 5 -3 4 -3 4 -3 4 -4 3 -4 4 -3 3 -4 3 -4 3 -5 3 -4 2 -5 3 -4 2 -5 2 -5 1 -5 2 -5 1 -5 1 -5 0 -6 1 -5 0 0 0 -5 0 -6 -1 -5 0 -5 -1 -5 -1 -5 -2 -5 -1 -5 -2 -4 -2 -5 -3 -4 -2 -5 -3 -4 -3 -4 -3 -3 -3 -4 -4 -4 -3 -3 -4 -3 -4 -3 -4 -3 -5 -2 -4 -3 -5 -2 -4 -2 -5 -1 -5 -2 -5 -1 -5 -1 -5 0 -5 -1 -6 0 -5 0 0 0 -5 1 -6 0 -5 1 -5 1 -5 2 -5 1 -5 2 -5 2 -4 3 -5 2 -4 3 -5 3 -4 3 -4 3 -4 4 -3 4 -4 3 -3 4 -3 4 -3 5 -3 4 -2 5 -3 4 -2 5 -2 5 -1 5 -2 5 -1 5 -1 5 0 6 -1 5 0 0 0zm1000 115l-1000 0 0 -20 1000 0 0 20z"/>
  </g>
  <g>
   <path class="fil0" d="M300 1495l5 0 6 1 5 0 5 1 5 1 5 2 5 1 5 2 4 2 5 3 4 2 5 3 4 3 4 3 3 3 4 4 4 3 3 4 3 4 3 4 3 5 2 4 3 5 2 4 1 5 2 5 2 5 1 5 1 5 0 5 1 6 0 5 0 0 0 5 -1 6 0 5 -1 5 -1 5 -2 5 -2 5 -1 5 -2 4 -3 5 -2 4 -3 5 -3 4 -3 4 -3 4 -4 3 -4 4 -3 3 -4 3 -4 3 -5 3 -4 2 -5 3 -4 2 -5 2 -5 1 -5 2 -5 1 -5 1 -5 0 -6 1 -5 0 0 0 -5 0 -6 -1 -5 0 -5 -1 -5 -1 -5 -2 -5 -1 -5 -2 -4 -2 -5 -3 -4 -2 -5 -3 -4 -3 -4 -3 -3 -3 -4 -4 -4 -3 -3 -4 -3 -4 -3 -4 -3 -5 -2 -4 -3 -5 -2 -4 -2 -5 -1 -5 -2 -5 -1 -5 -1 -5 0 -5 -1 -6 0 -5 0 0 0 -5 1 -6 0 -5 1 -5 1 -5 2 -5 1 -5 2 -5 2 -4 3 -5 2 -4 3 -5 3 -4 3 -4 3 -4 4 -3 4 -4 3 -3 4 -3 4 -3 5 -3 4 -2 5 -3 4 -2 5 -2 5 -1 5 -2 5 -1 5 -1 5 0 6 -1 5 0 0 0zm1000 115l-1000 0 0 -20 1000 0 0 20z"/>
  </g>
  <g>
   <path class="fil0" d="M300 2495l5 0 6 1 5 0 5 1 5 1 5 2 5 1 5 2 4 2 5 3 4 2 5 3 4 3 4 3 3 3 4 4 4 3 3 4 3 4 3 4 3 5 2 4 3 5 2 4 1 5 2 5 2 5 1 5 1 5 0 5 1 6 0 5 0 0 0 5 -1 6 0 5 -1 5 -1 5 -2 5 -2 5 -1 5 -2 4 -3 5 -2 4 -3 5 -3 4 -3 4 -3 4 -4 3 -4 4 -3 3 -4 3 -4 3 -5 3 -4 2 -5 3 -4 2 -5 2 -5 1 -5 2 -5 1 -5 1 -5 0 -6 1 -5 0 0 0 -5 0 -6 -1 -5 0 -5 -1 -5 -1 -5 -2 -5 -1 -5 -2 -4 -2 -5 -3 -4 -2 -5 -3 -4 -3 -4 -3 -3 -3 -4 -4 -4 -3 -3 -4 -3 -4 -3 -4 -3 -5 -2 -4 -3 -5 -2 -4 -2 -5 -1 -5 -2 -5 -1 -5 -1 -5 0 -5 -1 -6 0 -5 0 0 0 -5 1 -6 0 -5 1 -5 1 -5 2 -5 1 -5 2 -5 2 -4 3 -5 2 -4 3 -5 3 -4 3 -4 3 -4 4 -3 4 -4 3 -3 4 -3 4 -3 5 -3 4 -2 5 -3 4 -2 5 -2 5 -1 5 -2 5 -1 5 -1 5 0 6 -1 5 0 0 0zm1000 115l-1000 0 0 -20 1000 0 0 20z"/>
  </g>
  <g>
   <path class="fil0" d="M300 3495l5 0 6 1 5 0 5 1 5 1 5 2 5 1 5 2 4 2 5 3 4 2 5 3 4 3 4 3 3 3 4 4 4 3 3 4 3 4 3 4 3 5 2 4 3 5 2 4 1 5 2 5 2 5 1 5 1 5 0 5 1 6 0 5 0 0 0 5 -1 6 0 5 -1 5 -1 5 -2 5 -2 5 -1 5 -2 4 -3 5 -2 4 -3 5 -3 4 -3 4 -3 4 -4 3 -4 4 -3 3 -4 3 -4 3 -5 3 -4 2 -5 3 -4 2 -5 2 -5 1 -5 2 -5 1 -5 1 -5 0 -6 1 -5 0 0 0 -5 0 -6 -1 -5 0 -5 -1 -5 -1 -5 -2 -5 -1 -5 -2 -4 -2 -5 -3 -4 -2 -5 -3 -4 -3 -4 -3 -3 -3 -4 -4 -4 -3 -3 -4 -3 -4 -3 -4 -3 -5 -2 -4 -3 -5 -2 -4 -2 -5 -1 -5 -2 -5 -1 -5 -1 -5 0 -5 -1 -6 0 -5 0 0 0 -5 1 -6 0 -5 1 -5 1 -5 2 -5 1 -5 2 -5 2 -4 3 -5 2 -4 3 -5 3 -4 3 -4 3 -4 4 -3 4 -4 3 -3 4 -3 4 -3 5 -3 4 -2 5 -3 4 -2 5 -2 5 -1 5 -2 5 -1 5 -1 5 0 6 -1 5 0 0 0zm1000 115l-1000 0 0 -20 1000 0 0 20z"/>
  </g>
  <g>
   <path class="fil0" d="M300 4495l5 0 6 1 5 0 5 1 5 1 5 2 5 1 5 2 4 2 5 3 4 2 5 3 4 3 4 3 3 3 4 4 4 3 3 4 3 4 3 4 3 5 2 4 3 5 2 4 1 5 2 5 2 5 1 5 1 5 0 5 1 6 0 5 0 0 0 5 -1 6 0 5 -1 5 -1 5 -2 5 -2 5 -1 5 -2 4 -3 5 -2 4 -3 5 -3 4 -3 4 -3 4 -4 3 -4 4 -3 3 -4 3 -4 3 -5 3 -4 2 -5 3 -4 2 -5 2 -5 1 -5 2 -5 1 -5 1 -5 0 -6 1 -5 0 0 0 -5 0 -6 -1 -5 0 -5 -1 -5 -1 -5 -2 -5 -1 -5 -2 -4 -2 -5 -3 -4 -2 -5 -3 -4 -3 -4 -3 -3 -3 -4 -4 -4 -3 -3 -4 -3 -4 -3 -4 -3 -5 -2 -4 -3 -5 -2 -4 -2 -5 -1 -5 -2 -5 -1 -5 -1 -5 0 -5 -1 -6 0 -5 0 0 0 -5 1 -6 0 -5 1 -5 1 -5 2 -5 1 -5 2 -5 2 -4 3 -5 2 -4 3 -5 3 -4 3 -4 3 -4 4 -3 4 -4 3 -3 4 -3 4 -3 5 -3 4 -2 5 -3 4 -2 5 -2 5 -1 5 -2 5 -1 5 -1 5 0 6 -1 5 0 0 0zm1000 115l-1000 0 0 -20 1000 0 0 20z"/>
  </g>
  <g>
   <path class="fil0" d="M300 5495l5 0 6 1 5 0 5 1 5 1 5 2 5 1 5 2 4 2 5 3 4 2 5 3 4 3 4 3 3 3 4 4 4 3 3 4 3 4 3 4 3 5 2 4 3 5 2 4 1 5 2 5 2 5 1 5 1 5 0 5 1 6 0 5 0 0 0 5 -1 6 0 5 -1 5 -1 5 -2 5 -2 5 -1 5 -2 4 -3 5 -2 4 -3 5 -3 4 -3 4 -3 4 -4 3 -4 4 -3 3 -4 3 -4 3 -5 3 -4 2 -5 3 -4 2 -5 2 -5 1 -5 2 -5 1 -5 1 -5 0 -6 1 -5 0 0 0 -5 0 -6 -1 -5 0 -5 -1 -5 -1 -5 -2 -5 -1 -5 -2 -4 -2 -5 -3 -4 -2 -5 -3 -4 -3 -4 -3 -3 -3 -4 -4 -4 -3 -3 -4 -3 -4 -3 -4 -3 -5 -2 -4 -3 -5 -2 -4 -2 -5 -1 -5 -2 -5 -1 -5 -1 -5 0 -5 -1 -6 0 -5 0 0 0 -5 1 -6 0 -5 1 -5 1 -5 2 -5 1 -5 2 -5 2 -4 3 -5 2 -4 3 -5 3 -4 3 -4 3 -4 4 -3 4 -4 3 -3 4 -3 4 -3 5 -3 4 -2 5 -3 4 -2 5 -2 5 -1 5 -2 5 -1 5 -1 5 0 6 -1 5 0 0 0zm1000 115l-1000 0 0 -20 1000 0 0 20z"/>
  </g>
  <g>
   <path class="fil0" d="M300 6495l5 0 6 1 5 0 5 1 5 1 5 2 5 1 5 2 4 2 5 3 4 2 5 3 4 3 4 3 3 3 4 4 4 3 3 4 3 4 3 4 3 5 2 4 3 5 2 4 1 5 2 5 2 5 1 5 1 5 0 5 1 6 0 5 0 0 0 5 -1 6 0 5 -1 5 -1 5 -2 5 -2 5 -1 5 -2 4 -3 5 -2 4 -3 5 -3 4 -3 4 -3 4 -4 3 -4 4 -3 3 -4 3 -4 3 -5 3 -4 2 -5 3 -4 2 -5 2 -5 1 -5 2 -5 1 -5 1 -5 0 -6 1 -5 0 0 0 -5 0 -6 -1 -5 0 -5 -1 -5 -1 -5 -2 -5 -1 -5 -2 -4 -2 -5 -3 -4 -2 -5 -3 -4 -3 -4 -3 -3 -3 -4 -4 -4 -3 -3 -4 -3 -4 -3 -4 -3 -5 -2 -4 -3 -5 -2 -4 -2 -5 -1 -5 -2 -5 -1 -5 -1 -5 0 -5 -1 -6 0 -5 0 0 0 -5 1 -6 0 -5 1 -5 1 -5 2 -5 1 -5 2 -5 2 -4 3 -5 2 -4 3 -5 3 -4 3 -4 3 -4 4 -3 4 -4 3 -3 4 -3 4 -3 5 -3 4 -2 5 -3 4 -2 5 -2 5 -1 5 -2 5 -1 5 -1 5 0 6 -1 5 0 0 0zm1000 115l-1000 0 0 -20 1000 0 0 20z"/>
  </g>
  <g>
   <path class="fil0" d="M300 7495l5 0 6 1 5 0 5 1 5 1 5 2 5 1 5 2 4 2 5 3 4 2 5 3 4 3 4 3 3 3 4 4 4 3 3 4 3 4 3 4 3 5 2 4 3 5 2 4 1 5 2 5 2 5 1 5 1 5 0 5 1 6 0 5 0 0 0 5 -1 6 0 5 -1 5 -1 5 -2 5 -2 5 -1 5 -2 4 -3 5 -2 4 -3 5 -3 4 -3 4 -3 4 -4 3 -4 4 -3 3 -4 3 -4 3 -5 3 -4 2 -5 3 -4 2 -5 2 -5 1 -5 2 -5 1 -5 1 -5 0 -6 1 -5 0 0 0 -5 0 -6 -1 -5 0 -5 -1 -5 -1 -5 -2 -5 -1 -5 -2 -4 -2 -5 -3 -4 -2 -5 -3 -4 -3 -4 -3 -3 -3 -4 -4 -4 -3 -3 -4 -3 -4 -3 -4 -3 -5 -2 -4 -3 -5 -2 -4 -2 -5 -1 -5 -2 -5 -1 -5 -1 -5 0 -5 -1 -6 0 -5 0 0 0 -5 1 -6 0 -5 1 -5 1 -5 2 -5 1 -5 2 -5 2 -4 3 -5 2 -4 3 -5 3 -4 3 -4 3 -4 4 -3 4 -4 3 -3 4 -3 4 -3 5 -3 4 -2 5 -3 4 -2 5 -2 5 -1 5 -2 5 -1 5 -1 5 0 6 -1 5 0 0 0zm1000 115l-1000 0 0 -20 1000 0 0 20z"/>
  </g>
  <g>
   <path class="fil0" d="M1300 495l5 0 6 1 5 0 5 1 5 1 5 2 5 1 5 2 4 2 5 3 4 2 5 3 4 3 4 3 3 3 4 4 4 3 3 4 3 4 3 4 3 5 2 4 3 5 2 4 1 5 2 5 2 5 1 5 1 5 0 5 1 6 0 5 0 0 0 5 -1 6 0 5 -1 5 -1 5 -2 5 -2 5 -1 5 -2 4 -3 5 -2 4 -3 5 -3 4 -3 4 -3 4 -4 3 -4 4 -3 3 -4 3 -4 3 -5 3 -4 2 -5 3 -4 2 -5 2 -5 1 -5 2 -5 1 -5 1 -5 0 -6 1 -5 0 0 0 -5 0 -6 -1 -5 0 -5 -1 -5 -1 -5 -2 -5 -1 -5 -2 -4 -2 -5 -3 -4 -2 -5 -3 -4 -3 -4 -3 -3 -3 -4 -4 -4 -3 -3 -4 -3 -4 -3 -4 -3 -5 -2 -4 -3 -5 -2 -4 -2 -5 -1 -5 -2 -5 -1 -5 -1 -5 0 -5 -1 -6 0 -5 0 0 0 -5 1 -6 0 -5 1 -5 1 -5 2 -5 1 -5 2 -5 2 -4 3 -5 2 -4 3 -5 3 -4 3 -4 3 -4 4 -3 4 -4 3 -3 4 -3 4 -3 5 -3 4 -2 5 -3 4 -2 5 -2 5 -1 5 -2 5 -1 5 -1 5 0 6 -1 5 0 0 0zm1000 115l-1000 0 0 -20 1000 0 0 20z"/>
  </g>
  <g>
   <path class="fil0" d="M1300 1495l5 0 6 1 5 0 5 1 5 1 5 2 5 1 5 2 4 2 5 3 4 2 5 3 4 3 4 3 3 3 4 4 4 3 3 4 3 4 3 4 3 5 2 4 3 5 2 4 1 5 2 5 2 5 1 5 1 5 0 5 1 6 0 5 0 0 0 5 -1 6 0 5 -1 5 -1 5 -2 5 -2 5 -1 5 -2 4 -3 5 -2 4 -3 5 -3 4 -3 4 -3 4 -4 3 -4 4 -3 3 -4 3 -4 3 -5 3 -4 2 -5 3 -4 2 -5 2 -5 1 -5 2 -5 1 -5 1 -5 0 -6 1 -5 0 0 0 -5 0 -6 -1 -5 0 -5 -1 -5 -1 -5 -2 -5 -1 -5 -2 -4 -2 -5 -3 -4 -2 -5 -3 -4 -3 -4 -3 -3 -3 -4 -4 -4 -3 -3 -4 -3 -4 -3 -4 -3 -5 -2 -4 -3 -5 -2 -4 -2 -5 -1 -5 -2 -5 -1 -5 -1 -5 0 -5 -1 -6 0 -5 0 0 0 -5 1 -6 0 -5 1 -5 1 -5 2 -5 1 -5 2 -5 2 -4 3 -5 2 -4 3 -5 3 -4 3 -4 3 -4 4 -3 4 -4 3 -3 4 -3 4 -3 5 -3 4 -2 5 -3 4 -2 5 -2 5 -1 5 -2 5 -1 5 -1 5 0 6 -1 5 0 0 0zm1000 115l-1000 0 0 -20 1000 0 0 20z"/>
  </g>
  <g>
   <path class="fil0" d="M1300 2495l5 0 6 1 5 0 5 1 5 1 5 2 5 1 5 2 4 2 5 3 4 2 5 3 4 3 4 3 3 3 4 4 4 3 3 4 3 4 3 4 3 5 2 4 3 5 2 4 1 5 2 5 2 5 1 5 1 5 0 5 1 6 0 5 0 0 0 5 -1 6 0 5 -1 5 -1 5 -2 5 -2 5 -1 5 -2 4 -3 5 -2 4 -3 5 -3 4 -3 4 -3 4 -4 3 -4 4 -3 3 -4 3 -4 3 -5 3 -4 2 -5 3 -4 2 -5 2 -5 1 -5 2 -5 1 -5 1 -5 0 -6 1 -5 0 0 0 -5 0 -6 -1 -5 0 -5 -1 -5 -1 -5 -2 -5 -1 -5 -2 -4 -2 -5 -3 -4 -2 -5 -3 -4 -3 -4 -3 -3 -3 -4 -4 -4 -3 -3 -4 -3 -4 -3 -4 -3 -5 -2 -4 -3 -5 -2 -4 -2 -5 -1 -5 -2 -5 -1 -5 -1 -5 0 -5 -1 -6 0 -5 0 0 0 -5 1 -6 0 -5 1 -5 1 -5 2 -5 1 -5 2 -5 2 -4 3 -5 2 -4 3 -5 3 -4 3 -4 3 -4 4 -3 4 -4 3 -3 4 -3 4 -3 5 -3 4 -2 5 -3 4 -2 5 -2 5 -1 5 -2 5 -1 5 -1 5 0 6 -1 5 0 0 0zm1000 115l-1000 0 0 -20 1000 0 0 20z"/>
  </g>
  <g>
   <path class="fil0" d="M1300 3495l5 0 6 1 5 0 5 1 5 1 5 2 5 1 5 2 4 2 5 3 4 2 5 3 4 3 4 3 3 3 4 4 4 3 3 4 3 4 3 4 3 5 2 4 3 5 2 4 1 5 2 5 2 5 1 5 1 5 0 5 1 6 0 5 0 0 0 5 -1 6 0 5 -1 5 -1 5 -2 5 -2 5 -1 5 -2 4 -3 5 -2 4 -3 5 -3 4 -3 4 -3 4 -4 3 -4 4 -3 3 -4 3 -4 3 -5 3 -4 2 -5 3 -4 2 -5 2 -5 1 -5 2 -5 1 -5 1 -5 0 -6 1 -5 0 0 0 -5 0 -6 -1 -5 0 -5 -1 -5 -1 -5 -2 -5 -1 -5 -2 -4 -2 -5 -3 -4 -2 -5 -3 -4 -3 -4 -3 -3 -3 -4 -4 -4 -3 -3 -4 -3 -4 -3 -4 -3 -5 -2 -4 -3 -5 -2 -4 -2 -5 -1 -5 -2 -5 -1 -5 -1 -5 0 -5 -1 -6 0 -5 0 0 0 -5 1 -6 0 -5 1 -5 1 -5 2 -5 1 -5 2 -5 2 -4 3 -5 2 -4 3 -5 3 -4 3 -4 3 -4 4 -3 4 -4 3 -3 4 -3 4 -3 5 -3 4 -2 5 -3 4 -2 5 -2 5 -1 5 -2 5 -1 5 -1 5 0 6 -1 5 0 0 0zm1000 115l-1000 0 0 -20 1000 0 0 20z"/>
  </g>
  <g>
   <path class="fil0" d="M1300 4495l5 0 6 1 5 0 5 1 5 1 5 2 5 1 5 2 4 2 5 3 4 2 5 3 4 3 4 3 3 3 4 4 4 3 3 4 3 4 3 4 3 5 2 4 3 5 2 4 1 5 2 5 2 5 1 5 1 5 0 5 1 6 0 5 0 0 0 5 -1 6 0 5 -1 5 -1 5 -2 5 -2 5 -1 5 -2 4 -3 5 -2 4 -3 5 -3 4 -3 4 -3 4 -4 3 -4 4 -3 3 -4 3 -4 3 -5 3 -4 2 -5 3 -4 2 -5 2 -5 1 -5 2 -5 1 -5 1 -5 0 -6 1 -5 0 0 0 -5 0 -6 -1 -5 0 -5 -1 -5 -1 -5 -2 -5 -1 -5 -2 -4 -2 -5 -3 -4 -2 -5 -3 -4 -3 -4 -3 -3 -3 -4 -4 -4 -3 -3 -4 -3 -4 -3 -4 -3 -5 -2 -4 -3 -5 -2 -4 -2 -5 -1 -5 -2 -5 -1 -5 -1 -5 0 -5 -1 -6 0 -5 0 0 0 -5 1 -6 0 -5 1 -5 1 -5 2 -5 1 -5 2 -5 2 -4 3 -5 2 -4 3 -5 3 -4 3 -4 3 -4 4 -3 4 -4 3 -3 4 -3 4 -3 5 -3 4 -2 5 -3 4 -2 5 -2 5 -1 5 -2 5 -1 5 -1 5 0 6 -1 5 0 0 0zm1000 115l-1000 0 0 -20 1000 0 0 20z"/>
  </g>
  <g>
   <path class="fil0" d="M1300 5495l5 0 6 1 5 0 5 1 5 1 5 2 5 1 5 2 4 2 5 3 4 2 5 3 4 3 4 3 3 3 4 4 4 3 3 4 3 4 3 4 3 5 2 4 3 5 2 4 1 5 2 5 2 5 1 5 1 5 0 5 1 6 0 5 0 0 0 5 -1 6 0 5 -1 5 -1 5 -2 5 -2 5 -1 5 -2 4 -3 5 -2 4 -3 5 -3 4 -3 4 -3 4 -4 3 -4 4 -3 3 -4 3 -4 3 -5 3 -4 2 -5 3 -4 2 -5 2 -5 1 -5 2 -5 1 -5 1 -5 0 -6 1 -5 0 0 0 -5 0 -6 -1 -5 0 -5 -1 -5 -1 -5 -2 -5 -1 -5 -2 -4 -2 -5 -3 -4 -2 -5 -3 -4 -3 -4 -3 -3 -3 -4 -4 -4 -3 -3 -4 -3 -4 -3 -4 -3 -5 -2 -4 -3 -5 -2 -4 -2 -5 -1 -5 -2 -5 -1 -5 -1 -5 0 -5 -1 -6 0 -5 0 0 0 -5 1 -6 0 -5 1 -5 1 -5 2 -5 1 -5 2 -5 2 -4 3 -5 2 -4 3 -5 3 -4 3 -4 3 -4 4 -3 4 -4 3 -3 4 -3 4 -3 5 -3 4 -2 5 -3 4 -2 5 -2 5 -1 5 -2 5 -1 5 -1 5 0 6 -1 5 0 0 0zm1000 115l-1000 0 0 -20 1000 0 0 20z"/>
  </g>
  <g>
   <path class="fil0" d="M1300 6495l5 0 6 1 5 0 5 1 5 1 5 2 5 1 5 2 4 2 5 3 4 2 5 3 4 3 4 3 3 3 4 4 4 3 3 4 3 4 3 4 3 5 2 4 3 5 2 4 1 5 2 5 2 5 1 5 1 5 0 5 1 6 0 5 0 0 0 5 -1 6 0 5 -1 5 -1 5 -2 5 -2 5 -1 5 -2 4 -3 5 -2 4 -3 5 -3 4 -3 4 -3 4 -4 3 -4 4 -3 3 -4 3 -4 3 -5 3 -4 2 -5 3 -4 2 -5 2 -5 1 -5 2 -5 1 -5 1 -5 0 -6 1 -5 0 0 0 -5 0 -6 -1 -5 0 -5 -1 -5 -1 -5 -2 -5 -1 -5 -2 -4 -2 -5 -3 -4 -2 -5 -3 -4 -3 -4 -3 -3 -3 -4 -4 -4 -3 -3 -4 -3 -4 -3 -4 -3 -5 -2 -4 -3 -5 -2 -4 -2 -5 -1 -5 -2 -5 -1 -5 -1 -5 0 -5 -1 -6 0 -5 0 0 0 -5 1 -6 0 -5 1 -5 1 -5 2 -5 1 -5 2 -5 2 -4 3 -5 2 -4 3 -5 3 -4 3 -4 3 -4 4 -3 4 -4 3 -3 4 -3 4 -3 5 -3 4 -2 5 -3 4 -2 5 -2 5 -1 5 -2 5 -1 5 -1 5 0 6 -1 5 0 0 0zm1000 115l-1000 0 0 -20 1000 0 0 20z"/>
  </g>
  <g>
   <path class="fil0" d="M1300 7495l5 0 6 1 5 0 5 1 5 1 5 2 5 1 5 2 4 2 5 3 4 2 5 3 4 3 4 3 3 3 4 4 4 3 3 4 3 4 3 4 3 5 2 4 3 5 2 4 1 5 2 5 2 5 1 5 1 5 0 5 1 6 0 5 0 0 0 5 -1 6 0 5 -1 5 -1 5 -2 5 -2 5 -1 5 -2 4 -3 5 -2 4 -3 5 -3 4 -3 4 -3 4 -4 3 -4 4 -3 3 -4 3 -4 3 -5 3 -4 2 -5 3 -4 2 -5 2 -5 1 -5 2 -5 1 -5 1 -5 0 -6 1 -5 0 0 0 -5 0 -6 -1 -5 0 -5 -1 -5 -1 -5 -2 -5 -1 -5 -2 -4 -2 -5 -3 -4 -2 -5 -3 -4 -3 -4 -3 -3 -3 -4 -4 -4 -3 -3 -4 -3 -4 -3 -4 -3 -5 -2 -4 -3 -5 -2 -4 -2 -5 -1 -5 -2 -5 -1 -5 -1 -5 0 -5 -1 -6 0 -5 0 0 0 -5 1 -6 0 -5 1 -5 1 -5 2 -5 1 -5 2 -5 2 -4 3 -5 2 -4 3 -5 3 -4 3 -4 3 -4 4 -3 4 -4 3 -3 4 -3 4 -3 5 -3 4 -2 5 -3 4 -2 5 -2 5 -1 5 -2 5 -1 5 -1 5 0 6 -1 5 0 0 0zm1000 115l-1000 0 0 -20 1000 0 0 20z"/>
  </g>
  <g>
   <path class="fil0" d="M2300 495l5 0 6 1 5 0 5 1 5 1 5 2 5 1 5 2 4 2 5 3 4 2 5 3 4 3 4 3 3 3 4 4 4 3 3 4 3 4 3 4 3 5 2 4 3 5 2 4 1 5 2 5 2 5 1 5 1 5 0 5 1 6 0 5 0 0 0 5 -1 6 0 5 -1 5 -1 5 -2 5 -2 5 -1 5 -2 4 -3 5 -2 4 -3 5 -3 4 -3 4 -3 4 -4 3 -4 4 -3 3 -4 3 -4 3 -5 3 -4 2 -5 3 -4 2 -5 2 -5 1 -5 2 -5 1 -5 1 -5 0 -6 1 -5 0 0 0 -5 0 -6 -1 -5 0 -5 -1 -5 -1 -5 -2 -5 -1 -5 -2 -4 -2 -5 -3 -4 -2 -5 -3 -4 -3 -4 -3 -3 -3 -4 -4 -4 -3 -3 -4 -3 -4 -3 -4 -3 -5 -2 -4 -3 -5 -2 -4 -2 -5 -1 -5 -2 -5 -1 -5 -1 -5 0 -5 -1 -6 0 -5 0 0 0 -5 1 -6 0 -5 1 -5 1 -5 2 -5 1 -5 2 -5 2 -4 3 -5 2 -4 3 -5 3 -4 3 -4 3 -4 4 -3 4 -4 3 -3 4 -3 4 -3 5 -3 4 -2 5 -3 4 -2 5 -2 5 -1 5 -2 5 -1 5 -1 5 0 6 -1 5 0 0 0zm1000 115l-1000 0 0 -20 1000 0 0 20z"/>
  </g>
  <g>
   <path class="fil0" d="M2300 1495l5 0 6 1 5 0 5 1 5 1 5 2 5 1 5 2 4 2 5 3 4 2 5 3 4 3 4 3 3 3 4 4 4 3 3 4 3 4 3 4 3 5 2 4 3 5 2 4 1 5 2 5 2 5 1 5 1 5 0 5 1 6 0 5 0 0 0 5 -1 6 0 5 -1 5 -1 5 -2 5 -2 5 -1 5 -2 4 -3 5 -2 4 -3 5 -3 4 -3 4 -3 4 -4 3 -4 4 -3 3 -4 3 -4 3 -5 3 -4 2 -5 3 -4 2 -5 2 -5 1 -5 2 -5 1 -5 1 -5 0 -6 1 -5 0 0 0 -5 0 -6 -1 -5 0 -5 -1 -5 -1 -5 -2 -5 -1 -5 -2 -4 -2 -5 -3 -4 -2 -5 -3 -4 -3 -4 -3 -3 -3 -4 -4 -4 -3 -3 -4 -3 -4 -3 -4 -3 -5 -2 -4 -3 -5 -2 -4 -2 -5 -1 -5 -2 -5 -1 -5 -1 -5 0 -5 -1 -6 0 -5 0 0 0 -5 1 -6 0 -5 1 -5 1 -5 2 -5 1 -5 2 -5 2 -4 3 -5 2 -4 3 -5 3 -4 3 -4 3 -4 4 -3 4 -4 3 -3 4 -3 4 -3 5 -3 4 -2 5 -3 4 -2 5 -2 5 -1 5 -2 5 -1 5 -1 5 0 6 -1 5 0 0 0zm1000 115l-1000 0 0 -20 1000 0 0 20z"/>
  </g>
  <g>
   <path class="fil0" d="M2300 2495l5 0 6 1 5 0 5 1 5 1 5 2 5 1 5 2 4 2 5 3 4 2 5 3 4 3 4 3 3 3 4 4 4 3 3 4 3 4 3 4 3 5 2 4 3 5 2 4 1 5 2 5 2 5 1 5 1 5 0 5 1 6 0 5 0 0 0 5 -1 6 0 5 -1 5 -1 5 -2 5 -2 5 -1 5 -2 4 -3 5 -2 4 -3 5 -3 4 -3 4 -3 4 -4 3 -4 4 -3 3 -4 3 -4 3 -5 3 -4 2 -5 3 -4 2 -5 2 -5 1 -5 2 -5 1 -5 1 -5 0 -6 1 -5 0 0 0 -5 0 -6 -1 -5 0 -5 -1 -5 -1 -5 -2 -5 -1 -5 -2 -4 -2 -5 -3 -4 -2 -5 -3 -4 -3 -4 -3 -3 -3 -4 -4 -4 -3 -3 -4 -3 -4 -3 -4 -3 -5 -2 -4 -3 -5 -2 -4 -2 -5 -1 -5 -2 -5 -1 -5 -1 -5 0 -5 -1 -6 0 -5 0 0 0 -5 1 -6 0 -5 1 -5 1 -5 2 -5 1 -5 2 -5 2 -4 3 -5 2 -4 3 -5 3 -4 3 -4 3 -4 4 -3 4 -4 3 -3 4 -3 4 -3 5 -3 4 -2 5 -3 4 -2 5 -2 5 -1 5 -2 5 -1 5 -1 5 0 6 -1 5 0 0 0zm1000 115l-1000 0 0 -20 1000 0 0 20z"/>
  </g>
  <g>
   <path class="fil0" d="M2300 3495l5 0 6 1 5 0 5 1 5 1 5 2 5 1 5 2 4 2 5 3 4 2 5 3 4 3 4 3 3 3 4 4 4 3 3 4 3 4 3 4 3 5 2 4 3 5 2 4 1 5 2 5 2 5 1 5 1 5 0 5 1 6 0 5 0 0 0 5 -1 6 0 5 -1 5 -1 5 -2 5 -2 5 -1 5 -2 4 -3 5 -2 4 -3 5 -3 4 -3 4 -3 4 -4 3 -4 4 -3 3 -4 3 -4 3 -5 3 -4 2 -5 3 -4 2 -5 2 -5 1 -5 2 -5 1 -5 1 -5 0 -6 1 -5 0 0 0 -5 0 -6 -1 -5 0 -5 -1 -5 -1 -5 -2 -5 -1 -5 -2 -4 -2 -5 -3 -4 -2 -5 -3 -4 -3 -4 -3 -3 -3 -4 -4 -4 -3 -3 -4 -3 -4 -3 -4 -3 -5 -2 -4 -3 -5 -2 -4 -2 -5 -1 -5 -2 -5 -1 -5 -1 -5 0 -5 -1 -6 0 -5 0 0 0 -5 1 -6 0 -5 1 -5 1 -5 2 -5 1 -5 2 -5 2 -4 3 -5 2 -4 3 -5 3 -4 3 -4 3 -4 4 -3 4 -4 3 -3 4 -3 4 -3 5 -3 4 -2 5 -3 4 -2 5 -2 5 -1 5 -2 5 -1 5 -1 5 0 6 -1 5 0 0 0zm1000 115l-1000 0 0 -20 1000 0 0 20z"/>
  </g>
  <g>
   <path class="fil0" d="M2300 4495l5 0 6 1 5 0 5 1 5 1 5 2 5 1 5 2 4 2 5 3 4 2 5 3 4 3 4 3 3 3 4 4 4 3 3 4 3 4 3 4 3 5 2 4 3 5 2 4 1 5 2 5 2 5 1 5 1 5 0 5 1 6 0 5 0 0 0 5 -1 6 0 5 -1 5 -1 5 -2 5 -2 5 -1 5 -2 4 -3 5 -2 4 -3 5 -3 4 -3 4 -3 4 -4 3 -4 4 -3 3 -4 3 -4 3 -5 3 -4 2 -5 3 -4 2 -5 2 -5 1 -5 2 -5 1 -5 1 -5 0 -6 1 -5 0 0 0 -5 0 -6 -1 -5 0 -5 -1 -5 -1 -5 -2 -5 -1 -5 -2 -4 -2 -5 -3 -4 -2 -5 -3 -4 -3 -4 -3 -3 -3 -4 -4 -4 -3 -3 -4 -3 -4 -3 -4 -3 -5 -2 -4 -3 -5 -2 -4 -2 -5 -1 -5 -2 -5 -1 -5 -1 -5 0 -5 -1 -6 0 -5 0 0 0 -5 1 -6 0 -5 1 -5 1 -5 2 -5 1 -5 2 -5 2 -4 3 -5 2 -4 3 -5 3 -4 3 -4 3 -4 4 -3 4 -4 3 -3 4 -3 4 -3 5 -3 4 -2 5 -3 4 -2 5 -2 5 -1 5 -2 5 -1 5 -1 5 0 6 -1 5 0 0 0zm1000 115l-1000 0 0 -20 1000 0 0 20z"/>
  </g>
  <g>
   <path class="fil0" d="M2300 5495l5 0 6 1 5 0 5 1 5 1 5 2 5 1 5 2 4 2 5 3 4 2 5 3 4 3 4 3 3 3 4 4 4 3 3 4 3 4 3 4 3 5 2 4 3 5 2 4 1 5 2 5 2 5 1 5 1 5 0 5 1 6 0 5 0 0 0 5 -1 6 0 5 -1 5 -1 5 -2 5 -2 5 -1 5 -2 4 -3 5 -2 4 -3 5 -3 4 -3 4 -3 4 -4 3 -4 4 -3 3 -4 3 -4 3 -5 3 -4 2 -5 3 -4 2 -5 2 -5 1 -5 2 -5 1 -5 1 -5 0 -6 1 -5 0 0 0 -5 0 -6 -1 -5 0 -5 -1 -5 -1 -5 -2 -5 -1 -5 -2 -4 -2 -5 -3 -4 -2 -5 -3 -4 -3 -4 -3 -3 -3 -4 -4 -4 -3 -3 -4 -3 -4 -3 -4 -3 -5 -2 -4 -3 -5 -2 -4 -2 -5 -1 -5 -2 -5 -1 -5 -1 -5 0 -5 -1 -6 0 -5 0 0 0 -5 1 -6 0 -5 1 -5 1 -5 2 -5 1 -5 2 -5 2 -4 3 -5 2 -4 3 -5 3 -4 3 -4 3 -4 4 -3 4 -4 3 -3 4 -3 4 -3 5 -3 4 -2 5 -3 4 -2 5 -2 5 -1 5 -2 5 -1 5 -1 5 0 6 -1 5 0 0 0zm1000 115l-1000 0 0 -20 1000 0 0 20z"/>
  </g>
  <g>
   <path class="fil0" d="M2300 6495l5 0 6 1 5 0 5 1 5 1 5 2 5 1 5 2 4 2 5 3 4 2 5 3 4 3 4 3 3 3 4 4 4 3 3 4 3 4 3 4 3 5 2 4 3 5 2 4 1 5 2 5 2 5 1 5 1 5 0 5 1 6 0 5 0 0 0 5 -1 6 0 5 -1 5 -1 5 -2 5 -2 5 -1 5 -2 4 -3 5 -2 4 -3 5 -3 4 -3 4 -3 4 -4 3 -4 4 -3 3 -4 3 -4 3 -5 3 -4 2 -5 3 -4 2 -5 2 -5 1 -5 2 -5 1 -5 1 -5 0 -6 1 -5 0 0 0 -5 0 -6 -1 -5 0 -5 -1 -5 -1 -5 -2 -5 -1 -5 -2 -4 -2 -5 -3 -4 -2 -5 -3 -4 -3 -4 -3 -3 -3 -4 -4 -4 -3 -3 -4 -3 -4 -3 -4 -3 -5 -2 -4 -3 -5 -2 -4 -2 -5 -1 -5 -2 -5 -1 -5 -1 -5 0 -5 -1 -6 0 -5 0 0 0 -5 1 -6 0 -5 1 -5 1 -5 2 -5 1 -5 2 -5 2 -4 3 -5 2 -4 3 -5 3 -4 3 -4 3 -4 4 -3 4 -4 3 -3 4 -3 4 -3 5 -3 4 -2 5 -3 4 -2 5 -2 5 -1 5 -2 5 -1 5 -1 5 0 6 -1 5 0 0 0zm1000 115l-1000 0 0 -20 1000 0 0 20z"/>
  </g>
  <g>
   <path class="fil0" d="M2300 7495l5 0 6 1 5 0 5 1 5 1 5 2 5 1 5 2 4 2 5 3 4 2 5 3 4 3 4 3 3 3 4 4 4 3 3 4 3 4 3 4 3 5 2 4 3 5 2 4 1 5 2 5 2 5 1 5 1 5 0 5 1 6 0 5 0 0 0 5 -1 6 0 5 -1 5 -1 5 -2 5 -2 5 -1 5 -2 4 -3 5 -2 4 -3 5 -3 4 -3 4 -3 4 -4 3 -4 4 -3 3 -4 3 -4 3 -5 3 -4 2 -5 3 -4 2 -5 2 -5 1 -5 2 -5 1 -5 1 -5 0 -6 1 -5 0 0 0 -5 0 -6 -1 -5 0 -5 -1 -5 -1 -5 -2 -5 -1 -5 -2 -4 -2 -5 -3 -4 -2 -5 -3 -4 -3 -4 -3 -3 -3 -4 -4 -4 -3 -3 -4 -3 -4 -3 -4 -3 -5 -2 -4 -3 -5 -2 -4 -2 -5 -1 -5 -2 -5 -1 -5 -1 -5 0 -5 -1 -6 0 -5 0 0 0 -5 1 -6 0 -5 1 -5 1 -5 2 -5 1 -5 2 -5 2 -4 3 -5 2 -4 3 -5 3 -4 3 -4 3 -4 4 -3 4 -4 3 -3 4 -3 4 -3 5 -3 4 -2 5 -3 4 -2 5 -2 5 -1 5 -2 5 -1 5 -1 5 0 6 -1 5 0 0 0zm1000 115l-1000 0 0 -20 1000 0 0 20z"/>
  </g>
  <g>
   <path class="fil0" d="M3300 495l5 0 6 1 5 0 5 1 5 1 5 2 5 1 5 2 4 2 5 3 4 2 5 3 4 3 4 3 3 3 4 4 4 3 3 4 3 4 3 4 3 5 2 4 3 5 2 4 1 5 2 5 2 5 1 5 1 5 0 5 1 6 0 5 0 0 0 5 -1 6 0 5 -1 5 -1 5 -2 5 -2 5 -1 5 -2 4 -3 5 -2 4 -3 5 -3 4 -3 4 -3 4 -4 3 -4 4 -3 3 -4 3 -4 3 -5 3 -4 2 -5 3 -4 2 -5 2 -5 1 -5 2 -5 1 -5 1 -5 0 -6 1 -5 0 0 0 -5 0 -6 -1 -5 0 -5 -1 -5 -1 -5 -2 -5 -1 -5 -2 -4 -2 -5 -3 -4 -2 -5 -3 -4 -3 -4 -3 -3 -3 -4 -4 -4 -3 -3 -4 -3 -4 -3 -4 -3 -5 -2 -4 -3 -5 -2 -4 -2 -5 -1 -5 -2 -5 -1 -5 -1 -5 0 -5 -1 -6 0 -5 0 0 0 -5 1 -6 0 -5 1 -5 1 -5 2 -5 1 -5 2 -5 2 -4 3 -5 2 -4 3 -5 3 -4 3 -4 3 -4 4 -3 4 -4 3 -3 4 -3 4 -3 5 -3 4 -2 5 -3 4 -2 5 -2 5 -1 5 -2 5 -1 5 -1 5 0 6 -1 5 0 0 0zm1000 115l-1000 0 0 -20 1000 0 0 20z"/>
  </g>
  <g>
   <path class="fil0" d="M3300 1495l5 0 6 1 5 0 5 1 5 1 5 2 5 1 5 2 4 2 5 3 4 2 5 3 4 3 4 3 3 3 4 4 4 3 3 4 3 4 3 4 3 5 2 4 3 5 2 4 1 5 2 5 2 5 1 5 1 5 0 5 1 6 0 5 0 0 0 5 -1 6 0 5 -1 5 -1 5 -2 5 -2 5 -1 5 -2 4 -3 5 -2 4 -3 5 -3 4 -3 4 -3 4 -4 3 -4 4 -3 3 -4 3 -4 3 -5 3 -4 2 -5 3 -4 2 -5 2 -5 1 -5 2 -5 1 -5 1 -5 0 -6 1 -5 0 0 0 -5 0 -6 -1 -5 0 -5 -1 -5 -1 -5 -2 -5 -1 -5 -2 -4 -2 -5 -3 -4 -2 -5 -3 -4 -3 -4 -3 -3 -3 -4 -4 -4 -3 -3 -4 -3 -4 -3 -4 -3 -5 -2 -4 -3 -5 -2 -4 -2 -5 -1 -5 -2 -5 -1 -5 -1 -5 0 -5 -1 -6 0 -5 0 0 0 -5 1 -6 0 -5 1 -5 1 -5 2 -5 1 -5 2 -5 2 -4 3 -5 2 -4 3 -5 3 -4 3 -4 3 -4 4 -3 4 -4 3 -3 4 -3 4 -3 5 -3 4 -2 5 -3 4 -2 5 -2 5 -1 5 -2 5 -1 5 -1 5 0 6 -1 5 0 0 0zm1000 115l-1000 0 0 -20 1000 0 0 20z"/>
  </g>
  <g>
   <path class="fil0" d="M3300 2495l5 0 6 1 5 0 5 1 5 1 5 2 5 1 5 2 4 2 5 3 4 2 5 3 4 3 4 3 3 3 4 4 4 3 3 4 3 4 3 4 3 5 2 4 3 5 2 4 1 5 2 5 2 5 1 5 1 5 0 5 1 6 0 5 0 0 0 5 -1 6 0 5 -1 5 -1 5 -2 5 -2 5 -1 5 -2 4 -3 5 -2 4 -3 5 -3 4 -3 4 -3 4 -4 3 -4 4 -3 3 -4 3 -4 3 -5 3 -4 2 -5 3 -4 2 -5 2 -5 1 -5 2 -5 1 -5 1 -5 0 -6 1 -5 0 0 0 -5 0 -6 -1 -5 0 -5 -1 -5 -1 -5 -2 -5 -1 -5 -2 -4 -2 -5 -3 -4 -2 -5 -3 -4 -3 -4 -3 -3 -3 -4 -4 -4 -3 -3 -4 -3 -4 -3 -4 -3 -5 -2 -4 -3 -5 -2 -4 -2 -5 -1 -5 -2 -5 -1 -5 -1 -5 0 -5 -1 -6 0 -5 0 0 0 -5 1 -6 0 -5 1 -5 1 -5 2 -5 1 -5 2 -5 2 -4 3 -5 2 -4 3 -5 3 -4 3 -4 3 -4 4 -3 4 -4 3 -3 4 -3 4 -3 5 -3 4 -2 5 -3 4 -2 5 -2 5 -1 5 -2 5 -1 5 -1 5 0 6 -1 5 0 0 0zm1000 115l-1000 0 0 -20 1000 0 0 20z"/>
  </g>
  <g>
   <path class="fil0" d="M3300 3495l5 0 6 1 5 0 5 1 5 1 5 2 5 1 5 2 4 2 5 3 4 2 5 3 4 3 4 3 3 3 4 4 4 3 3 4 3 4 3 4 3 5 2 4 3 5 2 4 1 5 2 5 2 5 1 5 1 5 0 5 1 6 0 5 0 0 0 5 -1 6 0 5 -1 5 -1 5 -2 5 -2 5 -1 5 -2 4 -3 5 -2 4 -3 5 -3 4 -3 4 -3 4 -4 3 -4 4 -3 3 -4 3 -4 3 -5 3 -4 2 -5 3 -4 2 -5 2 -5 1 -5 2 -5 1 -5 1 -5 0 -6 1 -5 0 0 0 -5 0 -6 -1 -5 0 -5 -1 -5 -1 -5 -2 -5 -1 -5 -2 -4 -2 -5 -3 -4 -2 -5 -3 -4 -3 -4 -3 -3 -3 -4 -4 -4 -3 -3 -4 -3 -4 -3 -4 -3 -5 -2 -4 -3 -5 -2 -4 -2 -5 -1 -5 -2 -5 -1 -5 -1 -5 0 -5 -1 -6 0 -5 0 0 0 -5 1 -6 0 -5 1 -5 1 -5 2 -5 1 -5 2 -5 2 -4 3 -5 2 -4 3 -5 3 -4 3 -4 3 -4 4 -3 4 -4 3 -3 4 -3 4 -3 5 -3 4 -2 5 -3 4 -2 5 -2 5 -1 5 -2 5 -1 5 -1 5 0 6 -1 5 0 0 0zm1000 115l-1000 0 0 -20 1000 0 0 20z"/>
  </g>
  <g>
   <path class="fil0" d="M3300 4495l5 0 6 1 5 0 5 1 5 1 5 2 5 1 5 2 4 2 5 3 4 2 5 3 4 3 4 3 3 3 4 4 4 3 3 4 3 4 3 4 3 5 2 4 3 5 2 4 1 5 2 5 2 5 1 5 1 5 0 5 1 6 0 5 0 0 0 5 -1 6 0 5 -1 5 -1 5 -2 5 -2 5 -1 5 -2 4 -3 5 -2 4 -3 5 -3 4 -3 4 -3 4 -4 3 -4 4 -3 3 -4 3 -4 3 -5 3 -4 2 -5 3 -4 2 -5 2 -5 1 -5 2 -5 1 -5 1 -5 0 -6 1 -5 0 0 0 -5 0 -6 -1 -5 0 -5 -1 -5 -1 -5 -2 -5 -1 -5 -2 -4 -2 -5 -3 -4 -2 -5 -3 -4 -3 -4 -3 -3 -3 -4 -4 -4 -3 -3 -4 -3 -4 -3 -4 -3 -5 -2 -4 -3 -5 -2 -4 -2 -5 -1 -5 -2 -5 -1 -5 -1 -5 0 -5 -1 -6 0 -5 0 0 0 -5 1 -6 0 -5 1 -5 1 -5 2 -5 1 -5 2 -5 2 -4 3 -5 2 -4 3 -5 3 -4 3 -4 3 -4 4 -3 4 -4 3 -3 4 -3 4 -3 5 -3 4 -2 5 -3 4 -2 5 -2 5 -1 5 -2 5 -1 5 -1 5 0 6 -1 5 0 0 0zm1000 115l-1000 0 0 -20 1000 0 0 20z"/>
  </g>
  <g>
   <path class="fil0" d="M3300 5495l5 0 6 1 5 0 5 1 5 1 5 2 5 1 5 2 4 2 5 3 4 2 5 3 4 3 4 3 3 3 4 4 4 3 3 4 3 4 3 4 3 5 2 4 3 5 2 4 1 5 2 5 2 5 1 5 1 5 0 5 1 6 0 5 0 0 0 5 -1 6 0 5 -1 5 -1 5 -2 5 -2 5 -1 5 -2 4 -3 5 -2 4 -3 5 -3 4 -3 4 -3 4 -4 3 -4 4 -3 3 -4 3 -4 3 -5 3 -4 2 -5 3 -4 2 -5 2 -5 1 -5 2 -5 1 -5 1 -5 0 -6 1 -5 0 0 0 -5 0 -6 -1 -5 0 -5 -1 -5 -1 -5 -2 -5 -1 -5 -2 -4 -2 -5 -3 -4 -2 -5 -3 -4 -3 -4 -3 -3 -3 -4 -4 -4 -3 -3 -4 -3 -4 -3 -4 -3 -5 -2 -4 -3 -5 -2 -4 -2 -5 -1 -5 -2 -5 -1 -5 -1 -5 0 -5 -1 -6 0 -5 0 0 0 -5 1 -6 0 -5 1 -5 1 -5 2 -5 1 -5 2 -5 2 -4 3 -5 2 -4 3 -5 3 -4 3 -4 3 -4 4 -3 4 -4 3 -3 4 -3 4 -3 5 -3 4 -2 5 -3 4 -2 5 -2 5 -1 5 -2 5 -1 5 -1 5 0 6 -1 5 0 0 0zm1000 115l-1000 0 0 -20 1000 0 0 20z"/>
  </g>
  <g>
   <path class="fil0" d="M3300 6495l5 0 6 1 5 0 5 1 5 1 5 2 5 1 5 2 4 2 5 3 4 2 5 3 4 3 4 3 3 3 4 4 4 3 3 4 3 4 3 4 3 5 2 4 3 5 2 4 1 5 2 5 2 5 1 5 1 5 0 5 1 6 0 5 0 0 0 5 -1 6 0 5 -1 5 -1 5 -2 5 -2 5 -1 5 -2 4 -3 5 -2 4 -3 5 -3 4 -3 4 -3 4 -4 3 -4 4 -3 3 -4 3 -4 3 -5 3 -4 2 -5 3 -4 2 -5 2 -5 1 -5 2 -5 1 -5 1 -5 0 -6 1 -5 0 0 0 -5 0 -6 -1 -5 0 -5 -1 -5 -1 -5 -2 -5 -1 -5 -2 -4 -2 -5 -3 -4 -2 -5 -3 -4 -3 -4 -3 -3 -3 -4 -4 -4 -3 -3 -4 -3 -4 -3 -4 -3 -5 -2 -4 -3 -5 -2 -4 -2 -5 -1 -5 -2 -5 -1 -5 -1 -5 0 -5 -1 -6 0 -5 0 0 0 -5 1 -6 0 -5 1 -5 1 -5 2 -5 1 -5 2 -5 2 -4 3 -5 2 -4 3 -5 3 -4 3 -4 3 -4 4 -3 4 -4 3 -3 4 -3 4 -3 5 -3 4 -2 5 -3 4 -2 5 -2 5 -1 5 -2 5 -1 5 -1 5 0 6 -1 5 0 0 0zm1000 115l-1000 0 0 -20 1000 0 0 20z"/>
  </g>
  <g>
   <path class="fil0" d="M3300 7495l5 0 6 1 5 0 5 1 5 1 5 2 5 1 5 2 4 2 5 3 4 2 5 3 4 3 4 3 3 3 4 4 4 3 3 4 3 4 3 4 3 5 2 4 3 5 2 4 1 5 2 5 2 5 1 5 1 5 0 5 1 6 0 5 0 0 0 5 -1 6 0 5 -1 5 -1 5 -2 5 -2 5 -1 5 -2 4 -3 5 -2 4 -3 5 -3 4 -3 4 -3 4 -4 3 -4 4 -3 3 -4 3 -4 3 -5 3 -4 2 -5 3 -4 2 -5 2 -5 1 -5 2 -5 1 -5 1 -5 0 -6 1 -5 0 0 0 -5 0 -6 -1 -5 0 -5 -1 -5 -1 -5 -2 -5 -1 -5 -2 -4 -2 -5 -3 -4 -2 -5 -3 -4 -3 -4 -3 -3 -3 -4 -4 -4 -3 -3 -4 -3 -4 -3 -4 -3 -5 -2 -4 -3 -5 -2 -4 -2 -5 -1 -5 -2 -5 -1 -5 -1 -5 0 -5 -1 -6 0 -5 0 0 0 -5 1 -6 0 -5 1 -5 1 -5 2 -5 1 -5 2 -5 2 -4 3 -5 2 -4 3 -5 3 -4 3 -4 3 -4 4 -3 4 -4 3 -3 4 -3 4 -3 5 -3 4 -2 5 -3 4 -2 5 -2 5 -1 5 -2 5 -1 5 -1 5 0 6 -1 5 0 0 0zm1000 115l-1000 0 0 -20 1000 0 0 20z"/>
  </g>
  <g>
   <path class="fil0" d="M4300 495l5 0 6 1 5 0 5 1 5 1 5 2 5 1 5 2 4 2 5 3 4 2 5 3 4 3 4 3 3 3 4 4 4 3 3 4 3 4 3 4 3 5 2 4 3 5 2 4 1 5 2 5 2 5 1 5 1 5 0 5 1 6 0 5 0 0 0 5 -1 6 0 5 -1 5 -1 5 -2 5 -2 5 -1 5 -2 4 -3 5 -2 4 -3 5 -3 4 -3 4 -3 4 -4 3 -4 4 -3 3 -4 3 -4 3 -5 3 -4 2 -5 3 -4 2 -5 2 -5 1 -5 2 -5 1 -5 1 -5 0 -6 1 -5 0 0 0 -5 0 -6 -1 -5 0 -5 -1 -5 -1 -5 -2 -5 -1 -5 -2 -4 -2 -5 -3 -4 -2 -5 -3 -4 -3 -4 -3 -3 -3 -4 -4 -4 -3 -3 -4 -3 -4 -3 -4 -3 -5 -2 -4 -3 -5 -2 -4 -2 -5 -1 -5 -2 -5 -1 -5 -1 -5 0 -5 -1 -6 0 -5 0 0 0 -5 1 -6 0 -5 1 -5 1 -5 2 -5 1 -5 2 -5 2 -4 3 -5 2 -4 3 -5 3 -4 3 -4 3 -4 4 -3 4 -4 3 -3 4 -3 4 -3 5 -3 4 -2 5 -3 4 -2 5 -2 5 -1 5 -2 5 -1 5 -1 5 0 6 -1 5 0 0 0zm1000 115l-1000 0 0 -20 1000 0 0 20z"/>
  </g>
  <g>
   <path class="fil0" d="M4300 1495l5 0 6 1 5 0 5 1 5 1 5 2 5 1 5 2 4 2 5 3 4 2 5 3 4 3 4 3 3 3 4 4 4 3 3 4 3 4 3 4 3 5 2 4 3 5 2 4 1 5 2 5 2 5 1 5 1 5 0 5 1 6 0 5 0 0 0 5 -1 6 0 5 -1 5 -1 5 -2 5 -2 5 -1 5 -2 4 -3 5 -2 4 -3 5 -3 4 -3 4 -3 4 -4 3 -4 4 -3 3 -4 3 -4 3 -5 3 -4 2 -5 3 -4 2 -5 2 -5 1 -5 2 -5 1 -5 1 -5 0 -6 1 -5 0 0 0 -5 0 -6 -1 -5 0 -5 -1 -5 -1 -5 -2 -5 -1 -5 -2 -4 -2 -5 -3 -4 -2 -5 -3 -4 -3 -4 -3 -3 -3 -4 -4 -4 -3 -3 -4 -3 -4 -3 -4 -3 -5 -2 -4 -3 -5 -2 -4 -2 -5 -1 -5 -2 -5 -1 -5 -1 -5 0 -5 -1 -6 0 -5 0 0 0 -5 1 -6 0 -5 1 -5 1 -5 2 -5 1 -5 2 -5 2 -4 3 -5 2 -4 3 -5 3 -4 3 -4 3 -4 4 -3 4 -4 3 -3 4 -3 4 -3 5 -3 4 -2 5 -3 4 -2 5 -2 5 -1 5 -2 5 -1 5 -1 5 0 6 -1 5 0 0 0zm1000 115l-1000 0 0 -20 1000 0 0 20z"/>
  </g>
  <g>
   <path class="fil0" d="M4300 2495l5 0 6 1 5 0 5 1 5 1 5 2 5 1 5 2 4 2 5 3 4 2 5 3 4 3 4 3 3 3 4 4 4 3 3 4 3 4 3 4 3 5 2 4 3 5 2 4 1 5 2 5 2 5 1 5 1 5 0 5 1 6 0 5 0 0 0 5 -1 6 0 5 -1 5 -1 5 -2 5 -2 5 -1 5 -2 4 -3 5 -2 4 -3 5 -3 4 -3 4 -3 4 -4 3 -4 4 -3 3 -4 3 -4 3 -5 3 -4 2 -5 3 -4 2 -5 2 -5 1 -5 2 -5 1 -5 1 -5 0 -6 1 -5 0 0 0 -5 0 -6 -1 -5 0 -5 -1 -5 -1 -5 -2 -5 -1 -5 -2 -4 -2 -5 -3 -4 -2 -5 -3 -4 -3 -4 -3 -3 -3 -4 -4 -4 -3 -3 -4 -3 -4 -3 -4 -3 -5 -2 -4 -3 -5 -2 -4 -2 -5 -1 -5 -2 -5 -1 -5 -1 -5 0 -5 -1 -6 0 -5 0 0 0 -5 1 -6 0 -5 1 -5 1 -5 2 -5 1 -5 2 -5 2 -4 3 -5 2 -4 3 -5 3 -4 3 -4 3 -4 4 -3 4 -4 3 -3 4 -3 4 -3 5 -3 4 -2 5 -3 4 -2 5 -2 5 -1 5 -2 5 -1 5 -1 5 0 6 -1 5 0 0 0zm1000 115l-1000 0 0 -20 1000 0 0 20z"/>
  </g>
  <g>
   <path class="fil0" d="M4300 3495l5 0 6 1 5 0 5 1 5 1 5 2 5 1 5 2 4 2 5 3 4 2 5 3 4 3 4 3 3 3 4 4 4 3 3 4 3 4 3 4 3 5 2 4 3 5 2 4 1 5 2 5 2 5 1 5 1 5 0 5 1 6 0 5 0 0 0 5 -1 6 0 5 -1 5 -1 5 -2 5 -2 5 -1 5 -2 4 -3 5 -2 4 -3 5 -3 4 -3 4 -3 4 -4 3 -4 4 -3 3 -4 3 -4 3 -5 3 -4 2 -5 3 -4 2 -5 2 -5 1 -5 2 -5 1 -5 1 -5 0 -6 1 -5 0 0 0 -5 0 -6 -1 -5 0 -5 -1 -5 -1 -5 -2 -5 -1 -5 -2 -4 -2 -5 -3 -4 -2 -5 -3 -4 -3 -4 -3 -3 -3 -4 -4 -4 -3 -3 -4 -3 -4 -3 -4 -3 -5 -2 -4 -3 -5 -2 -4 -2 -5 -1 -5 -2 -5 -1 -5 -1 -5 0 -5 -1 -6 0 -5 0 0 0 -5 1 -6 0 -5 1 -5 1 -5 2 -5 1 -5 2 -5 2 -4 3 -5 2 -4 3 -5 3 -4 3 -4 3 -4 4 -3 4 -4 3 -3 4 -3 4 -3 5 -3 4 -2 5 -3 4 -2 5 -2 5 -1 5 -2 5 -1 5 -1 5 0 6 -1 5 0 0 0zm1000 115l-1000 0 0 -20 1000 0 0 20z"/>
  </g>
  <g>
   <path class="fil0" d="M4300 4495l5 0 6 1 5 0 5 1 5 1 5 2 5 1 5 2 4 2 5 3 4 2 5 3 4 3 4 3 3 3 4 4 4 3 3 4 3 4 3 4 3 5 2 4 3 5 2 4 1 5 2 5 2 5 1 5 1 5 0 5 1 6 0 5 0 0 0 5 -1 6 0 5 -1 5 -1 5 -2 5 -2 5 -1 5 -2 4 -3 5 -2 4 -3 5 -3 4 -3 4 -3 4 -4 3 -4 4 -3 3 -4 3 -4 3 -5 3 -4 2 -5 3 -4 2 -5 2 -5 1 -5 2 -5 1 -5 1 -5 0 -6 1 -5 0 0 0 -5 0 -6 -1 -5 0 -5 -1 -5 -1 -5 -2 -5 -1 -5 -2 -4 -2 -5 -3 -4 -2 -5 -3 -4 -3 -4 -3 -3 -3 -4 -4 -4 -3 -3 -4 -3 -4 -3 -4 -3 -5 -2 -4 -3 -5 -2 -4 -2 -5 -1 -5 -2 -5 -1 -5 -1 -5 0 -5 -1 -6 0 -5 0 0 0 -5 1 -6 0 -5 1 -5 1 -5 2 -5 1 -5 2 -5 2 -4 3 -5 2 -4 3 -5 3 -4 3 -4 3 -4 4 -3 4 -4 3 -3 4 -3 4 -3 5 -3 4 -2 5 -3 4 -2 5 -2 5 -1 5 -2 5 -1 5 -1 5 0 6 -1 5 0 0 0zm1000 115l-1000 0 0 -20 1000 0 0 20z"/>
  </g>
  <g>
   <path class="fil0" d="M4300 5495l5 0 6 1 5 0 5 1 5 1 5 2 5 1 5 2 4 2 5 3 4 2 5 3 4 3 4 3 3 3 4 4 4 3 3 4 3 4 3 4 3 5 2 4 3 5 2 4 1 5 2 5 2 5 1 5 1 5 0 5 1 6 0 5 0 0 0 5 -1 6 0 5 -1 5 -1 5 -2 5 -2 5 -1 5 -2 4 -3 5 -2 4 -3 5 -3 4 -3 4 -3 4 -4 3 -4 4 -3 3 -4 3 -4 3 -5 3 -4 2 -5 3 -4 2 -5 2 -5 1 -5 2 -5 1 -5 1 -5 0 -6 1 -5 0 0 0 -5 0 -6 -1 -5 0 -5 -1 -5 -1 -5 -2 -5 -1 -5 -2 -4 -2 -5 -3 -4 -2 -5 -3 -4 -3 -4 -3 -3 -3 -4 -4 -4 -3 -3 -4 -3 -4 -3 -4 -3 -5 -2 -4 -3 -5 -2 -4 -2 -5 -1 -5 -2 -5 -1 -5 -1 -5 0 -5 -1 -6 0 -5 0 0 0 -5 1 -6 0 -5 1 -5 1 -5 2 -5 1 -5 2 -5 2 -4 3 -5 2 -4 3 -5 3 -4 3 -4 3 -4 4 -3 4 -4 3 -3 4 -3 4 -3 5 -3 4 -2 5 -3 4 -2 5 -2 5 -1 5 -2 5 -1 5 -1 5 0 6 -1 5 0 0 0zm1000 115l-1000 0 0 -20 1000 0 0 20z"/>
  </g>
  <g>
   <path class="fil0" d="M4300 6495l5 0 6 1 5 0 5 1 5 1 5 2 5 1 5 2 4 2 5 3 4 2 5 3 4 3 4 3 3 3 4 4 4 3 3 4 3 4 3 4 3 5 2 4 3 5 2 4 1 5 2 5 2 5 1 5 1 5 0 5 1 6 0 5 0 0 0 5 -1 6 0 5 -1 5 -1 5 -2 5 -2 5 -1 5 -2 4 -3 5 -2 4 -3 5 -3 4 -3 4 -3 4 -4 3 -4 4 -3 3 -4 3 -4 3 -5 3 -4 2 -5 3 -4 2 -5 2 -5 1 -5 2 -5 1 -5 1 -5 0 -6 1 -5 0 0 0 -5 0 -6 -1 -5 0 -5 -1 -5 -1 -5 -2 -5 -1 -5 -2 -4 -2 -5 -3 -4 -2 -5 -3 -4 -3 -4 -3 -3 -3 -4 -4 -4 -3 -3 -4 -3 -4 -3 -4 -3 -5 -2 -4 -3 -5 -2 -4 -2 -5 -1 -5 -2 -5 -1 -5 -1 -5 0 -5 -1 -6 0 -5 0 0 0 -5 1 -6 0 -5 1 -5 1 -5 2 -5 1 -5 2 -5 2 -4 3 -5 2 -4 3 -5 3 -4 3 -4 3 -4 4 -3 4 -4 3 -3 4 -3 4 -3 5 -3 4 -2 5 -3 4 -2 5 -2 5 -1 5 -2 5 -1 5 -1 5 0 6 -1 5 0 0 0zm1000 115l-1000 0 0 -20 1000 0 0 20z"/>
  </g>
  <g>
   <path class="fil0" d="M4300 7495l5 0 6 1 5 0 5 1 5 1 5 2 5 1 5 2 4 2 5 3 4 2 5 3 4 3 4 3 3 3 4 4 4 3 3 4 3 4 3 4 3 5 2 4 3 5 2 4 1 5 2 5 2 5 1 5 1 5 0 5 1 6 0 5 0 0 0 5 -1 6 0 5 -1 5 -1 5 -2 5 -2 5 -1 5 -2 4 -3 5 -2 4 -3 5 -3 4 -3 4 -3 4 -4 3 -4 4 -3 3 -4 3 -4 3 -5 3 -4 2 -5 3 -4 2 -5 2 -5 1 -5 2 -5 1 -5 1 -5 0 -6 1 -5 0 0 0 -5 0 -6 -1 -5 0 -5 -1 -5 -1 -5 -2 -5 -1 -5 -2 -4 -2 -5 -3 -4 -2 -5 -3 -4 -3 -4 -3 -3 -3 -4 -4 -4 -3 -3 -4 -3 -4 -3 -4 -3 -5 -2 -4 -3 -5 -2 -4 -2 -5 -1 -5 -2 -5 -1 -5 -1 -5 0 -5 -1 -6 0 -5 0 0 0 -5 1 -6 0 -5 1 -5 1 -5 2 -5 1 -5 2 -5 2 -4 3 -5 2 -4 3 -5 3 -4 3 -4 3 -4 4 -3 4 -4 3 -3 4 -3 4 -3 5 -3 4 -2 5 -3 4 -2 5 -2 5 -1 5 -2 5 -1 5 -1 5 0 6 -1 5 0 0 0zm1000 115l-1000 0 0 -20 1000 0 0 20z"/>
  </g>
  <g>
   <path class="fil0" d="M5300 495l5 0 6 1 5 0 5 1 5 1 5 2 5 1 5 2 4 2 5 3 4 2 5 3 4 3 4 3 3 3 4 4 4 3 3 4 3 4 3 4 3 5 2 4 3 5 2 4 1 5 2 5 2 5 1 5 1 5 0 5 1 6 0 5 0 0 0 5 -1 6 0 5 -1 5 -1 5 -2 5 -2 5 -1 5 -2 4 -3 5 -2 4 -3 5 -3 4 -3 4 -3 4 -4 3 -4 4 -3 3 -4 3 -4 3 -5 3 -4 2 -5 3 -4 2 -5 2 -5 1 -5 2 -5 1 -5 1 -5 0 -6 1 -5 0 0 0 -5 0 -6 -1 -5 0 -5 -1 -5 -1 -5 -2 -5 -1 -5 -2 -4 -2 -5 -3 -4 -2 -5 -3 -4 -3 -4 -3 -3 -3 -4 -4 -4 -3 -3 -4 -3 -4 -3 -4 -3 -5 -2 -4 -3 -5 -2 -4 -2 -5 -1 -5 -2 -5 -1 -5 -1 -5 0 -5 -1 -6 0 -5 0 0 0 -5 1 -6 0 -5 1 -5 1 -5 2 -5 1 -5 2 -5 2 -4 3 -5 2 -4 3 -5 3 -4 3 -4 3 -4 4 -3 4 -4 3 -3 4 -3 4 -3 5 -3 4 -2 5 -3 4 -2 5 -2 5 -1 5 -2 5 -1 5 -1 5 0 6 -1 5 0 0 0zm1000 115l-1000 0 0 -20 1000 0 0 20z"/>
  </g>
  <g>
   <path class="fil0" d="M5300 1495l5 0 6 1 5 0 5 1 5 1 5 2 5 1 5 2 4 2 5 3 4 2 5 3 4 3 4 3 3 3 4 4 4 3 3 4 3 4 3 4 3 5 2 4 3 5 2 4 1 5 2 5 2 5 1 5 1 5 0 5 1 6 0 5 0 0 0 5 -1 6 0 5 -1 5 -1 5 -2 5 -2 5 -1 5 -2 4 -3 5 -2 4 -3 5 -3 4 -3 4 -3 4 -4 3 -4 4 -3 3 -4 3 -4 3 -5 3 -4 2 -5 3 -4 2 -5 2 -5 1 -5 2 -5 1 -5 1 -5 0 -6 1 -5 0 0 0 -5 0 -6 -1 -5 0 -5 -1 -5 -1 -5 -2 -5 -1 -5 -2 -4 -2 -5 -3 -4 -2 -5 -3 -4 -3 -4 -3 -3 -3 -4 -4 -4 -3 -3 -4 -3 -4 -3 -4 -3 -5 -2 -4 -3 -5 -2 -4 -2 -5 -1 -5 -2 -5 -1 -5 -1 -5 0 -5 -1 -6 0 -5 0 0 0 -5 1 -6 0 -5 1 -5 1 -5 2 -5 1 -5 2 -5 2 -4 3 -5 2 -4 3 -5 3 -4 3 -4 3 -4 4 -3 4 -4 3 -3 4 -3 4 -3 5 -3 4 -2 5 -3 4 -2 5 -2 5 -1 5 -2 5 -1 5 -1 5 0 6 -1 5 0 0 0zm1000 115l-1000 0 0 -20 1000 0 0 20z"/>
  </g>
  <g>
   <path class="fil0" d="M5300 2495l5 0 6 1 5 0 5 1 5 1 5 2 5 1 5 2 4 2 5 3 4 2 5 3 4 3 4 3 3 3 4 4 4 3 3 4 3 4 3 4 3 5 2 4 3 5 2 4 1 5 2 5 2 5 1 5 1 5 0 5 1 6 0 5 0 0 0 5 -1 6 0 5 -1 5 -1 5 -2 5 -2 5 -1 5 -2 4 -3 5 -2 4 -3 5 -3 4 -3 4 -3 4 -4 3 -4 4 -3 3 -4 3 -4 3 -5 3 -4 2 -5 3 -4 2 -5 2 -5 1 -5 2 -5 1 -5 1 -5 0 -6 1 -5 0 0 0 -5 0 -6 -1 -5 0 -5 -1 -5 -1 -5 -2 -5 -1 -5 -2 -4 -2 -5 -3 -4 -2 -5 -3 -4 -3 -4 -3 -3 -3 -4 -4 -4 -3 -3 -4 -3 -4 -3 -4 -3 -5 -2 -4 -3 -5 -2 -4 -2 -5 -1 -5 -2 -5 -1 -5 -1 -5 0 -5 -1 -6 0 -5 0 0 0 -5 1 -6 0 -5 1 -5 1 -5 2 -5 1 -5 2 -5 2 -4 3 -5 2 -4 3 -5 3 -4 3 -4 3 -4 4 -3 4 -4 3 -3 4 -3 4 -3 5 -3 4 -2 5 -3 4 -2 5 -2 5 -1 5 -2 5 -1 5 -1 5 0 6 -1 5 0 0 0zm1000 115l-1000 0 0 -20 1000 0 0 20z"/>
  </g>
  <g>
   <path class="fil0" d="M5300 3495l5 0 6 1 5 0 5 1 5 1 5 2 5 1 5 2 4 2 5 3 4 2 5 3 4 3 4 3 3 3 4 4 4 3 3 4 3 4 3 4 3 5 2 4 3 5 2 4 1 5 2 5 2 5 1 5 1 5 0 5 1 6 0 5 0 0 0 5 -1 6 0 5 -1 5 -1 5 -2 5 -2 5 -1 5 -2 4 -3 5 -2 4 -3 5 -3 4 -3 4 -3 4 -4 3 -4 4 -3 3 -4 3 -4 3 -5 3 -4 2 -5 3 -4 2 -5 2 -5 1 -5 2 -5 1 -5 1 -5 0 -6 1 -5 0 0 0 -5 0 -6 -1 -5 0 -5 -1 -5 -1 -5 -2 -5 -1 -5 -2 -4 -2 -5 -3 -4 -2 -5 -3 -4 -3 -4 -3 -3 -3 -4 -4 -4 -3 -3 -4 -3 -4 -3 -4 -3 -5 -2 -4 -3 -5 -2 -4 -2 -5 -1 -5 -2 -5 -1 -5 -1 -5 0 -5 -1 -6 0 -5 0 0 0 -5 1 -6 0 -5 1 -5 1 -5 2 -5 1 -5 2 -5 2 -4 3 -5 2 -4 3 -5 3 -4 3 -4 3 -4 4 -3 4 -4 3 -3 4 -3 4 -3 5 -3 4 -2 5 -3 4 -2 5 -2 5 -1 5 -2 5 -1 5 -1 5 0 6 -1 5 0 0 0zm1000 115l-1000 0 0 -20 1000 0 0 20z"/>
  </g>
  <g>
   <path class="fil0" d="M5300 4495l5 0 6 1 5 0 5 1 5 1 5 2 5 1 5 2 4 2 5 3 4 2 5 3 4 3 4 3 3 3 4 4 4 3 3 4 3 4 3 4 3 5 2 4 3 5 2 4 1 5 2 5 2 5 1 5 1 5 0 5 1 6 0 5 0 0 0 5 -1 6 0 5 -1 5 -1 5 -2 5 -2 5 -1 5 -2 4 -3 5 -2 4 -3 5 -3 4 -3 4 -3 4 -4 3 -4 4 -3 3 -4 3 -4 3 -5 3 -4 2 -5 3 -4 2 -5 2 -5 1 -5 2 -5 1 -5 1 -5 0 -6 1 -5 0 0 0 -5 0 -6 -1 -5 0 -5 -1 -5 -1 -5 -2 -5 -1 -5 -2 -4 -2 -5 -3 -4 -2 -5 -3 -4 -3 -4 -3 -3 -3 -4 -4 -4 -3 -3 -4 -3 -4 -3 -4 -3 -5 -2 -4 -3 -5 -2 -4 -2 -5 -1 -5 -2 -5 -1 -5 -1 -5 0 -5 -1 -6 0 -5 0 0 0 -5 1 -6 0 -5 1 -5 1 -5 2 -5 1 -5 2 -5 2 -4 3 -5 2 -4 3 -5 3 -4 3 -4 3 -4 4 -3 4 -4 3 -3 4 -3 4 -3 5 -3 4 -2 5 -3 4 -2 5 -2 5 -1 5 -2 5 -1 5 -1 5 0 6 -1 5 0 0 0zm1000 115l-1000 0 0 -20 1000 0 0 20z"/>
  </g>
  <g>
   <path class="fil0" d="M5300 5495l5 0 6 1 5 0 5 1 5 1 5 2 5 1 5 2 4 2 5 3 4 2 5 3 4 3 4 3 3 3 4 4 4 3 3 4 3 4 3 4 3 5 2 4 3 5 2 4 1 5 2 5 2 5 1 5 1 5 0 5 1 6 0 5 0 0 0 5 -1 6 0 5 -1 5 -1 5 -2 5 -2 5 -1 5 -2 4 -3 5 -2 4 -3 5 -3 4 -3 4 -3 4 -4 3 -4 4 -3 3 -4 3 -4 3 -5 3 -4 2 -5 3 -4 2 -5 2 -5 1 -5 2 -5 1 -5 1 -5 0 -6 1 -5 0 0 0 -5 0 -6 -1 -5 0 -5 -1 -5 -1 -5 -2 -5 -1 -5 -2 -4 -2 -5 -3 -4 -2 -5 -3 -4 -3 -4 -3 -3 -3 -4 -4 -4 -3 -3 -4 -3 -4 -3 -4 -3 -5 -2 -4 -3 -5 -2 -4 -2 -5 -1 -5 -2 -5 -1 -5 -1 -5 0 -5 -1 -6 0 -5 0 0 0 -5 1 -6 0 -5 1 -5 1 -5 2 -5 1 -5 2 -5 2 -4 3 -5 2 -4 3 -5 3 -4 3 -4 3 -4 4 -3 4 -4 3 -3 4 -3 4 -3 5 -3 4 -2 5 -3 4 -2 5 -2 5 -1 5 -2 5 -1 5 -1 5 0 6 -1 5 0 0 0zm1000 115l-1000 0 0 -20 1000 0 0 20z"/>
  </g>
  <g>
   <path class="fil0" d="M5300 6495l5 0 6 1 5 0 5 1 5 1 5 2 5 1 5 2 4 2 5 3 4 2 5 3 4 3 4 3 3 3 4 4 4 3 3 4 3 4 3 4 3 5 2 4 3 5 2 4 1 5 2 5 2 5 1 5 1 5 0 5 1 6 0 5 0 0 0 5 -1 6 0 5 -1 5 -1 5 -2 5 -2 5 -1 5 -2 4 -3 5 -2 4 -3 5 -3 4 -3 4 -3 4 -4 3 -4 4 -3 3 -4 3 -4 3 -5 3 -4 2 -5 3 -4 2 -5 2 -5 1 -5 2 -5 1 -5 1 -5 0 -6 1 -5 0 0 0 -5 0 -6 -1 -5 0 -5 -1 -5 -1 -5 -2 -5 -1 -5 -2 -4 -2 -5 -3 -4 -2 -5 -3 -4 -3 -4 -3 -3 -3 -4 -4 -4 -3 -3 -4 -3 -4 -3 -4 -3 -5 -2 -4 -3 -5 -2 -4 -2 -5 -1 -5 -2 -5 -1 -5 -1 -5 0 -5 -1 -6 0 -5 0 0 0 -5 1 -6 0 -5 1 -5 1 -5 2 -5 1 -5 2 -5 2 -4 3 -5 2 -4 3 -5 3 -4 3 -4 3 -4 4 -3 4 -4 3 -3 4 -3 4 -3 5 -3 4 -2 5 -3 4 -2 5 -2 5 -1 5 -2 5 -1 5 -1 5 0 6 -1 5 0 0 0zm1000 115l-1000 0 0 -20 1000 0 0 20z"/>
  </g>
  <g>
   <path class="fil0" d="M5300 7495l5 0 6 1 5 0 5 1 5 1 5 2 5 1 5 2 4 2 5 3 4 2 5 3 4 3 4 3 3 3 4 4 4 3 3 4 3 4 3 4 3 5 2 4 3 5 2 4 1 5 2 5 2 5 1 5 1 5 0 5 1 6 0 5 0 0 0 5 -1 6 0 5 -1 5 -1 5 -2 5 -2 5 -1 5 -2 4 -3 5 -2 4 -3 5 -3 4 -3 4 -3 4 -4 3 -4 4 -3 3 -4 3 -4 3 -5 3 -4 2 -5 3 -4 2 -5 2 -5 1 -5 2 -5 1 -5 1 -5 0 -6 1 -5 0 0 0 -5 0 -6 -1 -5 0 -5 -1 -5 -1 -5 -2 -5 -1 -5 -2 -4 -2 -5 -3 -4 -2 -5 -3 -4 -3 -4 -3 -3 -3 -4 -4 -4 -3 -3 -4 -3 -4 -3 -4 -3 -5 -2 -4 -3 -5 -2 -4 -2 -5 -1 -5 -2 -5 -1 -5 -1 -5 0 -5 -1 -6 0 -5 0 0 0 -5 1 -6 0 -5 1 -5 1 -5 2 -5 1 -5 2 -5 2 -4 3 -5 2 -4 3 -5 3 -4 3 -4 3 -4 4 -3 4 -4 3 -3 4 -3 4 -3 5 -3 4 -2 5 -3 4 -2 5 -2 5 -1 5 -2 5 -1 5 -1 5 0 6 -1 5 0 0 0zm1000 115l-1000 0 0 -20 1000 0 0 20z"/>
  </g>
  <g>
   <path class="fil0" d="M6300 495l5 0 6 1 5 0 5 1 5 1 5 2 5 1 5 2 4 2 5 3 4 2 5 3 4 3 4 3 3 3 4 4 4 3 3 4 3 4 3 4 3 5 2 4 3 5 2 4 1 5 2 5 2 5 1 5 1 5 0 5 1 6 0 5 0 0 0 5 -1 6 0 5 -1 5 -1 5 -2 5 -2 5 -1 5 -2 4 -3 5 -2 4 -3 5 -3 4 -3 4 -3 4 -4 3 -4 4 -3 3 -4 3 -4 3 -5 3 -4 2 -5 3 -4 2 -5 2 -5 1 -5 2 -5 1 -5 1 -5 0 -6 1 -5 0 0 0 -5 0 -6 -1 -5 0 -5 -1 -5 -1 -5 -2 -5 -1 -5 -2 -4 -2 -5 -3 -4 -2 -5 -3 -4 -3 -4 -3 -3 -3 -4 -4 -4 -3 -3 -4 -3 -4 -3 -4 -3 -5 -2 -4 -3 -5 -2 -4 -2 -5 -1 -5 -2 -5 -1 -5 -1 -5 0 -5 -1 -6 0 -5 0 0 0 -5 1 -6 0 -5 1 -5 1 -5 2 -5 1 -5 2 -5 2 -4 3 -5 2 -4 3 -5 3 -4 3 -4 3 -4 4 -3 4 -4 3 -3 4 -3 4 -3 5 -3 4 -2 5 -3 4 -2 5 -2 5 -1 5 -2 5 -1 5 -1 5 0 6 -1 5 0 0 0zm1000 115l-1000 0 0 -20 1000 0 0 20z"/>
  </g>
  <g>
   <path class="fil0" d="M6300 1495l5 0 6 1 5 0 5 1 5 1 5 2 5 1 5 2 4 2 5 3 4 2 5 3 4 3 4 3 3 3 4 4 4 3 3 4 3 4 3 4 3 5 2 4 3 5 2 4 1 5 2 5 2 5 1 5 1 5 0 5 1 6 0 5 0 0 0 5 -1 6 0 5 -1 5 -1 5 -2 5 -2 5 -1 5 -2 4 -3 5 -2 4 -3 5 -3 4 -3 4 -3 4 -4 3 -4 4 -3 3 -4 3 -4 3 -5 3 -4 2 -5 3 -4 2 -5 2 -5 1 -5 2 -5 1 -5 1 -5 0 -6 1 -5 0 0 0 -5 0 -6 -1 -5 0 -5 -1 -5 -1 -5 -2 -5 -1 -5 -2 -4 -2 -5 -3 -4 -2 -5 -3 -4 -3 -4 -3 -3 -3 -4 -4 -4 -3 -3 -4 -3 -4 -3 -4 -3 -5 -2 -4 -3 -5 -2 -4 -2 -5 -1 -5 -2 -5 -1 -5 -1 -5 0 -5 -1 -6 0 -5 0 0 0 -5 1 -6 0 -5 1 -5 1 -5 2 -5 1 -5 2 -5 2 -4 3 -5 2 -4 3 -5 3 -4 3 -4 3 -4 4 -3 4 -4 3 -3 4 -3 4 -3 5 -3 4 -2 5 -3 4 -2 5 -2 5 -1 5 -2 5 -1 5 -1 5 0 6 -1 5 0 0 0zm1000 115l-1000 0 0 -20 1000 0 0 20z"/>
  </g>
  <g>
   <path class="fil0" d="M6300 2495l5 0 6 1 5 0 5 1 5 1 5 2 5 1 5 2 4 2 5 3 4 2 5 3 4 3 4 3 3 3 4 4 4 3 3 4 3 4 3 4 3 5 2 4 3 5 2 4 1 5 2 5 2 5 1 5 1 5 0 5 1 6 0 5 0 0 0 5 -1 6 0 5 -1 5 -1 5 -2 5 -2 5 -1 5 -2 4 -3 5 -2 4 -3 5 -3 4 -3 4 -3 4 -4 3 -4 4 -3 3 -4 3 -4 3 -5 3 -4 2 -5 3 -4 2 -5 2 -5 1 -5 2 -5 1 -5 1 -5 0 -6 1 -5 0 0 0 -5 0 -6 -1 -5 0 -5 -1 -5 -1 -5 -2 -5 -1 -5 -2 -4 -2 -5 -3 -4 -2 -5 -3 -4 -3 -4 -3 -3 -3 -4 -4 -4 -3 -3 -4 -3 -4 -3 -4 -3 -5 -2 -4 -3 -5 -2 -4 -2 -5 -1 -5 -2 -5 -1 -5 -1 -5 0 -5 -1 -6 0 -5 0 0 0 -5 1 -6 0 -5 1 -5 1 -5 2 -5 1 -5 2 -5 2 -4 3 -5 2 -4 3 -5 3 -4 3 -4 3 -4 4 -3 4 -4 3 -3 4 -3 4 -3 5 -3 4 -2 5 -3 4 -2 5 -2 5 -1 5 -2 5 -1 5 -1 5 0 6 -1 5 0 0 0zm1000 115l-1000 0 0 -20 1000 0 0 20z"/>
  </g>
  <g>
   <path class="fil0" d="M6300 3495l5 0 6 1 5 0 5 1 5 1 5 2 5 1 5 2 4 2 5 3 4 2 5 3 4 3 4 3 3 3 4 4 4 3 3 4 3 4 3 4 3 5 2 4 3 5 2 4 1 5 2 5 2 5 1 5 1 5 0 5 1 6 0 5 0 0 0 5 -1 6 0 5 -1 5 -1 5 -2 5 -2 5 -1 5 -2 4 -3 5 -2 4 -3 5 -3 4 -3 4 -3 4 -4 3 -4 4 -3 3 -4 3 -4 3 -5 3 -4 2 -5 3 -4 2 -5 2 -5 1 -5 2 -5 1 -5 1 -5 0 -6 1 -5 0 0 0 -5 0 -6 -1 -5 0 -5 -1 -5 -1 -5 -2 -5 -1 -5 -2 -4 -2 -5 -3 -4 -2 -5 -3 -4 -3 -4 -3 -3 -3 -4 -4 -4 -3 -3 -4 -3 -4 -3 -4 -3 -5 -2 -4 -3 -5 -2 -4 -2 -5 -1 -5 -2 -5 -1 -5 -1 -5 0 -5 -1 -6 0 -5 0 0 0 -5 1 -6 0 -5 1 -5 1 -5 2 -5 1 -5 2 -5 2 -4 3 -5 2 -4 3 -5 3 -4 3 -4 3 -4 4 -3 4 -4 3 -3 4 -3 4 -3 5 -3 4 -2 5 -3 4 -2 5 -2 5 -1 5 -2 5 -1 5 -1 5 0 6 -1 5 0 0 0zm1000 115l-1000 0 0 -20 1000 0 0 20z"/>
  </g>
  <g>
   <path class="fil0" d="M6300 4495l5 0 6 1 5 0 5 1 5 1 5 2 5 1 5 2 4 2 5 3 4 2 5 3 4 3 4 3 3 3 4 4 4 3 3 4 3 4 3 4 3 5 2 4 3 5 2 4 1 5 2 5 2 5 1 5 1 5 0 5 1 6 0 5 0 0 0 5 -1 6 0 5 -1 5 -1 5 -2 5 -2 5 -1 5 -2 4 -3 5 -2 4 -3 5 -3 4 -3 4 -3 4 -4 3 -4 4 -3 3 -4 3 -4 3 -5 3 -4 2 -5 3 -4 2 -5 2 -5 1 -5 2 -5 1 -5 1 -5 0 -6 1 -5 0 0 0 -5 0 -6 -1 -5 0 -5 -1 -5 -1 -5 -2 -5 -1 -5 -2 -4 -2 -5 -3 -4 -2 -5 -3 -4 -3 -4 -3 -3 -3 -4 -4 -4 -3 -3 -4 -3 -4 -3 -4 -3 -5 -2 -4 -3 -5 -2 -4 -2 -5 -1 -5 -2 -5 -1 -5 -1 -5 0 -5 -1 -6 0 -5 0 0 0 -5 1 -6 0 -5 1 -5 1 -5 2 -5 1 -5 2 -5 2 -4 3 -5 2 -4 3 -5 3 -4 3 -4 3 -4 4 -3 4 -4 3 -3 4 -3 4 -3 5 -3 4 -2 5 -3 4 -2 5 -2 5 -1 5 -2 5 -1 5 -1 5 0 6 -1 5 0 0 0zm1000 115l-1000 0 0 -20 1000 0 0 20z"/>
  </g>
  <g>
   <path class="fil0" d="M6300 5495l5 0 6 1 5 0 5 1 5 1 5 2 5 1 5 2 4 2 5 3 4 2 5 3 4 3 4 3 3 3 4 4 4 3 3 4 3 4 3 4 3 5 2 4 3 5 2 4 1 5 2 5 2 5 1 5 1 5 0 5 1 6 0 5 0 0 0 5 -1 6 0 5 -1 5 -1 5 -2 5 -2 5 -1 5 -2 4 -3 5 -2 4 -3 5 -3 4 -3 4 -3 4 -4 3 -4 4 -3 3 -4 3 -4 3 -5 3 -4 2 -5 3 -4 2 -5 2 -5 1 -5 2 -5 1 -5 1 -5 0 -6 1 -5 0 0 0 -5 0 -6 -1 -5 0 -5 -1 -5 -1 -5 -2 -5 -1 -5 -2 -4 -2 -5 -3 -4 -2 -5 -3 -4 -3 -4 -3 -3 -3 -4 -4 -4 -3 -3 -4 -3 -4 -3 -4 -3 -5 -2 -4 -3 -5 -2 -4 -2 -5 -1 -5 -2 -5 -1 -5 -1 -5 0 -5 -1 -6 0 -5 0 0 0 -5 1 -6 0 -5 1 -5 1 -5 2 -5 1 -5 2 -5 2 -4 3 -5 2 -4 3 -5 3 -4 3 -4 3 -4 4 -3 4 -4 3 -3 4 -3 4 -3 5 -3 4 -2 5 -3 4 -2 5 -2 5 -1 5 -2 5 -1 5 -1 5 0 6 -1 5 0 0 0zm1000 115l-1000 0 0 -20 1000 0 0 20z"/>
  </g>
  <g>
   <path class="fil0" d="M6300 6495l5 0 6 1 5 0 5 1 5 1 5 2 5 1 5 2 4 2 5 3 4 2 5 3 4 3 4 3 3 3 4 4 4 3 3 4 3 4 3 4 3 5 2 4 3 5 2 4 1 5 2 5 2 5 1 5 1 5 0 5 1 6 0 5 0 0 0 5 -1 6 0 5 -1 5 -1 5 -2 5 -2 5 -1 5 -2 4 -3 5 -2 4 -3 5 -3 4 -3 4 -3 4 -4 3 -4 4 -3 3 -4 3 -4 3 -5 3 -4 2 -5 3 -4 2 -5 2 -5 1 -5 2 -5 1 -5 1 -5 0 -6 1 -5 0 0 0 -5 0 -6 -1 -5 0 -5 -1 -5 -1 -5 -2 -5 -1 -5 -2 -4 -2 -5 -3 -4 -2 -5 -3 -4 -3 -4 -3 -3 -3 -4 -4 -4 -3 -3 -4 -3 -4 -3 -4 -3 -5 -2 -4 -3 -5 -2 -4 -2 -5 -1 -5 -2 -5 -1 -5 -1 -5 0 -5 -1 -6 0 -5 0 0 0 -5 1 -6 0 -5 1 -5 1 -5 2 -5 1 -5 2 -5 2 -4 3 -5 2 -4 3 -5 3 -4 3 -4 3 -4 4 -3 4 -4 3 -3 4 -3 4 -3 5 -3 4 -2 5 -3 4 -2 5 -2 5 -1 5 -2 5 -1 5 -1 5 0 6 -1 5 0 0 0zm1000 115l-1000 0 0 -20 1000 0 0 20z"/>
  </g>
  <g>
   <path class="fil0" d="M6300 7495l5 0 6 1 5 0 5 1 5 1 5 2 5 1 5 2 4 2 5 3 4 2 5 3 4 3 4 3 3 3 4 4 4 3 3 4 3 4 3 4 3 5 2 4 3 5 2 4 1 5 2 5 2 5 1 5 1 5 0 5 1 6 0 5 0 0 0 5 -1 6 0 5 -1 5 -1 5 -2 5 -2 5 -1 5 -2 4 -3 5 -2 4 -3 5 -3 4 -3 4 -3 4 -4 3 -4 4 -3 3 -4 3 -4 3 -5 3 -4 2 -5 3 -4 2 -5 2 -5 1 -5 2 -5 1 -5 1 -5 0 -6 1 -5 0 0 0 -5 0 -6 -1 -5 0 -5 -1 -5 -1 -5 -2 -5 -1 -5 -2 -4 -2 -5 -3 -4 -2 -5 -3 -4 -3 -4 -3 -3 -3 -4 -4 -4 -3 -3 -4 -3 -4 -3 -4 -3 -5 -2 -4 -3 -5 -2 -4 -2 -5 -1 -5 -2 -5 -1 -5 -1 -5 0 -5 -1 -6 0 -5 0 0 0 -5 1 -6 0 -5 1 -5 1 -5 2 -5 1 -5 2 -5 2 -4 3 -5 2 -4 3 -5 3 -4 3 -4 3 -4 4 -3 4 -4 3 -3 4 -3 4 -3 5 -3 4 -2 5 -3 4 -2 5 -2 5 -1 5 -2 5 -1 5 -1 5 0 6 -1 5 0 0 0zm1000 115l-1000 0 0 -20 1000 0 0 20z"/>
  </g>
  <g>
   <path class="fil0" d="M7315 704l-6 0 -5 1 -5 0 -5 0 -6 -1 -5 0 -5 -1 -5 -2 -5 -1 -4 -2 -5 -2 -5 -2 -4 -2 -5 -2 -4 -3 -4 -3 -4 -3 -4 -4 -3 -3 -4 -4 -3 -3 -3 -4 -3 -5 -3 -4 -2 -4 -3 -5 -2 -5 -2 -5 -1 -5 -2 -5 -1 -5 -1 -5 0 0 -1 -6 0 -5 0 -5 0 -5 1 -6 0 -5 1 -5 2 -5 1 -5 2 -4 2 -5 2 -5 2 -4 2 -5 3 -4 3 -4 3 -4 4 -4 3 -3 4 -4 4 -3 4 -3 4 -3 4 -3 4 -2 5 -3 5 -2 5 -2 5 -1 5 -2 5 -1 5 -1 0 0 5 0 6 -1 5 0 5 0 5 1 6 0 5 1 5 2 5 1 4 2 5 2 5 2 4 2 5 2 4 3 4 3 4 3 4 4 3 3 4 4 3 3 3 4 3 5 3 4 2 4 3 5 2 5 2 5 1 5 2 5 1 5 1 5 0 0 0 6 1 5 0 5 0 5 -1 6 0 5 -1 5 -2 5 -1 5 -2 4 -2 5 -2 5 -2 4 -3 5 -2 4 -3 4 -3 4 -4 4 -3 3 -4 4 -4 3 -4 3 -4 3 -4 3 -4 2 -5 3 -5 2 -5 2 -5 1 -5 2 -5 1 -5 1 0 0zm-7016 886l7000 -1000 2 20 -7000 1000 -2 -20z"/>
  </g>
  <g>
   <path class="fil0" d="M7315 1704l-6 0 -5 1 -5 0 -5 0 -6 -1 -5 0 -5 -1 -5 -2 -5 -1 -4 -2 -5 -2 -5 -2 -4 -2 -5 -2 -4 -3 -4 -3 -4 -3 -4 -4 -3 -3 -4 -4 -3 -3 -3 -4 -3 -5 -3 -4 -2 -4 -3 -5 -2 -5 -2 -5 -1 -5 -2 -5 -1 -5 -1 -5 0 0 -1 -6 0 -5 0 -5 0 -5 1 -6 0 -5 1 -5 2 -5 1 -5 2 -4 2 -5 2 -5 2 -4 2 -5 3 -4 3 -4 3 -4 4 -4 3 -3 4 -4 4 -3 4 -3 4 -3 4 -3 4 -2 5 -3 5 -2 5 -2 5 -1 5 -2 5 -1 5 -1 0 0 5 0 6 -1 5 0 5 0 5 1 6 0 5 1 5 2 5 1 4 2 5 2 5 2 4 2 5 2 4 3 4 3 4 3 4 4 3 3 4 4 3 3 3 4 3 5 3 4 2 4 3 5 2 5 2 5 1 5 2 5 1 5 1 5 0 0 0 6 1 5 0 5 0 5 -1 6 0 5 -1 5 -2 5 -1 5 -2 4 -2 5 -2 5 -2 4 -3 5 -2 4 -3 4 -3 4 -4 4 -3 3 -4 4 -4 3 -4 3 -4 3 -4 3 -4 2 -5 3 -5 2 -5 2 -5 1 -5 2 -5 1 -5 1 0 0zm-7016 886l7000 -1000 2 20 -7000 1000 -2 -20z"/>
  </g>
  <g>
   <path class="fil0" d="M7315 2704l-6 0 -5 1 -5 0 -5 0 -6 -1 -5 0 -5 -1 -5 -2 -5 -1 -4 -2 -5 -2 -5 -2 -4 -2 -5 -2 -4 -3 -4 -3 -4 -3 -4 -4 -3 -3 -4 -4 -3 -3 -3 -4 -3 -5 -3 -4 -2 -4 -3 -5 -2 -5 -2 -5 -1 -5 -2 -5 -1 -5 -1 -5 0 0 -1 -6 0 -5 0 -5 0 -5 1 -6 0 -5 1 -5 2 -5 1 -5 2 -4 2 -5 2 -5 2 -4 2 -5 3 -4 3 -4 3 -4 4 -4 3 -3 4 -4 4 -3 4 -3 4 -3 4 -3 4 -2 5 -3 5 -2 5 -2 5 -1 5 -2 5 -1 5 -1 0 0 5 0 6 -1 5 0 5 0 5 1 6 0 5 1 5 2 5 1 4 2 5 2 5 2 4 2 5 2 4 3 4 3 4 3 4 4 3 3 4 4 3 3 3 4 3 5 3 4 2 4 3 5 2 5 2 5 1 5 2 5 1 5 1 5 0 0 0 6 1 5 0 5 0 5 -1 6 0 5 -1 5 -2 5 -1 5 -2 4 -2 5 -2 5 -2 4 -3 5 -2 4 -3 4 -3 4 -4 4 -3 3 -4 4 -4 3 -4 3 -4 3 -4 3 -4 2 -5 3 -5 2 -5 2 -5 1 -5 2 -5 1 -5 1 0 0zm-7016 886l7000 -1000 2 20 -7000 1000 -2 -20z"/>
  </g>
  <g>
   <path class="fil0" d="M7315 3704l-6 0 -5 1 -5 0 -5 0 -6 -1 -5 0 -5 -1 -5 -2 -5 -1 -4 -2 -5 -2 -5 -2 -4 -2 -5 -2 -4 -3 -4 -3 -4 -3 -4 -4 -3 -3 -4 -4 -3 -4 -3 -3 -3 -5 -3 -4 -2 -4 -3 -5 -2 -5 -2 -5 -1 -5 -2 -5 -1 -5 -1 -5 0 0 -1 -6 0 -5 0 -5 0 -5 1 -6 0 -5 1 -5 2 -5 1 -5 2 -4 2 -5 2 -5 2 -4 2 -5 3 -4 3 -4 3 -4 4 -4 3 -3 4 -4 4 -3 4 -3 4 -3 4 -3 4 -2 5 -3 5 -2 5 -2 5 -1 5 -2 5 -1 5 -1 0 0 5 0 6 -1 5 0 5 0 5 1 6 0 5 1 5 2 5 1 4 2 5 2 5 2 4 2 5 2 4 3 4 3 4 3 4 4 3 3 4 4 3 3 3 4 3 5 3 4 2 4 3 5 2 5 2 5 1 5 2 5 1 5 1 5 0 0 0 6 1 5 0 5 0 5 -1 6 0 5 -1 5 -2 5 -1 5 -2 4 -2 5 -2 5 -2 4 -3 5 -2 4 -3 4 -3 4 -4 4 -3 3 -4 4 -4 3 -4 3 -4 3 -4 3 -4 2 -5 3 -5 2 -5 2 -5 1 -5 2 -5 1 -5 1 0 0zm-7016 886l7000 -1000 2 20 -7000 1000 -2 -20z"/>
  </g>
  <g>
   <path class="fil0" d="M7315 4704l-6 0 -5 1 -5 0 -5 0 -6 -1 -5 0 -5 -1 -5 -2 -5 -1 -4 -2 -5 -2 -5 -2 -4 -2 -5 -2 -4 -3 -4 -3 -4 -3 -4 -4 -3 -3 -4 -4 -3 -4 -3 -3 -3 -5 -3 -4 -2 -4 -3 -5 -2 -5 -2 -5 -1 -5 -2 -5 -1 -5 -1 -5 0 0 -1 -6 0 -5 0 -5 0 -5 1 -6 0 -5 1 -5 2 -5 1 -5 2 -4 2 -5 2 -5 2 -4 2 -5 3 -4 3 -4 3 -4 4 -4 3 -3 4 -4 4 -3 4 -3 4 -3 4 -3 4 -2 5 -3 5 -2 5 -2 5 -1 5 -2 5 -1 5 -1 0 0 5 0 6 -1 5 0 5 0 5 1 6 0 5 1 5 2 5 1 4 2 5 2 5 2 4 2 5 2 4 3 4 3 4 3 4 4 3 3 4 4 3 3 3 4 3 5 3 4 2 4 3 5 2 5 2 5 1 5 2 5 1 5 1 5 0 0 0 6 1 5 0 5 0 5 -1 6 0 5 -1 5 -2 5 -1 5 -2 4 -2 5 -2 5 -2 4 -3 5 -2 4 -3 4 -3 4 -4 4 -3 3 -4 4 -4 3 -4 3 -4 3 -4 3 -4 2 -5 3 -5 2 -5 2 -5 1 -5 2 -5 1 -5 1 0 0zm-7016 886l7000 -1000 2 20 -7000 1000 -2 -20z"/>
  </g>
  <g>
   <path class="fil0" d="M7315 5704l-6 0 -5 1 -5 0 -5 0 -6 -1 -5 0 -5 -1 -5 -2 -5 -1 -4 -2 -5 -2 -5 -2 -4 -2 -5 -2 -4 -3 -4 -3 -4 -3 -4 -4 -3 -3 -4 -4 -3 -4 -3 -3 -3 -5 -3 -4 -2 -4 -3 -5 -2 -5 -2 -5 -1 -5 -2 -5 -1 -5 -1 -5 0 0 -1 -6 0 -5 0 -5 0 -5 1 -6 0 -5 1 -5 2 -5 1 -5 2 -4 2 -5 2 -5 2 -4 2 -5 3 -4 3 -4 3 -4 4 -4 3 -3 4 -4 4 -3 4 -3 4 -3 4 -3 4 -2 5 -3 5 -2 5 -2 5 -1 5 -2 5 -1 5 -1 0 0 5 0 6 -1 5 0 5 0 5 1 6 0 5 1 5 2 5 1 4 2 5 2 5 2 4 2 5 2 4 3 4 3 4 3 4 4 3 3 4 4 3 3 3 4 3 5 3 4 2 4 3 5 2 5 2 5 1 5 2 5 1 5 1 5 0 0 0 6 1 5 0 5 0 5 -1 6 0 5 -1 5 -2 5 -1 5 -2 4 -2 5 -2 5 -2 4 -3 5 -2 4 -3 4 -3 4 -4 4 -3 3 -4 4 -4 3 -4 3 -4 3 -4 3 -4 2 -5 3 -5 2 -5 2 -5 1 -5 2 -5 1 -5 1 0 0zm-7016 886l7000 -1000 2 20 -7000 1000 -2 -20z"/>
  </g>
  <g>
   <path class="fil0" d="M7315 6704l-6 0 -5 1 -5 0 -5 0 -6 -1 -5 0 -5 -1 -5 -2 -5 -1 -4 -2 -5 -2 -5 -2 -4 -2 -5 -2 -4 -3 -4 -3 -4 -3 -4 -4 -3 -3 -4 -4 -3 -4 -3 -3 -3 -5 -3 -4 -2 -4 -3 -5 -2 -5 -2 -5 -1 -5 -2 -5 -1 -5 -1 -5 0 0 -1 -6 0 -5 0 -5 0 -5 1 -6 0 -5 1 -5 2 -5 1 -5 2 -4 2 -5 2 -5 2 -4 2 -5 3 -4 3 -4 3 -4 4 -4 3 -3 4 -4 4 -3 4 -3 4 -3 4 -3 4 -2 5 -3 5 -2 5 -2 5 -1 5 -2 5 -1 5 -1 0 0 5 0 6 -1 5 0 5 0 5 1 6 0 5 1 5 2 5 1 4 2 5 2 5 2 4 2 5 2 4 3 4 3 4 3 4 4 3 3 4 4 3 3 3 4 3 5 3 4 2 4 3 5 2 5 2 5 1 5 2 5 1 5 1 5 0 0 0 6 1 5 0 5 0 5 -1 6 0 5 -1 5 -2 5 -1 5 -2 4 -2 5 -2 5 -2 4 -3 5 -2 4 -3 4 -3 4 -4 4 -3 3 -4 4 -4 3 -4 3 -4 3 -4 3 -4 2 -5 3 -5 2 -5 2 -5 1 -5 2 -5 1 -5 1 0 0zm-7016 886l7000 -1000 2 20 -7000 1000 -2 -20z"/>
  </g>
  <g>
   <path class="fil0" d="M7199 7571l2 -5 2 -5 2 -5 2 -5 2 -4 3 -4 3 -5 3 -4 4 -4 3 -3 4 -4 3 -3 4 -3 4 -3 5 -3 4 -3 4 -2 5 -2 5 -2 4 -2 5 -1 5 -1 5 -1 5 -1 5 -1 6 0 5 0 5 0 5 1 5 1 6 1 5 1 0 0 5 2 5 2 5 2 5 2 4 3 4 2 5 3 4 3 4 4 3 3 4 4 3 4 3 3 3 5 3 4 3 4 2 5 2 4 2 5 2 5 1 4 1 5 1 5 1 5 1 5 0 6 0 5 0 5 -1 5 -1 5 -1 6 -1 5 0 0 -2 5 -2 5 -2 5 -2 4 -3 5 -2 4 -3 5 -3 4 -4 4 -3 3 -4 4 -3 3 -4 3 -5 3 -4 3 -4 3 -5 2 -4 2 -5 2 -5 2 -4 1 -5 1 -5 1 -5 1 -5 1 -6 0 -5 0 -5 0 -5 -1 -5 -1 -6 -1 -5 -1 0 0 -5 -2 -5 -2 -5 -2 -5 -2 -4 -3 -5 -2 -4 -3 -4 -3 -4 -4 -3 -3 -4 -4 -3 -4 -3 -3 -3 -5 -3 -4 -3 -4 -2 -5 -2 -4 -2 -5 -2 -5 -1 -4 -1 -5 -1 -5 -1 -5 -1 -5 0 -6 0 -5 0 -5 1 -5 1 -5 1 -6 1 -5 0 0zm2111 -6968l-2000 7000 -20 -6 2000 -7000 20 6z"/>
  </g>
  <g>
   <path class="fil0" d="M9300 495l5 0 6 1 5 0 5 1 5 1 5 2 5 1 5 2 4 2 5 3 4 2 5 3 4 3 4 3 3 3 4 4 4 3 3 4 3 4 3 4 3 5 2 4 3 5 2 4 1 5 2 5 2 5 1 5 1 5 0 5 1 6 0 5 0 0 0 5 -1 6 0 5 -1 5 -1 5 -2 5 -2 5 -1 5 -2 4 -3 5 -2 4 -3 5 -3 4 -3 4 -3 4 -4 3 -4 4 -3 3 -4 3 -4 3 -5 3 -4 2 -5 3 -4 2 -5 2 -5 1 -5 2 -5 1 -5 1 -5 0 -6 1 -5 0 0 0 -5 0 -6 -1 -5 0 -5 -1 -5 -1 -5 -2 -5 -1 -5 -2 -4 -2 -5 -3 -4 -2 -5 -3 -4 -3 -4 -3 -3 -3 -4 -4 -4 -3 -3 -4 -3 -4 -3 -4 -3 -5 -2 -4 -3 -5 -2 -4 -2 -5 -1 -5 -2 -5 -1 -5 -1 -5 0 -5 -1 -6 0 -5 0 0 0 -5 1 -6 0 -5 1 -5 1 -5 2 -5 1 -5 2 -5 2 -4 3 -5 2 -4 3 -5 3 -4 3 -4 3 -4 4 -3 4 -4 3 -3 4 -3 4 -3 5 -3 4 -2 5 -3 4 -2 5 -2 5 -1 5 -2 5 -1 5 -1 5 0 6 -1 5 0 0 0zm1000 115l-1000 0 0 -20 1000 0 0 20z"/>
  </g>
  <g>
   <path class="fil0" d="M9300 1495l5 0 6 1 5 0 5 1 5 1 5 2 5 1 5 2 4 2 5 3 4 2 5 3 4 3 4 3 3 3 4 4 4 3 3 4 3 4 3 4 3 5 2 4 3 5 2 4 1 5 2 5 2 5 1 5 1 5 0 5 1 6 0 5 0 0 0 5 -1 6 0 5 -1 5 -1 5 -2 5 -2 5 -1 5 -2 4 -3 5 -2 4 -3 5 -3 4 -3 4 -3 4 -4 3 -4 4 -3 3 -4 3 -4 3 -5 3 -4 2 -5 3 -4 2 -5 2 -5 1 -5 2 -5 1 -5 1 -5 0 -6 1 -5 0 0 0 -5 0 -6 -1 -5 0 -5 -1 -5 -1 -5 -2 -5 -1 -5 -2 -4 -2 -5 -3 -4 -2 -5 -3 -4 -3 -4 -3 -3 -3 -4 -4 -4 -3 -3 -4 -3 -4 -3 -4 -3 -5 -2 -4 -3 -5 -2 -4 -2 -5 -1 -5 -2 -5 -1 -5 -1 -5 0 -5 -1 -6 0 -5 0 0 0 -5 1 -6 0 -5 1 -5 1 -5 2 -5 1 -5 2 -5 2 -4 3 -5 2 -4 3 -5 3 -4 3 -4 3 -4 4 -3 4 -4 3 -3 4 -3 4 -3 5 -3 4 -2 5 -3 4 -2 5 -2 5 -1 5 -2 5 -1 5 -1 5 0 6 -1 5 0 0 0zm1000 115l-1000 0 0 -20 1000 0 0 20z"/>
  </g>
  <g>
   <path class="fil0" d="M9300 2495l5 0 6 1 5 0 5 1 5 1 5 2 5 1 5 2 4 2 5 3 4 2 5 3 4 3 4 3 3 3 4 4 4 3 3 4 3 4 3 4 3 5 2 4 3 5 2 4 1 5 2 5 2 5 1 5 1 5 0 5 1 6 0 5 0 0 0 5 -1 6 0 5 -1 5 -1 5 -2 5 -2 5 -1 5 -2 4 -3 5 -2 4 -3 5 -3 4 -3 4 -3 4 -4 3 -4 4 -3 3 -4 3 -4 3 -5 3 -4 2 -5 3 -4 2 -5 2 -5 1 -5 2 -5 1 -5 1 -5 0 -6 1 -5 0 0 0 -5 0 -6 -1 -5 0 -5 -1 -5 -1 -5 -2 -5 -1 -5 -2 -4 -2 -5 -3 -4 -2 -5 -3 -4 -3 -4 -3 -3 -3 -4 -4 -4 -3 -3 -4 -3 -4 -3 -4 -3 -5 -2 -4 -3 -5 -2 -4 -2 -5 -1 -5 -2 -5 -1 -5 -1 -5 0 -5 -1 -6 0 -5 0 0 0 -5 1 -6 0 -5 1 -5 1 -5 2 -5 1 -5 2 -5 2 -4 3 -5 2 -4 3 -5 3 -4 3 -4 3 -4 4 -3 4 -4 3 -3 4 -3 4 -3 5 -3 4 -2 5 -3 4 -2 5 -2 5 -1 5 -2 5 -1 5 -1 5 0 6 -1 5 0 0 0zm1000 115l-1000 0 0 -20 1000 0 0 20z"/>
  </g>
  <g>
   <path class="fil0" d="M9300 3495l5 0 6 1 5 0 5 1 5 1 5 2 5 1 5 2 4 2 5 3 4 2 5 3 4 3 4 3 3 3 4 4 4 3 3 4 3 4 3 4 3 5 2 4 3 5 2 4 1 5 2 5 2 5 1 5 1 5 0 5 1 6 0 5 0 0 0 5 -1 6 0 5 -1 5 -1 5 -2 5 -2 5 -1 5 -2 4 -3 5 -2 4 -3 5 -3 4 -3 4 -3 4 -4 3 -4 4 -3 3 -4 3 -4 3 -5 3 -4 2 -5 3 -4 2 -5 2 -5 1 -5 2 -5 1 -5 1 -5 0 -6 1 -5 0 0 0 -5 0 -6 -1 -5 0 -5 -1 -5 -1 -5 -2 -5 -1 -5 -2 -4 -2 -5 -3 -4 -2 -5 -3 -4 -3 -4 -3 -3 -3 -4 -4 -4 -3 -3 -4 -3 -4 -3 -4 -3 -5 -2 -4 -3 -5 -2 -4 -2 -5 -1 -5 -2 -5 -1 -5 -1 -5 0 -5 -1 -6 0 -5 0 0 0 -5 1 -6 0 -5 1 -5 1 -5 2 -5 1 -5 2 -5 2 -4 3 -5 2 -4 3 -5 3 -4 3 -4 3 -4 4 -3 4 -4 3 -3 4 -3 4 -3 5 -3 4 -2 5 -3 4 -2 5 -2 5 -1 5 -2 5 -1 5 -1 5 0 6 -1 5 0 0 0zm1000 115l-1000 0 0 -20 1000 0 0 20z"/>
  </g>
  <g>
   <path class="fil0" d="M9300 4495l5 0 6 1 5 0 5 1 5 1 5 2 5 1 5 2 4 2 5 3 4 2 5 3 4 3 4 3 3 3 4 4 4 3 3 4 3 4 3 4 3 5 2 4 3 5 2 4 1 5 2 5 2 5 1 5 1 5 0 5 1 6 0 5 0 0 0 5 -1 6 0 5 -1 5 -1 5 -2 5 -2 5 -1 5 -2 4 -3 5 -2 4 -3 5 -3 4 -3 4 -3 4 -4 3 -4 4 -3 3 -4 3 -4 3 -5 3 -4 2 -5 3 -4 2 -5 2 -5 1 -5 2 -5 1 -5 1 -5 0 -6 1 -5 0 0 0 -5 0 -6 -1 -5 0 -5 -1 -5 -1 -5 -2 -5 -1 -5 -2 -4 -2 -5 -3 -4 -2 -5 -3 -4 -3 -4 -3 -3 -3 -4 -4 -4 -3 -3 -4 -3 -4 -3 -4 -3 -5 -2 -4 -3 -5 -2 -4 -2 -5 -1 -5 -2 -5 -1 -5 -1 -5 0 -5 -1 -6 0 -5 0 0 0 -5 1 -6 0 -5 1 -5 1 -5 2 -5 1 -5 2 -5 2 -4 3 -5 2 -4 3 -5 3 -4 3 -4 3 -4 4 -3 4 -4 3 -3 4 -3 4 -3 5 -3 4 -2 5 -3 4 -2 5 -2 5 -1 5 -2 5 -1 5 -1 5 0 6 -1 5 0 0 0zm1000 115l-1000 0 0 -20 1000 0 0 20z"/>
  </g>
  <g>
   <path class="fil0" d="M9300 5495l5 0 6 1 5 0 5 1 5 1 5 2 5 1 5 2 4 2 5 3 4 2 5 3 4 3 4 3 3 3 4 4 4 3 3 4 3 4 3 4 3 5 2 4 3 5 2 4 1 5 2 5 2 5 1 5 1 5 0 5 1 6 0 5 0 0 0 5 -1 6 0 5 -1 5 -1 5 -2 5 -2 5 -1 5 -2 4 -3 5 -2 4 -3 5 -3 4 -3 4 -3 4 -4 3 -4 4 -3 3 -4 3 -4 3 -5 3 -4 2 -5 3 -4 2 -5 2 -5 1 -5 2 -5 1 -5 1 -5 0 -6 1 -5 0 0 0 -5 0 -6 -1 -5 0 -5 -1 -5 -1 -5 -2 -5 -1 -5 -2 -4 -2 -5 -3 -4 -2 -5 -3 -4 -3 -4 -3 -3 -3 -4 -4 -4 -3 -3 -4 -3 -4 -3 -4 -3 -5 -2 -4 -3 -5 -2 -4 -2 -5 -1 -5 -2 -5 -1 -5 -1 -5 0 -5 -1 -6 0 -5 0 0 0 -5 1 -6 0 -5 1 -5 1 -5 2 -5 1 -5 2 -5 2 -4 3 -5 2 -4 3 -5 3 -4 3 -4 3 -4 4 -3 4 -4 3 -3 4 -3 4 -3 5 -3 4 -2 5 -3 4 -2 5 -2 5 -1 5 -2 5 -1 5 -1 5 0 6 -1 5 0 0 0zm1000 115l-1000 0 0 -20 1000 0 0 20z"/>
  </g>
  <g>
   <path class="fil0" d="M9300 6495l5 0 6 1 5 0 5 1 5 1 5 2 5 1 5 2 4 2 5 3 4 2 5 3 4 3 4 3 3 3 4 4 4 3 3 4 3 4 3 4 3 5 2 4 3 5 2 4 1 5 2 5 2 5 1 5 1 5 0 5 1 6 0 5 0 0 0 5 -1 6 0 5 -1 5 -1 5 -2 5 -2 5 -1 5 -2 4 -3 5 -2 4 -3 5 -3 4 -3 4 -3 4 -4 3 -4 4 -3 3 -4 3 -4 3 -5 3 -4 2 -5 3 -4 2 -5 2 -5 1 -5 2 -5 1 -5 1 -5 0 -6 1 -5 0 0 0 -5 0 -6 -1 -5 0 -5 -1 -5 -1 -5 -2 -5 -1 -5 -2 -4 -2 -5 -3 -4 -2 -5 -3 -4 -3 -4 -3 -3 -3 -4 -4 -4 -3 -3 -4 -3 -4 -3 -4 -3 -5 -2 -4 -3 -5 -2 -4 -2 -5 -1 -5 -2 -5 -1 -5 -1 -5 0 -5 -1 -6 0 -5 0 0 0 -5 1 -6 0 -5 1 -5 1 -5 2 -5 1 -5 2 -5 2 -4 3 -5 2 -4 3 -5 3 -4 3 -4 3 -4 4 -3 4 -4 3 -3 4 -3 4 -3 5 -3 4 -2 5 -3 4 -2 5 -2 5 -1 5 -2 5 -1 5 -1 5 0 6 -1 5 0 0 0zm1000 115l-1000 0 0 -20 1000 0 0 20z"/>
  </g>
  <g>
   <path class="fil0" d="M9300 7495l5 0 6 1 5 0 5 1 5 1 5 2 5 1 5 2 4 2 5 3 4 2 5 3 4 3 4 3 3 3 4 4 4 3 3 4 3 4 3 4 3 5 2 4 3 5 2 4 1 5 2 5 2 5 1 5 1 5 0 5 1 6 0 5 0 0 0 5 -1 6 0 5 -1 5 -1 5 -2 5 -2 5 -1 5 -2 4 -3 5 -2 4 -3 5 -3 4 -3 4 -3 4 -4 3 -4 4 -3 3 -4 3 -4 3 -5 3 -4 2 -5 3 -4 2 -5 2 -5 1 -5 2 -5 1 -5 1 -5 0 -6 1 -5 0 0 0 -5 0 -6 -1 -5 0 -5 -1 -5 -1 -5 -2 -5 -1 -5 -2 -4 -2 -5 -3 -4 -2 -5 -3 -4 -3 -4 -3 -3 -3 -4 -4 -4 -3 -3 -4 -3 -4 -3 -4 -3 -5 -2 -4 -3 -5 -2 -4 -2 -5 -1 -5 -2 -5 -1 -5 -1 -5 0 -5 -1 -6 0 -5 0 0 0 -5 1 -6 0 -5 1 -5 1 -5 2 -5 1 -5 2 -5 2 -4 3 -5 2 -4 3 -5 3 -4 3 -4 3 -4 4 -3 4 -4 3 -3 4 -3 4 -3 5 -3 4 -2 5 -3 4 -2 5 -2 5 -1 5 -2 5 -1 5 -1 5 0 6 -1 5 0 0 0zm1000 115l-1000 0 0 -20 1000 0 0 20z"/>
  </g>
  <g>
   <path class="fil0" d="M10300 495l5 0 6 1 5 0 5 1 5 1 5 2 5 1 5 2 4 2 5 3 4 2 5 3 4 3 4 3 3 3 4 4 4 3 3 4 3 4 3 4 3 5 2 4 3 5 2 4 1 5 2 5 2 5 1 5 1 5 0 5 1 6 0 5 0 0 0 5 -1 6 0 5 -1 5 -1 5 -2 5 -2 5 -1 5 -2 4 -3 5 -2 4 -3 5 -3 4 -3 4 -3 4 -4 3 -4 4 -3 3 -4 3 -4 3 -5 3 -4 2 -5 3 -4 2 -5 2 -5 1 -5 2 -5 1 -5 1 -5 0 -6 1 -5 0 0 0 -5 0 -6 -1 -5 0 -5 -1 -5 -1 -5 -2 -5 -1 -5 -2 -4 -2 -5 -3 -4 -2 -5 -3 -4 -3 -4 -3 -3 -3 -4 -4 -4 -3 -3 -4 -3 -4 -3 -4 -3 -5 -2 -4 -3 -5 -2 -4 -2 -5 -1 -5 -2 -5 -1 -5 -1 -5 0 -5 -1 -6 0 -5 0 0 0 -5 1 -6 0 -5 1 -5 1 -5 2 -5 1 -5 2 -5 2 -4 3 -5 2 -4 3 -5 3 -4 3 -4 3 -4 4 -3 4 -4 3 -3 4 -3 4 -3 5 -3 4 -2 5 -3 4 -2 5 -2 5 -1 5 -2 5 -1 5 -1 5 0 6 -1 5 0 0 0zm1000 115l-1000 0 0 -20 1000 0 0 20z"/>
  </g>
  <g>
   <path class="fil0" d="M10300 1495l5 0 6 1 5 0 5 1 5 1 5 2 5 1 5 2 4 2 5 3 4 2 5 3 4 3 4 3 3 3 4 4 4 3 3 4 3 4 3 4 3 5 2 4 3 5 2 4 1 5 2 5 2 5 1 5 1 5 0 5 1 6 0 5 0 0 0 5 -1 6 0 5 -1 5 -1 5 -2 5 -2 5 -1 5 -2 4 -3 5 -2 4 -3 5 -3 4 -3 4 -3 4 -4 3 -4 4 -3 3 -4 3 -4 3 -5 3 -4 2 -5 3 -4 2 -5 2 -5 1 -5 2 -5 1 -5 1 -5 0 -6 1 -5 0 0 0 -5 0 -6 -1 -5 0 -5 -1 -5 -1 -5 -2 -5 -1 -5 -2 -4 -2 -5 -3 -4 -2 -5 -3 -4 -3 -4 -3 -3 -3 -4 -4 -4 -3 -3 -4 -3 -4 -3 -4 -3 -5 -2 -4 -3 -5 -2 -4 -2 -5 -1 -5 -2 -5 -1 -5 -1 -5 0 -5 -1 -6 0 -5 0 0 0 -5 1 -6 0 -5 1 -5 1 -5 2 -5 1 -5 2 -5 2 -4 3 -5 2 -4 3 -5 3 -4 3 -4 3 -4 4 -3 4 -4 3 -3 4 -3 4 -3 5 -3 4 -2 5 -3 4 -2 5 -2 5 -1 5 -2 5 -1 5 -1 5 0 6 -1 5 0 0 0zm1000 115l-1000 0 0 -20 1000 0 0 20z"/>
  </g>
  <g>
   <path class="fil0" d="M10300 2495l5 0 6 1 5 0 5 1 5 1 5 2 5 1 5 2 4 2 5 3 4 2 5 3 4 3 4 3 3 3 4 4 4 3 3 4 3 4 3 4 3 5 2 4 3 5 2 4 1 5 2 5 2 5 1 5 1 5 0 5 1 6 0 5 0 0 0 5 -1 6 0 5 -1 5 -1 5 -2 5 -2 5 -1 5 -2 4 -3 5 -2 4 -3 5 -3 4 -3 4 -3 4 -4 3 -4 4 -3 3 -4 3 -4 3 -5 3 -4 2 -5 3 -4 2 -5 2 -5 1 -5 2 -5 1 -5 1 -5 0 -6 1 -5 0 0 0 -5 0 -6 -1 -5 0 -5 -1 -5 -1 -5 -2 -5 -1 -5 -2 -4 -2 -5 -3 -4 -2 -5 -3 -4 -3 -4 -3 -3 -3 -4 -4 -4 -3 -3 -4 -3 -4 -3 -4 -3 -5 -2 -4 -3 -5 -2 -4 -2 -5 -1 -5 -2 -5 -1 -5 -1 -5 0 -5 -1 -6 0 -5 0 0 0 -5 1 -6 0 -5 1 -5 1 -5 2 -5 1 -5 2 -5 2 -4 3 -5 2 -4 3 -5 3 -4 3 -4 3 -4 4 -3 4 -4 3 -3 4 -3 4 -3 5 -3 4 -2 5 -3 4 -2 5 -2 5 -1 5 -2 5 -1 5 -1 5 0 6 -1 5 0 0 0zm1000 115l-1000 0 0 -20 1000 0 0 20z"/>
  </g>
  <g>
   <path class="fil0" d="M10300 3495l5 0 6 1 5 0 5 1 5 1 5 2 5 1 5 2 4 2 5 3 4 2 5 3 4 3 4 3 3 3 4 4 4 3 3 4 3 4 3 4 3 5 2 4 3 5 2 4 1 5 2 5 2 5 1 5 1 5 0 5 1 6 0 5 0 0 0 5 -1 6 0 5 -1 5 -1 5 -2 5 -2 5 -1 5 -2 4 -3 5 -2 4 -3 5 -3 4 -3 4 -3 4 -4 3 -4 4 -3 3 -4 3 -4 3 -5 3 -4 2 -5 3 -4 2 -5 2 -5 1 -5 2 -5 1 -5 1 -5 0 -6 1 -5 0 0 0 -5 0 -6 -1 -5 0 -5 -1 -5 -1 -5 -2 -5 -1 -5 -2 -4 -2 -5 -3 -4 -2 -5 -3 -4 -3 -4 -3 -3 -3 -4 -4 -4 -3 -3 -4 -3 -4 -3 -4 -3 -5 -2 -4 -3 -5 -2 -4 -2 -5 -1 -5 -2 -5 -1 -5 -1 -5 0 -5 -1 -6 0 -5 0 0 0 -5 1 -6 0 -5 1 -5 1 -5 2 -5 1 -5 2 -5 2 -4 3 -5 2 -4 3 -5 3 -4 3 -4 3 -4 4 -3 4 -4 3 -3 4 -3 4 -3 5 -3 4 -2 5 -3 4 -2 5 -2 5 -1 5 -2 5 -1 5 -1 5 0 6 -1 5 0 0 0zm1000 115l-1000 0 0 -20 1000 0 0 20z"/>
  </g>
  <g>
   <path class="fil0" d="M10300 4495l5 0 6 1 5 0 5 1 5 1 5 2 5 1 5 2 4 2 5 3 4 2 5 3 4 3 4 3 3 3 4 4 4 3 3 4 3 4 3 4 3 5 2 4 3 5 2 4 1 5 2 5 2 5 1 5 1 5 0 5 1 6 0 5 0 0 0 5 -1 6 0 5 -1 5 -1 5 -2 5 -2 5 -1 5 -2 4 -3 5 -2 4 -3 5 -3 4 -3 4 -3 4 -4 3 -4 4 -3 3 -4 3 -4 3 -5 3 -4 2 -5 3 -4 2 -5 2 -5 1 -5 2 -5 1 -5 1 -5 0 -6 1 -5 0 0 0 -5 0 -6 -1 -5 0 -5 -1 -5 -1 -5 -2 -5 -1 -5 -2 -4 -2 -5 -3 -4 -2 -5 -3 -4 -3 -4 -3 -3 -3 -4 -4 -4 -3 -3 -4 -3 -4 -3 -4 -3 -5 -2 -4 -3 -5 -2 -4 -2 -5 -1 -5 -2 -5 -1 -5 -1 -5 0 -5 -1 -6 0 -5 0 0 0 -5 1 -6 0 -5 1 -5 1 -5 2 -5 1 -5 2 -5 2 -4 3 -5 2 -4 3 -5 3 -4 3 -4 3 -4 4 -3 4 -4 3 -3 4 -3 4 -3 5 -3 4 -2 5 -3 4 -2 5 -2 5 -1 5 -2 5 -1 5 -1 5 0 6 -1 5 0 0 0zm1000 115l-1000 0 0 -20 1000 0 0 20z"/>
  </g>
  <g>
   <path class="fil0" d="M10300 5495l5 0 6 1 5 0 5 1 5 1 5 2 5 1 5 2 4 2 5 3 4 2 5 3 4 3 4 3 3 3 4 4 4 3 3 4 3 4 3 4 3 5 2 4 3 5 2 4 1 5 2 5 2 5 1 5 1 5 0 5 1 6 0 5 0 0 0 5 -1 6 0 5 -1 5 -1 5 -2 5 -2 5 -1 5 -2 4 -3 5 -2 4 -3 5 -3 4 -3 4 -3 4 -4 3 -4 4 -3 3 -4 3 -4 3 -5 3 -4 2 -5 3 -4 2 -5 2 -5 1 -5 2 -5 1 -5 1 -5 0 -6 1 -5 0 0 0 -5 0 -6 -1 -5 0 -5 -1 -5 -1 -5 -2 -5 -1 -5 -2 -4 -2 -5 -3 -4 -2 -5 -3 -4 -3 -4 -3 -3 -3 -4 -4 -4 -3 -3 -4 -3 -4 -3 -4 -3 -5 -2 -4 -3 -5 -2 -4 -2 -5 -1 -5 -2 -5 -1 -5 -1 -5 0 -5 -1 -6 0 -5 0 0 0 -5 1 -6 0 -5 1 -5 1 -5 2 -5 1 -5 2 -5 2 -4 3 -5 2 -4 3 -5 3 -4 3 -4 3 -4 4 -3 4 -4 3 -3 4 -3 4 -3 5 -3 4 -2 5 -3 4 -2 5 -2 5 -1 5 -2 5 -1 5 -1 5 0 6 -1 5 0 0 0zm1000 115l-1000 0 0 -20 1000 0 0 20z"/>
  </g>
  <g>
   <path class="fil0" d="M10300 6495l5 0 6 1 5 0 5 1 5 1 5 2 5 1 5 2 4 2 5 3 4 2 5 3 4 3 4 3 3 3 4 4 4 3 3 4 3 4 3 4 3 5 2 4 3 5 2 4 1 5 2 5 2 5 1 5 1 5 0 5 1 6 0 5 0 0 0 5 -1 6 0 5 -1 5 -1 5 -2 5 -2 5 -1 5 -2 4 -3 5 -2 4 -3 5 -3 4 -3 4 -3 4 -4 3 -4 4 -3 3 -4 3 -4 3 -5 3 -4 2 -5 3 -4 2 -5 2 -5 1 -5 2 -5 1 -5 1 -5 0 -6 1 -5 0 0 0 -5 0 -6 -1 -5 0 -5 -1 -5 -1 -5 -2 -5 -1 -5 -2 -4 -2 -5 -3 -4 -2 -5 -3 -4 -3 -4 -3 -3 -3 -4 -4 -4 -3 -3 -4 -3 -4 -3 -4 -3 -5 -2 -4 -3 -5 -2 -4 -2 -5 -1 -5 -2 -5 -1 -5 -1 -5 0 -5 -1 -6 0 -5 0 0 0 -5 1 -6 0 -5 1 -5 1 -5 2 -5 1 -5 2 -5 2 -4 3 -5 2 -4 3 -5 3 -4 3 -4 3 -4 4 -3 4 -4 3 -3 4 -3 4 -3 5 -3 4 -2 5 -3 4 -2 5 -2 5 -1 5 -2 5 -1 5 -1 5 0 6 -1 5 0 0 0zm1000 115l-1000 0 0 -20 1000 0 0 20z"/>
  </g>
  <g>
   <path class="fil0" d="M10300 7495l5 0 6 1 5 0 5 1 5 1 5 2 5 1 5 2 4 2 5 3 4 2 5 3 4 3 4 3 3 3 4 4 4 3 3 4 3 4 3 4 3 5 2 4 3 5 2 4 1 5 2 5 2 5 1 5 1 5 0 5 1 6 0 5 0 0 0 5 -1 6 0 5 -1 5 -1 5 -2 5 -2 5 -1 5 -2 4 -3 5 -2 4 -3 5 -3 4 -3 4 -3 4 -4 3 -4 4 -3 3 -4 3 -4 3 -5 3 -4 2 -5 3 -4 2 -5 2 -5 1 -5 2 -5 1 -5 1 -5 0 -6 1 -5 0 0 0 -5 0 -6 -1 -5 0 -5 -1 -5 -1 -5 -2 -5 -1 -5 -2 -4 -2 -5 -3 -4 -2 -5 -3 -4 -3 -4 -3 -3 -3 -4 -4 -4 -3 -3 -4 -3 -4 -3 -4 -3 -5 -2 -4 -3 -5 -2 -4 -2 -5 -1 -5 -2 -5 -1 -5 -1 -5 0 -5 -1 -6 0 -5 0 0 0 -5 1 -6 0 -5 1 -5 1 -5 2 -5 1 -5 2 -5 2 -4 3 -5 2 -4 3 -5 3 -4 3 -4 3 -4 4 -3 4 -4 3 -3 4 -3 4 -3 5 -3 4 -2 5 -3 4 -2 5 -2 5 -1 5 -2 5 -1 5 -1 5 0 6 -1 5 0 0 0zm1000 115l-1000 0 0 -20 1000 0 0 20z"/>
  </g>
  <g>
   <path class="fil0" d="M11300 495l5 0 6 1 5 0 5 1 5 1 5 2 5 1 5 2 4 2 5 3 4 2 5 3 4 3 4 3 3 3 4 4 4 3 3 4 3 4 3 4 3 5 2 4 3 5 2 4 1 5 2 5 2 5 1 5 1 5 0 5 1 6 0 5 0 0 0 5 -1 6 0 5 -1 5 -1 5 -2 5 -2 5 -1 5 -2 4 -3 5 -2 4 -3 5 -3 4 -3 4 -3 4 -4 3 -4 4 -3 3 -4 3 -4 3 -5 3 -4 2 -5 3 -4 2 -5 2 -5 1 -5 2 -5 1 -5 1 -5 0 -6 1 -5 0 0 0 -5 0 -6 -1 -5 0 -5 -1 -5 -1 -5 -2 -5 -1 -5 -2 -4 -2 -5 -3 -4 -2 -5 -3 -4 -3 -4 -3 -3 -3 -4 -4 -4 -3 -3 -4 -3 -4 -3 -4 -3 -5 -2 -4 -3 -5 -2 -4 -2 -5 -1 -5 -2 -5 -1 -5 -1 -5 0 -5 -1 -6 0 -5 0 0 0 -5 1 -6 0 -5 1 -5 1 -5 2 -5 1 -5 2 -5 2 -4 3 -5 2 -4 3 -5 3 -4 3 -4 3 -4 4 -3 4 -4 3 -3 4 -3 4 -3 5 -3 4 -2 5 -3 4 -2 5 -2 5 -1 5 -2 5 -1 5 -1 5 0 6 -1 5 0 0 0zm1000 115l-1000 0 0 -20 1000 0 0 20z"/>
  </g>
  <g>
   <path class="fil0" d="M11300 1495l5 0 6 1 5 0 5 1 5 1 5 2 5 1 5 2 4 2 5 3 4 2 5 3 4 3 4 3 3 3 4 4 4 3 3 4 3 4 3 4 3 5 2 4 3 5 2 4 1 5 2 5 2 5 1 5 1 5 0 5 1 6 0 5 0 0 0 5 -1 6 0 5 -1 5 -1 5 -2 5 -2 5 -1 5 -2 4 -3 5 -2 4 -3 5 -3 4 -3 4 -3 4 -4 3 -4 4 -3 3 -4 3 -4 3 -5 3 -4 2 -5 3 -4 2 -5 2 -5 1 -5 2 -5 1 -5 1 -5 0 -6 1 -5 0 0 0 -5 0 -6 -1 -5 0 -5 -1 -5 -1 -5 -2 -5 -1 -5 -2 -4 -2 -5 -3 -4 -2 -5 -3 -4 -3 -4 -3 -3 -3 -4 -4 -4 -3 -3 -4 -3 -4 -3 -4 -3 -5 -2 -4 -3 -5 -2 -4 -2 -5 -1 -5 -2 -5 -1 -5 -1 -5 0 -5 -1 -6 0 -5 0 0 0 -5 1 -6 0 -5 1 -5 1 -5 2 -5 1 -5 2 -5 2 -4 3 -5 2 -4 3 -5 3 -4 3 -4 3 -4 4 -3 4 -4 3 -3 4 -3 4 -3 5 -3 4 -2 5 -3 4 -2 5 -2 5 -1 5 -2 5 -1 5 -1 5 0 6 -1 5 0 0 0zm1000 115l-1000 0 0 -20 1000 0 0 20z"/>
  </g>
  <g>
   <path class="fil0" d="M11300 2495l5 0 6 1 5 0 5 1 5 1 5 2 5 1 5 2 4 2 5 3 4 2 5 3 4 3 4 3 3 3 4 4 4 3 3 4 3 4 3 4 3 5 2 4 3 5 2 4 1 5 2 5 2 5 1 5 1 5 0 5 1 6 0 5 0 0 0 5 -1 6 0 5 -1 5 -1 5 -2 5 -2 5 -1 5 -2 4 -3 5 -2 4 -3 5 -3 4 -3 4 -3 4 -4 3 -4 4 -3 3 -4 3 -4 3 -5 3 -4 2 -5 3 -4 2 -5 2 -5 1 -5 2 -5 1 -5 1 -5 0 -6 1 -5 0 0 0 -5 0 -6 -1 -5 0 -5 -1 -5 -1 -5 -2 -5 -1 -5 -2 -4 -2 -5 -3 -4 -2 -5 -3 -4 -3 -4 -3 -3 -3 -4 -4 -4 -3 -3 -4 -3 -4 -3 -4 -3 -5 -2 -4 -3 -5 -2 -4 -2 -5 -1 -5 -2 -5 -1 -5 -1 -5 0 -5 -1 -6 0 -5 0 0 0 -5 1 -6 0 -5 1 -5 1 -5 2 -5 1 -5 2 -5 2 -4 3 -5 2 -4 3 -5 3 -4 3 -4 3 -4 4 -3 4 -4 3 -3 4 -3 4 -3 5 -3 4 -2 5 -3 4 -2 5 -2 5 -1 5 -2 5 -1 5 -1 5 0 6 -1 5 0 0 0zm1000 115l-1000 0 0 -20 1000 0 0 20z"/>
  </g>
  <g>
   <path class="fil0" d="M11300 3495l5 0 6 1 5 0 5 1 5 1 5 2 5 1 5 2 4 2 5 3 4 2 5 3 4 3 4 3 3 3 4 4 4 3 3 4 3 4 3 4 3 5 2 4 3 5 2 4 1 5 2 5 2 5 1 5 1 5 0 5 1 6 0 5 0 0 0 5 -1 6 0 5 -1 5 -1 5 -2 5 -2 5 -1 5 -2 4 -3 5 -2 4 -3 5 -3 4 -3 4 -3 4 -4 3 -4 4 -3 3 -4 3 -4 3 -5 3 -4 2 -5 3 -4 2 -5 2 -5 1 -5 2 -5 1 -5 1 -5 0 -6 1 -5 0 0 0 -5 0 -6 -1 -5 0 -5 -1 -5 -1 -5 -2 -5 -1 -5 -2 -4 -2 -5 -3 -4 -2 -5 -3 -4 -3 -4 -3 -3 -3 -4 -4 -4 -3 -3 -4 -3 -4 -3 -4 -3 -5 -2 -4 -3 -5 -2 -4 -2 -5 -1 -5 -2 -5 -1 -5 -1 -5 0 -5 -1 -6 0 -5 0 0 0 -5 1 -6 0 -5 1 -5 1 -5 2 -5 1 -5 2 -5 2 -4 3 -5 2 -4 3 -5 3 -4 3 -4 3 -4 4 -3 4 -4 3 -3 4 -3 4 -3 5 -3 4 -2 5 -3 4 -2 5 -2 5 -1 5 -2 5 -1 5 -1 5 0 6 -1 5 0 0 0zm1000 115l-1000 0 0 -20 1000 0 0 20z"/>
  </g>
  <g>
   <path class="fil0" d="M11300 4495l5 0 6 1 5 0 5 1 5 1 5 2 5 1 5 2 4 2 5 3 4 2 5 3 4 3 4 3 3 3 4 4 4 3 3 4 3 4 3 4 3 5 2 4 3 5 2 4 1 5 2 5 2 5 1 5 1 5 0 5 1 6 0 5 0 0 0 5 -1 6 0 5 -1 5 -1 5 -2 5 -2 5 -1 5 -2 4 -3 5 -2 4 -3 5 -3 4 -3 4 -3 4 -4 3 -4 4 -3 3 -4 3 -4 3 -5 3 -4 2 -5 3 -4 2 -5 2 -5 1 -5 2 -5 1 -5 1 -5 0 -6 1 -5 0 0 0 -5 0 -6 -1 -5 0 -5 -1 -5 -1 -5 -2 -5 -1 -5 -2 -4 -2 -5 -3 -4 -2 -5 -3 -4 -3 -4 -3 -3 -3 -4 -4 -4 -3 -3 -4 -3 -4 -3 -4 -3 -5 -2 -4 -3 -5 -2 -4 -2 -5 -1 -5 -2 -5 -1 -5 -1 -5 0 -5 -1 -6 0 -5 0 0 0 -5 1 -6 0 -5 1 -5 1 -5 2 -5 1 -5 2 -5 2 -4 3 -5 2 -4 3 -5 3 -4 3 -4 3 -4 4 -3 4 -4 3 -3 4 -3 4 -3 5 -3 4 -2 5 -3 4 -2 5 -2 5 -1 5 -2 5 -1 5 -1 5 0 6 -1 5 0 0 0zm1000 115l-1000 0 0 -20 1000 0 0 20z"/>
  </g>
  <g>
   <path class="fil0" d="M11300 5495l5 0 6 1 5 0 5 1 5 1 5 2 5 1 5 2 4 2 5 3 4 2 5 3 4 3 4 3 3 3 4 4 4 3 3 4 3 4 3 4 3 5 2 4 3 5 2 4 1 5 2 5 2 5 1 5 1 5 0 5 1 6 0 5 0 0 0 5 -1 6 0 5 -1 5 -1 5 -2 5 -2 5 -1 5 -2 4 -3 5 -2 4 -3 5 -3 4 -3 4 -3 4 -4 3 -4 4 -3 3 -4 3 -4 3 -5 3 -4 2 -5 3 -4 2 -5 2 -5 1 -5 2 -5 1 -5 1 -5 0 -6 1 -5 0 0 0 -5 0 -6 -1 -5 0 -5 -1 -5 -1 -5 -2 -5 -1 -5 -2 -4 -2 -5 -3 -4 -2 -5 -3 -4 -3 -4 -3 -3 -3 -4 -4 -4 -3 -3 -4 -3 -4 -3 -4 -3 -5 -2 -4 -3 -5 -2 -4 -2 -5 -1 -5 -2 -5 -1 -5 -1 -5 0 -5 -1 -6 0 -5 0 0 0 -5 1 -6 0 -5 1 -5 1 -5 2 -5 1 -5 2 -5 2 -4 3 -5 2 -4 3 -5 3 -4 3 -4 3 -4 4 -3 4 -4 3 -3 4 -3 4 -3 5 -3 4 -2 5 -3 4 -2 5 -2 5 -1 5 -2 5 -1 5 -1 5 0 6 -1 5 0 0 0zm1000 115l-1000 0 0 -20 1000 0 0 20z"/>
  </g>
  <g>
   <path class="fil0" d="M11300 6495l5 0 6 1 5 0 5 1 5 1 5 2 5 1 5 2 4 2 5 3 4 2 5 3 4 3 4 3 3 3 4 4 4 3 3 4 3 4 3 4 3 5 2 4 3 5 2 4 1 5 2 5 2 5 1 5 1 5 0 5 1 6 0 5 0 0 0 5 -1 6 0 5 -1 5 -1 5 -2 5 -2 5 -1 5 -2 4 -3 5 -2 4 -3 5 -3 4 -3 4 -3 4 -4 3 -4 4 -3 3 -4 3 -4 3 -5 3 -4 2 -5 3 -4 2 -5 2 -5 1 -5 2 -5 1 -5 1 -5 0 -6 1 -5 0 0 0 -5 0 -6 -1 -5 0 -5 -1 -5 -1 -5 -2 -5 -1 -5 -2 -4 -2 -5 -3 -4 -2 -5 -3 -4 -3 -4 -3 -3 -3 -4 -4 -4 -3 -3 -4 -3 -4 -3 -4 -3 -5 -2 -4 -3 -5 -2 -4 -2 -5 -1 -5 -2 -5 -1 -5 -1 -5 0 -5 -1 -6 0 -5 0 0 0 -5 1 -6 0 -5 1 -5 1 -5 2 -5 1 -5 2 -5 2 -4 3 -5 2 -4 3 -5 3 -4 3 -4 3 -4 4 -3 4 -4 3 -3 4 -3 4 -3 5 -3 4 -2 5 -3 4 -2 5 -2 5 -1 5 -2 5 -1 5 -1 5 0 6 -1 5 0 0 0zm1000 115l-1000 0 0 -20 1000 0 0 20z"/>
  </g>
  <g>
   <path class="fil0" d="M11300 7495l5 0 6 1 5 0 5 1 5 1 5 2 5 1 5 2 4 2 5 3 4 2 5 3 4 3 4 3 3 3 4 4 4 3 3 4 3 4 3 4 3 5 2 4 3 5 2 4 1 5 2 5 2 5 1 5 1 5 0 5 1 6 0 5 0 0 0 5 -1 6 0 5 -1 5 -1 5 -2 5 -2 5 -1 5 -2 4 -3 5 -2 4 -3 5 -3 4 -3 4 -3 4 -4 3 -4 4 -3 3 -4 3 -4 3 -5 3 -4 2 -5 3 -4 2 -5 2 -5 1 -5 2 -5 1 -5 1 -5 0 -6 1 -5 0 0 0 -5 0 -6 -1 -5 0 -5 -1 -5 -1 -5 -2 -5 -1 -5 -2 -4 -2 -5 -3 -4 -2 -5 -3 -4 -3 -4 -3 -3 -3 -4 -4 -4 -3 -3 -4 -3 -4 -3 -4 -3 -5 -2 -4 -3 -5 -2 -4 -2 -5 -1 -5 -2 -5 -1 -5 -1 -5 0 -5 -1 -6 0 -5 0 0 0 -5 1 -6 0 -5 1 -5 1 -5 2 -5 1 -5 2 -5 2 -4 3 -5 2 -4 3 -5 3 -4 3 -4 3 -4 4 -3 4 -4 3 -3 4 -3 4 -3 5 -3 4 -2 5 -3 4 -2 5 -2 5 -1 5 -2 5 -1 5 -1 5 0 6 -1 5 0 0 0zm1000 115l-1000 0 0 -20 1000 0 0 20z"/>
  </g>
  <g>
   <path class="fil0" d="M12300 495l5 0 6 1 5 0 5 1 5 1 5 2 5 1 5 2 4 2 5 3 4 2 5 3 4 3 4 3 3 3 4 4 4 3 3 4 3 4 3 4 3 5 2 4 3 5 2 4 1 5 2 5 2 5 1 5 1 5 0 5 1 6 0 5 0 0 0 5 -1 6 0 5 -1 5 -1 5 -2 5 -2 5 -1 5 -2 4 -3 5 -2 4 -3 5 -3 4 -3 4 -3 4 -4 3 -4 4 -3 3 -4 3 -4 3 -5 3 -4 2 -5 3 -4 2 -5 2 -5 1 -5 2 -5 1 -5 1 -5 0 -6 1 -5 0 0 0 -5 0 -6 -1 -5 0 -5 -1 -5 -1 -5 -2 -5 -1 -5 -2 -4 -2 -5 -3 -4 -2 -5 -3 -4 -3 -4 -3 -3 -3 -4 -4 -4 -3 -3 -4 -3 -4 -3 -4 -3 -5 -2 -4 -3 -5 -2 -4 -2 -5 -1 -5 -2 -5 -1 -5 -1 -5 0 -5 -1 -6 0 -5 0 0 0 -5 1 -6 0 -5 1 -5 1 -5 2 -5 1 -5 2 -5 2 -4 3 -5 2 -4 3 -5 3 -4 3 -4 3 -4 4 -3 4 -4 3 -3 4 -3 4 -3 5 -3 4 -2 5 -3 4 -2 5 -2 5 -1 5 -2 5 -1 5 -1 5 0 6 -1 5 0 0 0zm1000 115l-1000 0 0 -20 1000 0 0 20z"/>
  </g>
  <g>
   <path class="fil0" d="M12300 1495l5 0 6 1 5 0 5 1 5 1 5 2 5 1 5 2 4 2 5 3 4 2 5 3 4 3 4 3 3 3 4 4 4 3 3 4 3 4 3 4 3 5 2 4 3 5 2 4 1 5 2 5 2 5 1 5 1 5 0 5 1 6 0 5 0 0 0 5 -1 6 0 5 -1 5 -1 5 -2 5 -2 5 -1 5 -2 4 -3 5 -2 4 -3 5 -3 4 -3 4 -3 4 -4 3 -4 4 -3 3 -4 3 -4 3 -5 3 -4 2 -5 3 -4 2 -5 2 -5 1 -5 2 -5 1 -5 1 -5 0 -6 1 -5 0 0 0 -5 0 -6 -1 -5 0 -5 -1 -5 -1 -5 -2 -5 -1 -5 -2 -4 -2 -5 -3 -4 -2 -5 -3 -4 -3 -4 -3 -3 -3 -4 -4 -4 -3 -3 -4 -3 -4 -3 -4 -3 -5 -2 -4 -3 -5 -2 -4 -2 -5 -1 -5 -2 -5 -1 -5 -1 -5 0 -5 -1 -6 0 -5 0 0 0 -5 1 -6 0 -5 1 -5 1 -5 2 -5 1 -5 2 -5 2 -4 3 -5 2 -4 3 -5 3 -4 3 -4 3 -4 4 -3 4 -4 3 -3 4 -3 4 -3 5 -3 4 -2 5 -3 4 -2 5 -2 5 -1 5 -2 5 -1 5 -1 5 0 6 -1 5 0 0 0zm1000 115l-1000 0 0 -20 1000 0 0 20z"/>
  </g>
  <g>
   <path class="fil0" d="M12300 2495l5 0 6 1 5 0 5 1 5 1 5 2 5 1 5 2 4 2 5 3 4 2 5 3 4 3 4 3 3 3 4 4 4 3 3 4 3 4 3 4 3 5 2 4 3 5 2 4 1 5 2 5 2 5 1 5 1 5 0 5 1 6 0 5 0 0 0 5 -1 6 0 5 -1 5 -1 5 -2 5 -2 5 -1 5 -2 4 -3 5 -2 4 -3 5 -3 4 -3 4 -3 4 -4 3 -4 4 -3 3 -4 3 -4 3 -5 3 -4 2 -5 3 -4 2 -5 2 -5 1 -5 2 -5 1 -5 1 -5 0 -6 1 -5 0 0 0 -5 0 -6 -1 -5 0 -5 -1 -5 -1 -5 -2 -5 -1 -5 -2 -4 -2 -5 -3 -4 -2 -5 -3 -4 -3 -4 -3 -3 -3 -4 -4 -4 -3 -3 -4 -3 -4 -3 -4 -3 -5 -2 -4 -3 -5 -2 -4 -2 -5 -1 -5 -2 -5 -1 -5 -1 -5 0 -5 -1 -6 0 -5 0 0 0 -5 1 -6 0 -5 1 -5 1 -5 2 -5 1 -5 2 -5 2 -4 3 -5 2 -4 3 -5 3 -4 3 -4 3 -4 4 -3 4 -4 3 -3 4 -3 4 -3 5 -3 4 -2 5 -3 4 -2 5 -2 5 -1 5 -2 5 -1 5 -1 5 0 6 -1 5 0 0 0zm1000 115l-1000 0 0 -20 1000 0 0 20z"/>
  </g>
  <g>
   <path class="fil0" d="M12300 3495l5 0 6 1 5 0 5 1 5 1 5 2 5 1 5 2 4 2 5 3 4 2 5 3 4 3 4 3 3 3 4 4 4 3 3 4 3 4 3 4 3 5 2 4 3 5 2 4 1 5 2 5 2 5 1 5 1 5 0 5 1 6 0 5 0 0 0 5 -1 6 0 5 -1 5 -1 5 -2 5 -2 5 -1 5 -2 4 -3 5 -2 4 -3 5 -3 4 -3 4 -3 4 -4 3 -4 4 -3 3 -4 3 -4 3 -5 3 -4 2 -5 3 -4 2 -5 2 -5 1 -5 2 -5 1 -5 1 -5 0 -6 1 -5 0 0 0 -5 0 -6 -1 -5 0 -5 -1 -5 -1 -5 -2 -5 -1 -5 -2 -4 -2 -5 -3 -4 -2 -5 -3 -4 -3 -4 -3 -3 -3 -4 -4 -4 -3 -3 -4 -3 -4 -3 -4 -3 -5 -2 -4 -3 -5 -2 -4 -2 -5 -1 -5 -2 -5 -1 -5 -1 -5 0 -5 -1 -6 0 -5 0 0 0 -5 1 -6 0 -5 1 -5 1 -5 2 -5 1 -5 2 -5 2 -4 3 -5 2 -4 3 -5 3 -4 3 -4 3 -4 4 -3 4 -4 3 -3 4 -3 4 -3 5 -3 4 -2 5 -3 4 -2 5 -2 5 -1 5 -2 5 -1 5 -1 5 0 6 -1 5 0 0 0zm1000 115l-1000 0 0 -20 1000 0 0 20z"/>
  </g>
  <g>
   <path class="fil0" d="M12300 4495l5 0 6 1 5 0 5 1 5 1 5 2 5 1 5 2 4 2 5 3 4 2 5 3 4 3 4 3 3 3 4 4 4 3 3 4 3 4 3 4 3 5 2 4 3 5 2 4 1 5 2 5 2 5 1 5 1 5 0 5 1 6 0 5 0 0 0 5 -1 6 0 5 -1 5 -1 5 -2 5 -2 5 -1 5 -2 4 -3 5 -2 4 -3 5 -3 4 -3 4 -3 4 -4 3 -4 4 -3 3 -4 3 -4 3 -5 3 -4 2 -5 3 -4 2 -5 2 -5 1 -5 2 -5 1 -5 1 -5 0 -6 1 -5 0 0 0 -5 0 -6 -1 -5 0 -5 -1 -5 -1 -5 -2 -5 -1 -5 -2 -4 -2 -5 -3 -4 -2 -5 -3 -4 -3 -4 -3 -3 -3 -4 -4 -4 -3 -3 -4 -3 -4 -3 -4 -3 -5 -2 -4 -3 -5 -2 -4 -2 -5 -1 -5 -2 -5 -1 -5 -1 -5 0 -5 -1 -6 0 -5 0 0 0 -5 1 -6 0 -5 1 -5 1 -5 2 -5 1 -5 2 -5 2 -4 3 -5 2 -4 3 -5 3 -4 3 -4 3 -4 4 -3 4 -4 3 -3 4 -3 4 -3 5 -3 4 -2 5 -3 4 -2 5 -2 5 -1 5 -2 5 -1 5 -1 5 0 6 -1 5 0 0 0zm1000 115l-1000 0 0 -20 1000 0 0 20z"/>
  </g>
  <g>
   <path class="fil0" d="M12300 5495l5 0 6 1 5 0 5 1 5 1 5 2 5 1 5 2 4 2 5 3 4 2 5 3 4 3 4 3 3 3 4 4 4 3 3 4 3 4 3 4 3 5 2 4 3 5 2 4 1 5 2 5 2 5 1 5 1 5 0 5 1 6 0 5 0 0 0 5 -1 6 0 5 -1 5 -1 5 -2 5 -2 5 -1 5 -2 4 -3 5 -2 4 -3 5 -3 4 -3 4 -3 4 -4 3 -4 4 -3 3 -4 3 -4 3 -5 3 -4 2 -5 3 -4 2 -5 2 -5 1 -5 2 -5 1 -5 1 -5 0 -6 1 -5 0 0 0 -5 0 -6 -1 -5 0 -5 -1 -5 -1 -5 -2 -5 -1 -5 -2 -4 -2 -5 -3 -4 -2 -5 -3 -4 -3 -4 -3 -3 -3 -4 -4 -4 -3 -3 -4 -3 -4 -3 -4 -3 -5 -2 -4 -3 -5 -2 -4 -2 -5 -1 -5 -2 -5 -1 -5 -1 -5 0 -5 -1 -6 0 -5 0 0 0 -5 1 -6 0 -5 1 -5 1 -5 2 -5 1 -5 2 -5 2 -4 3 -5 2 -4 3 -5 3 -4 3 -4 3 -4 4 -3 4 -4 3 -3 4 -3 4 -3 5 -3 4 -2 5 -3 4 -2 5 -2 5 -1 5 -2 5 -1 5 -1 5 0 6 -1 5 0 0 0zm1000 115l-1000 0 0 -20 1000 0 0 20z"/>
  </g>
  <g>
   <path class="fil0" d="M12300 6495l5 0 6 1 5 0 5 1 5 1 5 2 5 1 5 2 4 2 5 3 4 2 5 3 4 3 4 3 3 3 4 4 4 3 3 4 3 4 3 4 3 5 2 4 3 5 2 4 1 5 2 5 2 5 1 5 1 5 0 5 1 6 0 5 0 0 0 5 -1 6 0 5 -1 5 -1 5 -2 5 -2 5 -1 5 -2 4 -3 5 -2 4 -3 5 -3 4 -3 4 -3 4 -4 3 -4 4 -3 3 -4 3 -4 3 -5 3 -4 2 -5 3 -4 2 -5 2 -5 1 -5 2 -5 1 -5 1 -5 0 -6 1 -5 0 0 0 -5 0 -6 -1 -5 0 -5 -1 -5 -1 -5 -2 -5 -1 -5 -2 -4 -2 -5 -3 -4 -2 -5 -3 -4 -3 -4 -3 -3 -3 -4 -4 -4 -3 -3 -4 -3 -4 -3 -4 -3 -5 -2 -4 -3 -5 -2 -4 -2 -5 -1 -5 -2 -5 -1 -5 -1 -5 0 -5 -1 -6 0 -5 0 0 0 -5 1 -6 0 -5 1 -5 1 -5 2 -5 1 -5 2 -5 2 -4 3 -5 2 -4 3 -5 3 -4 3 -4 3 -4 4 -3 4 -4 3 -3 4 -3 4 -3 5 -3 4 -2 5 -3 4 -2 5 -2 5 -1 5 -2 5 -1 5 -1 5 0 6 -1 5 0 0 0zm1000 115l-1000 0 0 -20 1000 0 0 20z"/>
  </g>
  <g>
   <path class="fil0" d="M12300 7495l5 0 6 1 5 0 5 1 5 1 5 2 5 1 5 2 4 2 5 3 4 2 5 3 4 3 4 3 3 3 4 4 4 3 3 4 3 4 3 4 3 5 2 4 3 5 2 4 1 5 2 5 2 5 1 5 1 5 0 5 1 6 0 5 0 0 0 5 -1 6 0 5 -1 5 -1 5 -2 5 -2 5 -1 5 -2 4 -3 5 -2 4 -3 5 -3 4 -3 4 -3 4 -4 3 -4 4 -3 3 -4 3 -4 3 -5 3 -4 2 -5 3 -4 2 -5 2 -5 1 -5 2 -5 1 -5 1 -5 0 -6 1 -5 0 0 0 -5 0 -6 -1 -5 0 -5 -1 -5 -1 -5 -2 -5 -1 -5 -2 -4 -2 -5 -3 -4 -2 -5 -3 -4 -3 -4 -3 -3 -3 -4 -4 -4 -3 -3 -4 -3 -4 -3 -4 -3 -5 -2 -4 -3 -5 -2 -4 -2 -5 -1 -5 -2 -5 -1 -5 -1 -5 0 -5 -1 -6 0 -5 0 0 0 -5 1 -6 0 -5 1 -5 1 -5 2 -5 1 -5 2 -5 2 -4 3 -5 2 -4 3 -5 3 -4 3 -4 3 -4 4 -3 4 -4 3 -3 4 -3 4 -3 5 -3 4 -2 5 -3 4 -2 5 -2 5 -1 5 -2 5 -1 5 -1 5 0 6 -1 5 0 0 0zm1000 115l-1000 0 0 -20 1000 0 0 20z"/>
  </g>
  <g>
   <path class="fil0" d="M13300 495l5 0 6 1 5 0 5 1 5 1 5 2 5 1 5 2 4 2 5 3 4 2 5 3 4 3 4 3 3 3 4 4 4 3 3 4 3 4 3 4 3 5 2 4 3 5 2 4 1 5 2 5 2 5 1 5 1 5 0 5 1 6 0 5 0 0 0 5 -1 6 0 5 -1 5 -1 5 -2 5 -2 5 -1 5 -2 4 -3 5 -2 4 -3 5 -3 4 -3 4 -3 4 -4 3 -4 4 -3 3 -4 3 -4 3 -5 3 -4 2 -5 3 -4 2 -5 2 -5 1 -5 2 -5 1 -5 1 -5 0 -6 1 -5 0 0 0 -5 0 -6 -1 -5 0 -5 -1 -5 -1 -5 -2 -5 -1 -5 -2 -4 -2 -5 -3 -4 -2 -5 -3 -4 -3 -4 -3 -3 -3 -4 -4 -4 -3 -3 -4 -3 -4 -3 -4 -3 -5 -2 -4 -3 -5 -2 -4 -2 -5 -1 -5 -2 -5 -1 -5 -1 -5 0 -5 -1 -6 0 -5 0 0 0 -5 1 -6 0 -5 1 -5 1 -5 2 -5 1 -5 2 -5 2 -4 3 -5 2 -4 3 -5 3 -4 3 -4 3 -4 4 -3 4 -4 3 -3 4 -3 4 -3 5 -3 4 -2 5 -3 4 -2 5 -2 5 -1 5 -2 5 -1 5 -1 5 0 6 -1 5 0 0 0zm1000 115l-1000 0 0 -20 1000 0 0 20z"/>
  </g>
  <g>
   <path class="fil0" d="M13300 1495l5 0 6 1 5 0 5 1 5 1 5 2 5 1 5 2 4 2 5 3 4 2 5 3 4 3 4 3 3 3 4 4 4 3 3 4 3 4 3 4 3 5 2 4 3 5 2 4 1 5 2 5 2 5 1 5 1 5 0 5 1 6 0 5 0 0 0 5 -1 6 0 5 -1 5 -1 5 -2 5 -2 5 -1 5 -2 4 -3 5 -2 4 -3 5 -3 4 -3 4 -3 4 -4 3 -4 4 -3 3 -4 3 -4 3 -5 3 -4 2 -5 3 -4 2 -5 2 -5 1 -5 2 -5 1 -5 1 -5 0 -6 1 -5 0 0 0 -5 0 -6 -1 -5 0 -5 -1 -5 -1 -5 -2 -5 -1 -5 -2 -4 -2 -5 -3 -4 -2 -5 -3 -4 -3 -4 -3 -3 -3 -4 -4 -4 -3 -3 -4 -3 -4 -3 -4 -3 -5 -2 -4 -3 -5 -2 -4 -2 -5 -1 -5 -2 -5 -1 -5 -1 -5 0 -5 -1 -6 0 -5 0 0 0 -5 1 -6 0 -5 1 -5 1 -5 2 -5 1 -5 2 -5 2 -4 3 -5 2 -4 3 -5 3 -4 3 -4 3 -4 4 -3 4 -4 3 -3 4 -3 4 -3 5 -3 4 -2 5 -3 4 -2 5 -2 5 -1 5 -2 5 -1 5 -1 5 0 6 -1 5 0 0 0zm1000 115l-1000 0 0 -20 1000 0 0 20z"/>
  </g>
  <g>
   <path class="fil0" d="M13300 2495l5 0 6 1 5 0 5 1 5 1 5 2 5 1 5 2 4 2 5 3 4 2 5 3 4 3 4 3 3 3 4 4 4 3 3 4 3 4 3 4 3 5 2 4 3 5 2 4 1 5 2 5 2 5 1 5 1 5 0 5 1 6 0 5 0 0 0 5 -1 6 0 5 -1 5 -1 5 -2 5 -2 5 -1 5 -2 4 -3 5 -2 4 -3 5 -3 4 -3 4 -3 4 -4 3 -4 4 -3 3 -4 3 -4 3 -5 3 -4 2 -5 3 -4 2 -5 2 -5 1 -5 2 -5 1 -5 1 -5 0 -6 1 -5 0 0 0 -5 0 -6 -1 -5 0 -5 -1 -5 -1 -5 -2 -5 -1 -5 -2 -4 -2 -5 -3 -4 -2 -5 -3 -4 -3 -4 -3 -3 -3 -4 -4 -4 -3 -3 -4 -3 -4 -3 -4 -3 -5 -2 -4 -3 -5 -2 -4 -2 -5 -1 -5 -2 -5 -1 -5 -1 -5 0 -5 -1 -6 0 -5 0 0 0 -5 1 -6 0 -5 1 -5 1 -5 2 -5 1 -5 2 -5 2 -4 3 -5 2 -4 3 -5 3 -4 3 -4 3 -4 4 -3 4 -4 3 -3 4 -3 4 -3 5 -3 4 -2 5 -3 4 -2 5 -2 5 -1 5 -2 5 -1 5 -1 5 0 6 -1 5 0 0 0zm1000 115l-1000 0 0 -20 1000 0 0 20z"/>
  </g>
  <g>
   <path class="fil0" d="M13300 3495l5 0 6 1 5 0 5 1 5 1 5 2 5 1 5 2 4 2 5 3 4 2 5 3 4 3 4 3 3 3 4 4 4 3 3 4 3 4 3 4 3 5 2 4 3 5 2 4 1 5 2 5 2 5 1 5 1 5 0 5 1 6 0 5 0 0 0 5 -1 6 0 5 -1 5 -1 5 -2 5 -2 5 -1 5 -2 4 -3 5 -2 4 -3 5 -3 4 -3 4 -3 4 -4 3 -4 4 -3 3 -4 3 -4 3 -5 3 -4 2 -5 3 -4 2 -5 2 -5 1 -5 2 -5 1 -5 1 -5 0 -6 1 -5 0 0 0 -5 0 -6 -1 -5 0 -5 -1 -5 -1 -5 -2 -5 -1 -5 -2 -4 -2 -5 -3 -4 -2 -5 -3 -4 -3 -4 -3 -3 -3 -4 -4 -4 -3 -3 -4 -3 -4 -3 -4 -3 -5 -2 -4 -3 -5 -2 -4 -2 -5 -1 -5 -2 -5 -1 -5 -1 -5 0 -5 -1 -6 0 -5 0 0 0 -5 1 -6 0 -5 1 -5 1 -5 2 -5 1 -5 2 -5 2 -4 3 -5 2 -4 3 -5 3 -4 3 -4 3 -4 4 -3 4 -4 3 -3 4 -3 4 -3 5 -3 4 -2 5 -3 4 -2 5 -2 5 -1 5 -2 5 -1 5 -1 5 0 6 -1 5 0 0 0zm1000 115l-1000 0 0 -20 1000 0 0 20z"/>
  </g>
  <g>
   <path class="fil0" d="M13300 4495l5 0 6 1 5 0 5 1 5 1 5 2 5 1 5 2 4 2 5 3 4 2 5 3 4 3 4 3 3 3 4 4 4 3 3 4 3 4 3 4 3 5 2 4 3 5 2 4 1 5 2 5 2 5 1 5 1 5 0 5 1 6 0 5 0 0 0 5 -1 6 0 5 -1 5 -1 5 -2 5 -2 5 -1 5 -2 4 -3 5 -2 4 -3 5 -3 4 -3 4 -3 4 -4 3 -4 4 -3 3 -4 3 -4 3 -5 3 -4 2 -5 3 -4 2 -5 2 -5 1 -5 2 -5 1 -5 1 -5 0 -6 1 -5 0 0 0 -5 0 -6 -1 -5 0 -5 -1 -5 -1 -5 -2 -5 -1 -5 -2 -4 -2 -5 -3 -4 -2 -5 -3 -4 -3 -4 -3 -3 -3 -4 -4 -4 -3 -3 -4 -3 -4 -3 -4 -3 -5 -2 -4 -3 -5 -2 -4 -2 -5 -1 -5 -2 -5 -1 -5 -1 -5 0 -5 -1 -6 0 -5 0 0 0 -5 1 -6 0 -5 1 -5 1 -5 2 -5 1 -5 2 -5 2 -4 3 -5 2 -4 3 -5 3 -4 3 -4 3 -4 4 -3 4 -4 3 -3 4 -3 4 -3 5 -3 4 -2 5 -3 4 -2 5 -2 5 -1 5 -2 5 -1 5 -1 5 0 6 -1 5 0 0 0zm1000 115l-1000 0 0 -20 1000 0 0 20z"/>
  </g>
  <g>
   <path class="fil0" d="M13300 5495l5 0 6 1 5 0 5 1 5 1 5 2 5 1 5 2 4 2 5 3 4 2 5 3 4 3 4 3 3 3 4 4 4 3 3 4 3 4 3 4 3 5 2 4 3 5 2 4 1 5 2 5 2 5 1 5 1 5 0 5 1 6 0 5 0 0 0 5 -1 6 0 5 -1 5 -1 5 -2 5 -2 5 -1 5 -2 4 -3 5 -2 4 -3 5 -3 4 -3 4 -3 4 -4 3 -4 4 -3 3 -4 3 -4 3 -5 3 -4 2 -5 3 -4 2 -5 2 -5 1 -5 2 -5 1 -5 1 -5 0 -6 1 -5 0 0 0 -5 0 -6 -1 -5 0 -5 -1 -5 -1 -5 -2 -5 -1 -5 -2 -4 -2 -5 -3 -4 -2 -5 -3 -4 -3 -4 -3 -3 -3 -4 -4 -4 -3 -3 -4 -3 -4 -3 -4 -3 -5 -2 -4 -3 -5 -2 -4 -2 -5 -1 -5 -2 -5 -1 -5 -1 -5 0 -5 -1 -6 0 -5 0 0 0 -5 1 -6 0 -5 1 -5 1 -5 2 -5 1 -5 2 -5 2 -4 3 -5 2 -4 3 -5 3 -4 3 -4 3 -4 4 -3 4 -4 3 -3 4 -3 4 -3 5 -3 4 -2 5 -3 4 -2 5 -2 5 -1 5 -2 5 -1 5 -1 5 0 6 -1 5 0 0 0zm1000 115l-1000 0 0 -20 1000 0 0 20z"/>
  </g>
  <g>
   <path class="fil0" d="M13300 6495l5 0 6 1 5 0 5 1 5 1 5 2 5 1 5 2 4 2 5 3 4 2 5 3 4 3 4 3 3 3 4 4 4 3 3 4 3 4 3 4 3 5 2 4 3 5 2 4 1 5 2 5 2 5 1 5 1 5 0 5 1 6 0 5 0 0 0 5 -1 6 0 5 -1 5 -1 5 -2 5 -2 5 -1 5 -2 4 -3 5 -2 4 -3 5 -3 4 -3 4 -3 4 -4 3 -4 4 -3 3 -4 3 -4 3 -5 3 -4 2 -5 3 -4 2 -5 2 -5 1 -5 2 -5 1 -5 1 -5 0 -6 1 -5 0 0 0 -5 0 -6 -1 -5 0 -5 -1 -5 -1 -5 -2 -5 -1 -5 -2 -4 -2 -5 -3 -4 -2 -5 -3 -4 -3 -4 -3 -3 -3 -4 -4 -4 -3 -3 -4 -3 -4 -3 -4 -3 -5 -2 -4 -3 -5 -2 -4 -2 -5 -1 -5 -2 -5 -1 -5 -1 -5 0 -5 -1 -6 0 -5 0 0 0 -5 1 -6 0 -5 1 -5 1 -5 2 -5 1 -5 2 -5 2 -4 3 -5 2 -4 3 -5 3 -4 3 -4 3 -4 4 -3 4 -4 3 -3 4 -3 4 -3 5 -3 4 -2 5 -3 4 -2 5 -2 5 -1 5 -2 5 -1 5 -1 5 0 6 -1 5 0 0 0zm1000 115l-1000 0 0 -20 1000 0 0 20z"/>
  </g>
  <g>
   <path class="fil0" d="M13300 7495l5 0 6 1 5 0 5 1 5 1 5 2 5 1 5 2 4 2 5 3 4 2 5 3 4 3 4 3 3 3 4 4 4 3 3 4 3 4 3 4 3 5 2 4 3 5 2 4 1 5 2 5 2 5 1 5 1 5 0 5 1 6 0 5 0 0 0 5 -1 6 0 5 -1 5 -1 5 -2 5 -2 5 -1 5 -2 4 -3 5 -2 4 -3 5 -3 4 -3 4 -3 4 -4 3 -4 4 -3 3 -4 3 -4 3 -5 3 -4 2 -5 3 -4 2 -5 2 -5 1 -5 2 -5 1 -5 1 -5 0 -6 1 -5 0 0 0 -5 0 -6 -1 -5 0 -5 -1 -5 -1 -5 -2 -5 -1 -5 -2 -4 -2 -5 -3 -4 -2 -5 -3 -4 -3 -4 -3 -3 -3 -4 -4 -4 -3 -3 -4 -3 -4 -3 -4 -3 -5 -2 -4 -3 -5 -2 -4 -2 -5 -1 -5 -2 -5 -1 -5 -1 -5 0 -5 -1 -6 0 -5 0 0 0 -5 1 -6 0 -5 1 -5 1 -5 2 -5 1 -5 2 -5 2 -4 3 -5 2 -4 3 -5 3 -4 3 -4 3 -4 4 -3 4 -4 3 -3 4 -3 4 -3 5 -3 4 -2 5 -3 4 -2 5 -2 5 -1 5 -2 5 -1 5 -1 5 0 6 -1 5 0 0 0zm1000 115l-1000 0 0 -20 1000 0 0 20z"/>
  </g>
  <g>
   <path class="fil0" d="M14300 495l5 0 6 1 5 0 5 1 5 1 5 2 5 1 5 2 4 2 5 3 4 2 5 3 4 3 4 3 3 3 4 4 4 3 3 4 3 4 3 4 3 5 2 4 3 5 2 4 1 5 2 5 2 5 1 5 1 5 0 5 1 6 0 5 0 0 0 5 -1 6 0 5 -1 5 -1 5 -2 5 -2 5 -1 5 -2 4 -3 5 -2 4 -3 5 -3 4 -3 4 -3 4 -4 3 -4 4 -3 3 -4 3 -4 3 -5 3 -4 2 -5 3 -4 2 -5 2 -5 1 -5 2 -5 1 -5 1 -5 0 -6 1 -5 0 0 0 -5 0 -6 -1 -5 0 -5 -1 -5 -1 -5 -2 -5 -1 -5 -2 -4 -2 -5 -3 -4 -2 -5 -3 -4 -3 -4 -3 -3 -3 -4 -4 -4 -3 -3 -4 -3 -4 -3 -4 -3 -5 -2 -4 -3 -5 -2 -4 -2 -5 -1 -5 -2 -5 -1 -5 -1 -5 0 -5 -1 -6 0 -5 0 0 0 -5 1 -6 0 -5 1 -5 1 -5 2 -5 1 -5 2 -5 2 -4 3 -5 2 -4 3 -5 3 -4 3 -4 3 -4 4 -3 4 -4 3 -3 4 -3 4 -3 5 -3 4 -2 5 -3 4 -2 5 -2 5 -1 5 -2 5 -1 5 -1 5 0 6 -1 5 0 0 0zm1000 115l-1000 0 0 -20 1000 0 0 20z"/>
  </g>
  <g>
   <path class="fil0" d="M14300 1495l5 0 6 1 5 0 5 1 5 1 5 2 5 1 5 2 4 2 5 3 4 2 5 3 4 3 4 3 3 3 4 4 4 3 3 4 3 4 3 4 3 5 2 4 3 5 2 4 1 5 2 5 2 5 1 5 1 5 0 5 1 6 0 5 0 0 0 5 -1 6 0 5 -1 5 -1 5 -2 5 -2 5 -1 5 -2 4 -3 5 -2 4 -3 5 -3 4 -3 4 -3 4 -4 3 -4 4 -3 3 -4 3 -4 3 -5 3 -4 2 -5 3 -4 2 -5 2 -5 1 -5 2 -5 1 -5 1 -5 0 -6 1 -5 0 0 0 -5 0 -6 -1 -5 0 -5 -1 -5 -1 -5 -2 -5 -1 -5 -2 -4 -2 -5 -3 -4 -2 -5 -3 -4 -3 -4 -3 -3 -3 -4 -4 -4 -3 -3 -4 -3 -4 -3 -4 -3 -5 -2 -4 -3 -5 -2 -4 -2 -5 -1 -5 -2 -5 -1 -5 -1 -5 0 -5 -1 -6 0 -5 0 0 0 -5 1 -6 0 -5 1 -5 1 -5 2 -5 1 -5 2 -5 2 -4 3 -5 2 -4 3 -5 3 -4 3 -4 3 -4 4 -3 4 -4 3 -3 4 -3 4 -3 5 -3 4 -2 5 -3 4 -2 5 -2 5 -1 5 -2 5 -1 5 -1 5 0 6 -1 5 0 0 0zm1000 115l-1000 0 0 -20 1000 0 0 20z"/>
  </g>
  <g>
   <path class="fil0" d="M14300 2495l5 0 6 1 5 0 5 1 5 1 5 2 5 1 5 2 4 2 5 3 4 2 5 3 4 3 4 3 3 3 4 4 4 3 3 4 3 4 3 4 3 5 2 4 3 5 2 4 1 5 2 5 2 5 1 5 1 5 0 5 1 6 0 5 0 0 0 5 -1 6 0 5 -1 5 -1 5 -2 5 -2 5 -1 5 -2 4 -3 5 -2 4 -3 5 -3 4 -3 4 -3 4 -4 3 -4 4 -3 3 -4 3 -4 3 -5 3 -4 2 -5 3 -4 2 -5 2 -5 1 -5 2 -5 1 -5 1 -5 0 -6 1 -5 0 0 0 -5 0 -6 -1 -5 0 -5 -1 -5 -1 -5 -2 -5 -1 -5 -2 -4 -2 -5 -3 -4 -2 -5 -3 -4 -3 -4 -3 -3 -3 -4 -4 -4 -3 -3 -4 -3 -4 -3 -4 -3 -5 -2 -4 -3 -5 -2 -4 -2 -5 -1 -5 -2 -5 -1 -5 -1 -5 0 -5 -1 -6 0 -5 0 0 0 -5 1 -6 0 -5 1 -5 1 -5 2 -5 1 -5 2 -5 2 -4 3 -5 2 -4 3 -5 3 -4 3 -4 3 -4 4 -3 4 -4 3 -3 4 -3 4 -3 5 -3 4 -2 5 -3 4 -2 5 -2 5 -1 5 -2 5 -1 5 -1 5 0 6 -1 5 0 0 0zm1000 115l-1000 0 0 -20 1000 0 0 20z"/>
  </g>
  <g>
   <path class="fil0" d="M14300 3495l5 0 6 1 5 0 5 1 5 1 5 2 5 1 5 2 4 2 5 3 4 2 5 3 4 3 4 3 3 3 4 4 4 3 3 4 3 4 3 4 3 5 2 4 3 5 2 4 1 5 2 5 2 5 1 5 1 5 0 5 1 6 0 5 0 0 0 5 -1 6 0 5 -1 5 -1 5 -2 5 -2 5 -1 5 -2 4 -3 5 -2 4 -3 5 -3 4 -3 4 -3 4 -4 3 -4 4 -3 3 -4 3 -4 3 -5 3 -4 2 -5 3 -4 2 -5 2 -5 1 -5 2 -5 1 -5 1 -5 0 -6 1 -5 0 0 0 -5 0 -6 -1 -5 0 -5 -1 -5 -1 -5 -2 -5 -1 -5 -2 -4 -2 -5 -3 -4 -2 -5 -3 -4 -3 -4 -3 -3 -3 -4 -4 -4 -3 -3 -4 -3 -4 -3 -4 -3 -5 -2 -4 -3 -5 -2 -4 -2 -5 -1 -5 -2 -5 -1 -5 -1 -5 0 -5 -1 -6 0 -5 0 0 0 -5 1 -6 0 -5 1 -5 1 -5 2 -5 1 -5 2 -5 2 -4 3 -5 2 -4 3 -5 3 -4 3 -4 3 -4 4 -3 4 -4 3 -3 4 -3 4 -3 5 -3 4 -2 5 -3 4 -2 5 -2 5 -1 5 -2 5 -1 5 -1 5 0 6 -1 5 0 0 0zm1000 115l-1000 0 0 -20 1000 0 0 20z"/>
  </g>
  <g>
   <path class="fil0" d="M14300 4495l5 0 6 1 5 0 5 1 5 1 5 2 5 1 5 2 4 2 5 3 4 2 5 3 4 3 4 3 3 3 4 4 4 3 3 4 3 4 3 4 3 5 2 4 3 5 2 4 1 5 2 5 2 5 1 5 1 5 0 5 1 6 0 5 0 0 0 5 -1 6 0 5 -1 5 -1 5 -2 5 -2 5 -1 5 -2 4 -3 5 -2 4 -3 5 -3 4 -3 4 -3 4 -4 3 -4 4 -3 3 -4 3 -4 3 -5 3 -4 2 -5 3 -4 2 -5 2 -5 1 -5 2 -5 1 -5 1 -5 0 -6 1 -5 0 0 0 -5 0 -6 -1 -5 0 -5 -1 -5 -1 -5 -2 -5 -1 -5 -2 -4 -2 -5 -3 -4 -2 -5 -3 -4 -3 -4 -3 -3 -3 -4 -4 -4 -3 -3 -4 -3 -4 -3 -4 -3 -5 -2 -4 -3 -5 -2 -4 -2 -5 -1 -5 -2 -5 -1 -5 -1 -5 0 -5 -1 -6 0 -5 0 0 0 -5 1 -6 0 -5 1 -5 1 -5 2 -5 1 -5 2 -5 2 -4 3 -5 2 -4 3 -5 3 -4 3 -4 3 -4 4 -3 4 -4 3 -3 4 -3 4 -3 5 -3 4 -2 5 -3 4 -2 5 -2 5 -1 5 -2 5 -1 5 -1 5 0 6 -1 5 0 0 0zm1000 115l-1000 0 0 -20 1000 0 0 20z"/>
  </g>
  <g>
   <path class="fil0" d="M14300 5495l5 0 6 1 5 0 5 1 5 1 5 2 5 1 5 2 4 2 5 3 4 2 5 3 4 3 4 3 3 3 4 4 4 3 3 4 3 4 3 4 3 5 2 4 3 5 2 4 1 5 2 5 2 5 1 5 1 5 0 5 1 6 0 5 0 0 0 5 -1 6 0 5 -1 5 -1 5 -2 5 -2 5 -1 5 -2 4 -3 5 -2 4 -3 5 -3 4 -3 4 -3 4 -4 3 -4 4 -3 3 -4 3 -4 3 -5 3 -4 2 -5 3 -4 2 -5 2 -5 1 -5 2 -5 1 -5 1 -5 0 -6 1 -5 0 0 0 -5 0 -6 -1 -5 0 -5 -1 -5 -1 -5 -2 -5 -1 -5 -2 -4 -2 -5 -3 -4 -2 -5 -3 -4 -3 -4 -3 -3 -3 -4 -4 -4 -3 -3 -4 -3 -4 -3 -4 -3 -5 -2 -4 -3 -5 -2 -4 -2 -5 -1 -5 -2 -5 -1 -5 -1 -5 0 -5 -1 -6 0 -5 0 0 0 -5 1 -6 0 -5 1 -5 1 -5 2 -5 1 -5 2 -5 2 -4 3 -5 2 -4 3 -5 3 -4 3 -4 3 -4 4 -3 4 -4 3 -3 4 -3 4 -3 5 -3 4 -2 5 -3 4 -2 5 -2 5 -1 5 -2 5 -1 5 -1 5 0 6 -1 5 0 0 0zm1000 115l-1000 0 0 -20 1000 0 0 20z"/>
  </g>
  <g>
   <path class="fil0" d="M14300 6495l5 0 6 1 5 0 5 1 5 1 5 2 5 1 5 2 4 2 5 3 4 2 5 3 4 3 4 3 3 3 4 4 4 3 3 4 3 4 3 4 3 5 2 4 3 5 2 4 1 5 2 5 2 5 1 5 1 5 0 5 1 6 0 5 0 0 0 5 -1 6 0 5 -1 5 -1 5 -2 5 -2 5 -1 5 -2 4 -3 5 -2 4 -3 5 -3 4 -3 4 -3 4 -4 3 -4 4 -3 3 -4 3 -4 3 -5 3 -4 2 -5 3 -4 2 -5 2 -5 1 -5 2 -5 1 -5 1 -5 0 -6 1 -5 0 0 0 -5 0 -6 -1 -5 0 -5 -1 -5 -1 -5 -2 -5 -1 -5 -2 -4 -2 -5 -3 -4 -2 -5 -3 -4 -3 -4 -3 -3 -3 -4 -4 -4 -3 -3 -4 -3 -4 -3 -4 -3 -5 -2 -4 -3 -5 -2 -4 -2 -5 -1 -5 -2 -5 -1 -5 -1 -5 0 -5 -1 -6 0 -5 0 0 0 -5 1 -6 0 -5 1 -5 1 -5 2 -5 1 -5 2 -5 2 -4 3 -5 2 -4 3 -5 3 -4 3 -4 3 -4 4 -3 4 -4 3 -3 4 -3 4 -3 5 -3 4 -2 5 -3 4 -2 5 -2 5 -1 5 -2 5 -1 5 -1 5 0 6 -1 5 0 0 0zm1000 115l-1000 0 0 -20 1000 0 0 20z"/>
  </g>
  <g>
   <path class="fil0" d="M14300 7495l5 0 6 1 5 0 5 1 5 1 5 2 5 1 5 2 4 2 5 3 4 2 5 3 4 3 4 3 3 3 4 4 4 3 3 4 3 4 3 4 3 5 2 4 3 5 2 4 1 5 2 5 2 5 1 5 1 5 0 5 1 6 0 5 0 0 0 5 -1 6 0 5 -1 5 -1 5 -2 5 -2 5 -1 5 -2 4 -3 5 -2 4 -3 5 -3 4 -3 4 -3 4 -4 3 -4 4 -3 3 -4 3 -4 3 -5 3 -4 2 -5 3 -4 2 -5 2 -5 1 -5 2 -5 1 -5 1 -5 0 -6 1 -5 0 0 0 -5 0 -6 -1 -5 0 -5 -1 -5 -1 -5 -2 -5 -1 -5 -2 -4 -2 -5 -3 -4 -2 -5 -3 -4 -3 -4 -3 -3 -3 -4 -4 -4 -3 -3 -4 -3 -4 -3 -4 -3 -5 -2 -4 -3 -5 -2 -4 -2 -5 -1 -5 -2 -5 -1 -5 -1 -5 0 -5 -1 -6 0 -5 0 0 0 -5 1 -6 0 -5 1 -5 1 -5 2 -5 1 -5 2 -5 2 -4 3 -5 2 -4 3 -5 3 -4 3 -4 3 -4 4 -3 4 -4 3 -3 4 -3 4 -3 5 -3 4 -2 5 -3 4 -2 5 -2 5 -1 5 -2 5 -1 5 -1 5 0 6 -1 5 0 0 0zm1000 115l-1000 0 0 -20 1000 0 0 20z"/>
  </g>
  <g>
   <path class="fil0" d="M15300 495l5 0 6 1 5 0 5 1 5 1 5 2 5 1 5 2 4 2 5 3 4 2 5 3 4 3 4 3 3 3 4 4 4 3 3 4 3 4 3 4 3 5 2 4 3 5 2 4 1 5 2 5 2 5 1 5 1 5 0 5 1 6 0 5 0 0 0 5 -1 6 0 5 -1 5 -1 5 -2 5 -2 5 -1 5 -2 4 -3 5 -2 4 -3 5 -3 4 -3 4 -3 4 -4 3 -4 4 -3 3 -4 3 -4 3 -5 3 -4 2 -5 3 -4 2 -5 2 -5 1 -5 2 -5 1 -5 1 -5 0 -6 1 -5 0 0 0 -5 0 -6 -1 -5 0 -5 -1 -5 -1 -5 -2 -5 -1 -5 -2 -4 -2 -5 -3 -4 -2 -5 -3 -4 -3 -4 -3 -3 -3 -4 -4 -4 -3 -3 -4 -3 -4 -3 -4 -3 -5 -2 -4 -3 -5 -2 -4 -2 -5 -1 -5 -2 -5 -1 -5 -1 -5 0 -5 -1 -6 0 -5 0 0 0 -5 1 -6 0 -5 1 -5 1 -5 2 -5 1 -5 2 -5 2 -4 3 -5 2 -4 3 -5 3 -4 3 -4 3 -4 4 -3 4 -4 3 -3 4 -3 4 -3 5 -3 4 -2 5 -3 4 -2 5 -2 5 -1 5 -2 5 -1 5 -1 5 0 6 -1 5 0 0 0zm1000 115l-1000 0 0 -20 1000 0 0 20z"/>
  </g>
  <g>
   <path class="fil0" d="M15300 1495l5 0 6 1 5 0 5 1 5 1 5 2 5 1 5 2 4 2 5 3 4 2 5 3 4 3 4 3 3 3 4 4 4 3 3 4 3 4 3 4 3 5 2 4 3 5 2 4 1 5 2 5 2 5 1 5 1 5 0 5 1 6 0 5 0 0 0 5 -1 6 0 5 -1 5 -1 5 -2 5 -2 5 -1 5 -2 4 -3 5 -2 4 -3 5 -3 4 -3 4 -3 4 -4 3 -4 4 -3 3 -4 3 -4 3 -5 3 -4 2 -5 3 -4 2 -5 2 -5 1 -5 2 -5 1 -5 1 -5 0 -6 1 -5 0 0 0 -5 0 -6 -1 -5 0 -5 -1 -5 -1 -5 -2 -5 -1 -5 -2 -4 -2 -5 -3 -4 -2 -5 -3 -4 -3 -4 -3 -3 -3 -4 -4 -4 -3 -3 -4 -3 -4 -3 -4 -3 -5 -2 -4 -3 -5 -2 -4 -2 -5 -1 -5 -2 -5 -1 -5 -1 -5 0 -5 -1 -6 0 -5 0 0 0 -5 1 -6 0 -5 1 -5 1 -5 2 -5 1 -5 2 -5 2 -4 3 -5 2 -4 3 -5 3 -4 3 -4 3 -4 4 -3 4 -4 3 -3 4 -3 4 -3 5 -3 4 -2 5 -3 4 -2 5 -2 5 -1 5 -2 5 -1 5 -1 5 0 6 -1 5 0 0 0zm1000 115l-1000 0 0 -20 1000 0 0 20z"/>
  </g>
  <g>
   <path class="fil0" d="M15300 2495l5 0 6 1 5 0 5 1 5 1 5 2 5 1 5 2 4 2 5 3 4 2 5 3 4 3 4 3 3 3 4 4 4 3 3 4 3 4 3 4 3 5 2 4 3 5 2 4 1 5 2 5 2 5 1 5 1 5 0 5 1 6 0 5 0 0 0 5 -1 6 0 5 -1 5 -1 5 -2 5 -2 5 -1 5 -2 4 -3 5 -2 4 -3 5 -3 4 -3 4 -3 4 -4 3 -4 4 -3 3 -4 3 -4 3 -5 3 -4 2 -5 3 -4 2 -5 2 -5 1 -5 2 -5 1 -5 1 -5 0 -6 1 -5 0 0 0 -5 0 -6 -1 -5 0 -5 -1 -5 -1 -5 -2 -5 -1 -5 -2 -4 -2 -5 -3 -4 -2 -5 -3 -4 -3 -4 -3 -3 -3 -4 -4 -4 -3 -3 -4 -3 -4 -3 -4 -3 -5 -2 -4 -3 -5 -2 -4 -2 -5 -1 -5 -2 -5 -1 -5 -1 -5 0 -5 -1 -6 0 -5 0 0 0 -5 1 -6 0 -5 1 -5 1 -5 2 -5 1 -5 2 -5 2 -4 3 -5 2 -4 3 -5 3 -4 3 -4 3 -4 4 -3 4 -4 3 -3 4 -3 4 -3 5 -3 4 -2 5 -3 4 -2 5 -2 5 -1 5 -2 5 -1 5 -1 5 0 6 -1 5 0 0 0zm1000 115l-1000 0 0 -20 1000 0 0 20z"/>
  </g>
  <g>
   <path class="fil0" d="M15300 3495l5 0 6 1 5 0 5 1 5 1 5 2 5 1 5 2 4 2 5 3 4 2 5 3 4 3 4 3 3 3 4 4 4 3 3 4 3 4 3 4 3 5 2 4 3 5 2 4 1 5 2 5 2 5 1 5 1 5 0 5 1 6 0 5 0 0 0 5 -1 6 0 5 -1 5 -1 5 -2 5 -2 5 -1 5 -2 4 -3 5 -2 4 -3 5 -3 4 -3 4 -3 4 -4 3 -4 4 -3 3 -4 3 -4 3 -5 3 -4 2 -5 3 -4 2 -5 2 -5 1 -5 2 -5 1 -5 1 -5 0 -6 1 -5 0 0 0 -5 0 -6 -1 -5 0 -5 -1 -5 -1 -5 -2 -5 -1 -5 -2 -4 -2 -5 -3 -4 -2 -5 -3 -4 -3 -4 -3 -3 -3 -4 -4 -4 -3 -3 -4 -3 -4 -3 -4 -3 -5 -2 -4 -3 -5 -2 -4 -2 -5 -1 -5 -2 -5 -1 -5 -1 -5 0 -5 -1 -6 0 -5 0 0 0 -5 1 -6 0 -5 1 -5 1 -5 2 -5 1 -5 2 -5 2 -4 3 -5 2 -4 3 -5 3 -4 3 -4 3 -4 4 -3 4 -4 3 -3 4 -3 4 -3 5 -3 4 -2 5 -3 4 -2 5 -2 5 -1 5 -2 5 -1 5 -1 5 0 6 -1 5 0 0 0zm1000 115l-1000 0 0 -20 1000 0 0 20z"/>
  </g>
  <g>
   <path class="fil0" d="M15300 4495l5 0 6 1 5 0 5 1 5 1 5 2 5 1 5 2 4 2 5 3 4 2 5 3 4 3 4 3 3 3 4 4 4 3 3 4 3 4 3 4 3 5 2 4 3 5 2 4 1 5 2 5 2 5 1 5 1 5 0 5 1 6 0 5 0 0 0 5 -1 6 0 5 -1 5 -1 5 -2 5 -2 5 -1 5 -2 4 -3 5 -2 4 -3 5 -3 4 -3 4 -3 4 -4 3 -4 4 -3 3 -4 3 -4 3 -5 3 -4 2 -5 3 -4 2 -5 2 -5 1 -5 2 -5 1 -5 1 -5 0 -6 1 -5 0 0 0 -5 0 -6 -1 -5 0 -5 -1 -5 -1 -5 -2 -5 -1 -5 -2 -4 -2 -5 -3 -4 -2 -5 -3 -4 -3 -4 -3 -3 -3 -4 -4 -4 -3 -3 -4 -3 -4 -3 -4 -3 -5 -2 -4 -3 -5 -2 -4 -2 -5 -1 -5 -2 -5 -1 -5 -1 -5 0 -5 -1 -6 0 -5 0 0 0 -5 1 -6 0 -5 1 -5 1 -5 2 -5 1 -5 2 -5 2 -4 3 -5 2 -4 3 -5 3 -4 3 -4 3 -4 4 -3 4 -4 3 -3 4 -3 4 -3 5 -3 4 -2 5 -3 4 -2 5 -2 5 -1 5 -2 5 -1 5 -1 5 0 6 -1 5 0 0 0zm1000 115l-1000 0 0 -20 1000 0 0 20z"/>
  </g>
  <g>
   <path class="fil0" d="M15300 5495l5 0 6 1 5 0 5 1 5 1 5 2 5 1 5 2 4 2 5 3 4 2 5 3 4 3 4 3 3 3 4 4 4 3 3 4 3 4 3 4 3 5 2 4 3 5 2 4 1 5 2 5 2 5 1 5 1 5 0 5 1 6 0 5 0 0 0 5 -1 6 0 5 -1 5 -1 5 -2 5 -2 5 -1 5 -2 4 -3 5 -2 4 -3 5 -3 4 -3 4 -3 4 -4 3 -4 4 -3 3 -4 3 -4 3 -5 3 -4 2 -5 3 -4 2 -5 2 -5 1 -5 2 -5 1 -5 1 -5 0 -6 1 -5 0 0 0 -5 0 -6 -1 -5 0 -5 -1 -5 -1 -5 -2 -5 -1 -5 -2 -4 -2 -5 -3 -4 -2 -5 -3 -4 -3 -4 -3 -3 -3 -4 -4 -4 -3 -3 -4 -3 -4 -3 -4 -3 -5 -2 -4 -3 -5 -2 -4 -2 -5 -1 -5 -2 -5 -1 -5 -1 -5 0 -5 -1 -6 0 -5 0 0 0 -5 1 -6 0 -5 1 -5 1 -5 2 -5 1 -5 2 -5 2 -4 3 -5 2 -4 3 -5 3 -4 3 -4 3 -4 4 -3 4 -4 3 -3 4 -3 4 -3 5 -3 4 -2 5 -3 4 -2 5 -2 5 -1 5 -2 5 -1 5 -1 5 0 6 -1 5 0 0 0zm1000 115l-1000 0 0 -20 1000 0 0 20z"/>
  </g>
  <g>
   <path class="fil0" d="M15300 6495l5 0 6 1 5 0 5 1 5 1 5 2 5 1 5 2 4 2 5 3 4 2 5 3 4 3 4 3 3 3 4 4 4 3 3 4 3 4 3 4 3 5 2 4 3 5 2 4 1 5 2 5 2 5 1 5 1 5 0 5 1 6 0 5 0 0 0 5 -1 6 0 5 -1 5 -1 5 -2 5 -2 5 -1 5 -2 4 -3 5 -2 4 -3 5 -3 4 -3 4 -3 4 -4 3 -4 4 -3 3 -4 3 -4 3 -5 3 -4 2 -5 3 -4 2 -5 2 -5 1 -5 2 -5 1 -5 1 -5 0 -6 1 -5 0 0 0 -5 0 -6 -1 -5 0 -5 -1 -5 -1 -5 -2 -5 -1 -5 -2 -4 -2 -5 -3 -4 -2 -5 -3 -4 -3 -4 -3 -3 -3 -4 -4 -4 -3 -3 -4 -3 -4 -3 -4 -3 -5 -2 -4 -3 -5 -2 -4 -2 -5 -1 -5 -2 -5 -1 -5 -1 -5 0 -5 -1 -6 0 -5 0 0 0 -5 1 -6 0 -5 1 -5 1 -5 2 -5 1 -5 2 -5 2 -4 3 -5 2 -4 3 -5 3 -4 3 -4 3 -4 4 -3 4 -4 3 -3 4 -3 4 -3 5 -3 4 -2 5 -3 4 -2 5 -2 5 -1 5 -2 5 -1 5 -1 5 0 6 -1 5 0 0 0zm1000 115l-1000 0 0 -20 1000 0 0 20z"/>
  </g>
  <g>
   <path class="fil0" d="M15300 7495l5 0 6 1 5 0 5 1 5 1 5 2 5 1 5 2 4 2 5 3 4 2 5 3 4 3 4 3 3 3 4 4 4 3 3 4 3 4 3 4 3 5 2 4 3 5 2 4 1 5 2 5 2 5 1 5 1 5 0 5 1 6 0 5 0 0 0 5 -1 6 0 5 -1 5 -1 5 -2 5 -2 5 -1 5 -2 4 -3 5 -2 4 -3 5 -3 4 -3 4 -3 4 -4 3 -4 4 -3 3 -4 3 -4 3 -5 3 -4 2 -5 3 -4 2 -5 2 -5 1 -5 2 -5 1 -5 1 -5 0 -6 1 -5 0 0 0 -5 0 -6 -1 -5 0 -5 -1 -5 -1 -5 -2 -5 -1 -5 -2 -4 -2 -5 -3 -4 -2 -5 -3 -4 -3 -4 -3 -3 -3 -4 -4 -4 -3 -3 -4 -3 -4 -3 -4 -3 -5 -2 -4 -3 -5 -2 -4 -2 -5 -1 -5 -2 -5 -1 -5 -1 -5 0 -5 -1 -6 0 -5 0 0 0 -5 1 -6 0 -5 1 -5 1 -5 2 -5 1 -5 2 -5 2 -4 3 -5 2 -4 3 -5 3 -4 3 -4 3 -4 4 -3 4 -4 3 -3 4 -3 4 -3 5 -3 4 -2 5 -3 4 -2 5 -2 5 -1 5 -2 5 -1 5 -1 5 0 6 -1 5 0 0 0zm1000 115l-1000 0 0 -20 1000 0 0 20z"/>
  </g>
  <g>
   <path class="fil0" d="M16315 704l-6 0 -5 1 -5 0 -5 0 -6 -1 -5 0 -5 -1 -5 -2 -5 -1 -4 -2 -5 -2 -5 -2 -4 -2 -5 -2 -4 -3 -4 -3 -4 -3 -4 -4 -3 -3 -4 -4 -3 -3 -3 -4 -3 -5 -3 -4 -2 -4 -3 -5 -2 -5 -2 -5 -1 -5 -2 -5 -1 -5 -1 -5 0 0 -1 -6 0 -5 0 -5 0 -5 1 -6 0 -5 1 -5 2 -5 1 -5 2 -4 2 -5 2 -5 2 -4 2 -5 3 -4 3 -4 3 -4 4 -4 3 -3 4 -4 4 -3 4 -3 4 -3 4 -3 4 -2 5 -3 5 -2 5 -2 5 -1 5 -2 5 -1 5 -1 0 0 5 0 6 -1 5 0 5 0 5 1 6 0 5 1 5 2 5 1 4 2 5 2 5 2 4 2 5 2 4 3 4 3 4 3 4 4 3 3 4 4 3 3 3 4 3 5 3 4 2 4 3 5 2 5 2 5 1 5 2 5 1 5 1 5 0 0 0 6 1 5 0 5 0 5 -1 6 0 5 -1 5 -2 5 -1 5 -2 4 -2 5 -2 5 -2 4 -3 5 -2 4 -3 4 -3 4 -4 4 -3 3 -4 4 -4 3 -4 3 -4 3 -4 3 -4 2 -5 3 -5 2 -5 2 -5 1 -5 2 -5 1 -5 1 0 0zm-7016 886l7000 -1000 2 20 -7000 1000 -2 -20z"/>
  </g>
  <g>
   <path class="fil0" d="M16315 1704l-6 0 -5 1 -5 0 -5 0 -6 -1 -5 0 -5 -1 -5 -2 -5 -1 -4 -2 -5 -2 -5 -2 -4 -2 -5 -2 -4 -3 -4 -3 -4 -3 -4 -4 -3 -3 -4 -4 -3 -3 -3 -4 -3 -5 -3 -4 -2 -4 -3 -5 -2 -5 -2 -5 -1 -5 -2 -5 -1 -5 -1 -5 0 0 -1 -6 0 -5 0 -5 0 -5 1 -6 0 -5 1 -5 2 -5 1 -5 2 -4 2 -5 2 -5 2 -4 2 -5 3 -4 3 -4 3 -4 4 -4 3 -3 4 -4 4 -3 4 -3 4 -3 4 -3 4 -2 5 -3 5 -2 5 -2 5 -1 5 -2 5 -1 5 -1 0 0 5 0 6 -1 5 0 5 0 5 1 6 0 5 1 5 2 5 1 4 2 5 2 5 2 4 2 5 2 4 3 4 3 4 3 4 4 3 3 4 4 3 3 3 4 3 5 3 4 2 4 3 5 2 5 2 5 1 5 2 5 1 5 1 5 0 0 0 6 1 5 0 5 0 5 -1 6 0 5 -1 5 -2 5 -1 5 -2 4 -2 5 -2 5 -2 4 -3 5 -2 4 -3 4 -3 4 -4 4 -3 3 -4 4 -4 3 -4 3 -4 3 -4 3 -4 2 -5 3 -5 2 -5 2 -5 1 -5 2 -5 1 -5 1 0 0zm-7016 886l7000 -1000 2 20 -7000 1000 -2 -20z"/>
  </g>
  <g>
   <path class="fil0" d="M16315 2704l-6 0 -5 1 -5 0 -5 0 -6 -1 -5 0 -5 -1 -5 -2 -5 -1 -4 -2 -5 -2 -5 -2 -4 -2 -5 -2 -4 -3 -4 -3 -4 -3 -4 -4 -3 -3 -4 -4 -3 -3 -3 -4 -3 -5 -3 -4 -2 -4 -3 -5 -2 -5 -2 -5 -1 -5 -2 -5 -1 -5 -1 -5 0 0 -1 -6 0 -5 0 -5 0 -5 1 -6 0 -5 1 -5 2 -5 1 -5 2 -4 2 -5 2 -5 2 -4 2 -5 3 -4 3 -4 3 -4 4 -4 3 -3 4 -4 4 -3 4 -3 4 -3 4 -3 4 -2 5 -3 5 -2 5 -2 5 -1 5 -2 5 -1 5 -1 0 0 5 0 6 -1 5 0 5 0 5 1 6 0 5 1 5 2 5 1 4 2 5 2 5 2 4 2 5 2 4 3 4 3 4 3 4 4 3 3 4 4 3 3 3 4 3 5 3 4 2 4 3 5 2 5 2 5 1 5 2 5 1 5 1 5 0 0 0 6 1 5 0 5 0 5 -1 6 0 5 -1 5 -2 5 -1 5 -2 4 -2 5 -2 5 -2 4 -3 5 -2 4 -3 4 -3 4 -4 4 -3 3 -4 4 -4 3 -4 3 -4 3 -4 3 -4 2 -5 3 -5 2 -5 2 -5 1 -5 2 -5 1 -5 1 0 0zm-7016 886l7000 -1000 2 20 -7000 1000 -2 -20z"/>
  </g>
  <g>
   <path class="fil0" d="M16315 3704l-6 0 -5 1 -5 0 -5 0 -6 -1 -5 0 -5 -1 -5 -2 -5 -1 -4 -2 -5 -2 -5 -2 -4 -2 -5 -2 -4 -3 -4 -3 -4 -3 -4 -4 -3 -3 -4 -4 -3 -4 -3 -3 -3 -5 -3 -4 -2 -4 -3 -5 -2 -5 -2 -5 -1 -5 -2 -5 -1 -5 -1 -5 0 0 -1 -6 0 -5 0 -5 0 -5 1 -6 0 -5 1 -5 2 -5 1 -5 2 -4 2 -5 2 -5 2 -4 2 -5 3 -4 3 -4 3 -4 4 -4 3 -3 4 -4 4 -3 4 -3 4 -3 4 -3 4 -2 5 -3 5 -2 5 -2 5 -1 5 -2 5 -1 5 -1 0 0 5 0 6 -1 5 0 5 0 5 1 6 0 5 1 5 2 5 1 4 2 5 2 5 2 4 2 5 2 4 3 4 3 4 3 4 4 3 3 4 4 3 3 3 4 3 5 3 4 2 4 3 5 2 5 2 5 1 5 2 5 1 5 1 5 0 0 0 6 1 5 0 5 0 5 -1 6 0 5 -1 5 -2 5 -1 5 -2 4 -2 5 -2 5 -2 4 -3 5 -2 4 -3 4 -3 4 -4 4 -3 3 -4 4 -4 3 -4 3 -4 3 -4 3 -4 2 -5 3 -5 2 -5 2 -5 1 -5 2 -5 1 -5 1 0 0zm-7016 886l7000 -1000 2 20 -7000 1000 -2 -20z"/>
  </g>
  <g>
   <path class="fil0" d="M16315 4704l-6 0 -5 1 -5 0 -5 0 -6 -1 -5 0 -5 -1 -5 -2 -5 -1 -4 -2 -5 -2 -5 -2 -4 -2 -5 -2 -4 -3 -4 -3 -4 -3 -4 -4 -3 -3 -4 -4 -3 -4 -3 -3 -3 -5 -3 -4 -2 -4 -3 -5 -2 -5 -2 -5 -1 -5 -2 -5 -1 -5 -1 -5 0 0 -1 -6 0 -5 0 -5 0 -5 1 -6 0 -5 1 -5 2 -5 1 -5 2 -4 2 -5 2 -5 2 -4 2 -5 3 -4 3 -4 3 -4 4 -4 3 -3 4 -4 4 -3 4 -3 4 -3 4 -3 4 -2 5 -3 5 -2 5 -2 5 -1 5 -2 5 -1 5 -1 0 0 5 0 6 -1 5 0 5 0 5 1 6 0 5 1 5 2 5 1 4 2 5 2 5 2 4 2 5 2 4 3 4 3 4 3 4 4 3 3 4 4 3 3 3 4 3 5 3 4 2 4 3 5 2 5 2 5 1 5 2 5 1 5 1 5 0 0 0 6 1 5 0 5 0 5 -1 6 0 5 -1 5 -2 5 -1 5 -2 4 -2 5 -2 5 -2 4 -3 5 -2 4 -3 4 -3 4 -4 4 -3 3 -4 4 -4 3 -4 3 -4 3 -4 3 -4 2 -5 3 -5 2 -5 2 -5 1 -5 2 -5 1 -5 1 0 0zm-7016 886l7000 -1000 2 20 -7000 1000 -2 -20z"/>
  </g>
  <g>
   <path class="fil0" d="M16315 5704l-6 0 -5 1 -5 0 -5 0 -6 -1 -5 0 -5 -1 -5 -2 -5 -1 -4 -2 -5 -2 -5 -2 -4 -2 -5 -2 -4 -3 -4 -3 -4 -3 -4 -4 -3 -3 -4 -4 -3 -4 -3 -3 -3 -5 -3 -4 -2 -4 -3 -5 -2 -5 -2 -5 -1 -5 -2 -5 -1 -5 -1 -5 0 0 -1 -6 0 -5 0 -5 0 -5 1 -6 0 -5 1 -5 2 -5 1 -5 2 -4 2 -5 2 -5 2 -4 2 -5 3 -4 3 -4 3 -4 4 -4 3 -3 4 -4 4 -3 4 -3 4 -3 4 -3 4 -2 5 -3 5 -2 5 -2 5 -1 5 -2 5 -1 5 -1 0 0 5 0 6 -1 5 0 5 0 5 1 6 0 5 1 5 2 5 1 4 2 5 2 5 2 4 2 5 2 4 3 4 3 4 3 4 4 3 3 4 4 3 3 3 4 3 5 3 4 2 4 3 5 2 5 2 5 1 5 2 5 1 5 1 5 0 0 0 6 1 5 0 5 0 5 -1 6 0 5 -1 5 -2 5 -1 5 -2 4 -2 5 -2 5 -2 4 -3 5 -2 4 -3 4 -3 4 -4 4 -3 3 -4 4 -4 3 -4 3 -4 3 -4 3 -4 2 -5 3 -5 2 -5 2 -5 1 -5 2 -5 1 -5 1 0 0zm-7016 886l7000 -1000 2 20 -7000 1000 -2 -20z"/>
  </g>
  <g>
   <path class="fil0" d="M16315 6704l-6 0 -5 1 -5 0 -5 0 -6 -1 -5 0 -5 -1 -5 -2 -5 -1 -4 -2 -5 -2 -5 -2 -4 -2 -5 -2 -4 -3 -4 -3 -4 -3 -4 -4 -3 -3 -4 -4 -3 -4 -3 -3 -3 -5 -3 -4 -2 -4 -3 -5 -2 -5 -2 -5 -1 -5 -2 -5 -1 -5 -1 -5 0 0 -1 -6 0 -5 0 -5 0 -5 1 -6 0 -5 1 -5 2 -5 1 -5 2 -4 2 -5 2 -5 2 -4 2 -5 3 -4 3 -4 3 -4 4 -4 3 -3 4 -4 4 -3 4 -3 4 -3 4 -3 4 -2 5 -3 5 -2 5 -2 5 -1 5 -2 5 -1 5 -1 0 0 5 0 6 -1 5 0 5 0 5 1 6 0 5 1 5 2 5 1 4 2 5 2 5 2 4 2 5 2 4 3 4 3 4 3 4 4 3 3 4 4 3 3 3 4 3 5 3 4 2 4 3 5 2 5 2 5 1 5 2 5 1 5 1 5 0 0 0 6 1 5 0 5 0 5 -1 6 0 5 -1 5 -2 5 -1 5 -2 4 -2 5 -2 5 -2 4 -3 5 -2 4 -3 4 -3 4 -4 4 -3 3 -4 4 -4 3 -4 3 -4 3 -4 3 -4 2 -5 3 -5 2 -5 2 -5 1 -5 2 -5 1 -5 1 0 0zm-7016 886l7000 -1000 2 20 -7000 1000 -2 -20z"/>
  </g>
  <g>
   <path class="fil0" d="M16300 7705l-5 0 -6 -1 -5 0 -5 -1 -5 -1 -5 -2 -5 -1 -5 -2 -4 -2 -5 -3 -4 -2 -5 -3 -4 -3 -4 -3 -3 -3 -4 -4 -4 -3 -3 -4 -3 -4 -3 -4 -3 -5 -2 -4 -3 -5 -2 -4 -2 -5 -1 -5 -2 -5 -1 -5 -1 -5 0 -5 -1 -6 0 -5 0 0 0 -5 1 -6 0 -5 1 -5 1 -5 2 -5 1 -5 2 -5 2 -4 3 -5 2 -4 3 -5 3 -4 3 -4 3 -4 4 -3 4 -4 3 -3 4 -3 4 -3 5 -3 4 -2 5 -3 4 -2 5 -2 5 -1 5 -2 5 -1 5 -1 5 0 6 -1 5 0 0 0 5 0 6 1 5 0 5 1 5 1 5 2 5 1 5 2 4 2 5 3 4 2 5 3 4 3 4 3 3 3 4 4 4 3 3 4 3 4 3 4 3 5 2 4 3 5 2 4 1 5 2 5 2 5 1 5 1 5 0 5 1 6 0 5 0 0 0 5 -1 6 0 5 -1 5 -1 5 -2 5 -2 5 -1 5 -2 4 -3 5 -2 4 -3 5 -3 4 -3 4 -3 4 -4 3 -4 4 -3 3 -4 3 -4 3 -5 3 -4 2 -5 3 -4 2 -5 2 -5 1 -5 2 -5 1 -5 1 -5 0 -6 1 -5 0 0 0zm0 -105l0 0 0 0 0 0z"/>
  </g>
  <path class="fil0" d="M218 250c0,-35 3,-64 11,-86 7,-22 18,-39 33,-51 14,-12 32,-17 54,-17 17,0 31,3 43,9 12,7 23,16 31,29 7,12 14,27 18,45 5,18 7,41 7,71 0,36 -4,65 -11,87 -7,22 -18,38 -33,50 -14,12 -32,18 -55,18 -29,0 -52,-10 -68,-31 -20,-26 -30,-67 -30,-124zm38 1c0,49 6,83 17,99 12,16 26,25 43,25 17,0 32,-9 43,-25 12,-17 18,-50 18,-99 0,-50 -6,-83 -18,-100 -11,-16 -26,-24 -43,-24 -17,0 -31,7 -41,21 -13,19 -19,53 -19,103z"/>
  <path class="fil0" d="M1357 400l-37 0 0 -237c-9,8 -21,17 -35,25 -15,9 -28,15 -39,20l0 -36c21,-10 39,-22 54,-36 16,-14 27,-27 33,-40l24 0 0 304z"/>
  <path class="fil0" d="M2413 364l0 36 -201 0c0,-9 1,-18 5,-26 5,-14 13,-27 24,-40 12,-13 28,-29 49,-46 33,-27 55,-48 67,-64 12,-16 17,-31 17,-45 0,-15 -5,-27 -15,-37 -11,-10 -25,-15 -42,-15 -18,0 -32,5 -43,16 -11,10 -16,25 -16,44l-39 -4c3,-28 13,-50 30,-65 17,-15 40,-22 69,-22 29,0 52,8 69,24 17,16 25,36 25,60 0,12 -2,24 -7,36 -5,11 -13,24 -25,37 -11,13 -30,31 -57,53 -22,19 -37,32 -43,38 -7,7 -12,14 -16,20l149 0z"/>
  <path class="fil0" d="M9311 171l-37 3c-3,-15 -8,-25 -14,-32 -10,-11 -22,-16 -37,-16 -12,0 -23,3 -32,10 -12,9 -21,21 -28,37 -6,17 -10,40 -10,70 9,-13 20,-23 33,-30 13,-7 26,-10 41,-10 24,0 46,9 63,28 18,18 26,41 26,70 0,19 -4,37 -12,53 -8,17 -19,29 -34,38 -14,9 -30,13 -49,13 -31,0 -56,-11 -76,-34 -19,-23 -29,-61 -29,-113 0,-58 11,-101 33,-128 18,-23 44,-34 76,-34 24,0 44,6 59,20 15,13 24,31 27,55zm-152 131c0,13 3,25 8,37 5,11 13,20 23,26 9,6 20,10 31,10 16,0 29,-7 40,-19 12,-13 17,-30 17,-52 0,-21 -5,-38 -16,-50 -12,-12 -26,-18 -43,-18 -17,0 -31,6 -43,18 -11,12 -17,28 -17,48z"/>
  <path id="1" class="fil0" d="M9472 400l0 -72 -132 0 0 -35 139 -196 30 0 0 196 41 0 0 35 -41 0 0 72 -37 0zm0 -107l0 -136 -95 136 95 0z"/>
  <path class="fil0" d="M10311 171l-37 3c-3,-15 -8,-25 -14,-32 -10,-11 -22,-16 -37,-16 -12,0 -23,3 -32,10 -12,9 -21,21 -28,37 -6,17 -10,40 -10,70 9,-13 20,-23 33,-30 13,-7 26,-10 41,-10 24,0 46,9 63,28 18,18 26,41 26,70 0,19 -4,37 -12,53 -8,17 -19,29 -34,38 -14,9 -30,13 -49,13 -31,0 -56,-11 -76,-34 -19,-23 -29,-61 -29,-113 0,-58 11,-101 33,-128 18,-23 44,-34 76,-34 24,0 44,6 59,20 15,13 24,31 27,55zm-152 131c0,13 3,25 8,37 5,11 13,20 23,26 9,6 20,10 31,10 16,0 29,-7 40,-19 12,-13 17,-30 17,-52 0,-21 -5,-38 -16,-50 -12,-12 -26,-18 -43,-18 -17,0 -31,6 -43,18 -11,12 -17,28 -17,48z"/>
  <path id="1" class="fil0" d="M10353 320l39 -3c3,19 10,34 20,43 11,10 23,15 38,15 19,0 34,-7 46,-21 12,-13 18,-31 18,-53 0,-22 -5,-38 -17,-51 -12,-12 -28,-18 -47,-18 -12,0 -23,3 -32,8 -10,6 -17,13 -23,22l-35 -6 29 -155 150 0 0 35 -120 0 -16 82c18,-13 37,-19 57,-19 26,0 48,9 67,27 18,19 27,42 27,71 0,28 -8,51 -24,71 -19,25 -46,37 -80,37 -27,0 -50,-8 -67,-23 -17,-16 -27,-36 -30,-62z"/>
  <path class="fil0" d="M11311 171l-37 3c-3,-15 -8,-25 -14,-32 -10,-11 -22,-16 -37,-16 -12,0 -23,3 -32,10 -12,9 -21,21 -28,37 -6,17 -10,40 -10,70 9,-13 20,-23 33,-30 13,-7 26,-10 41,-10 24,0 46,9 63,28 18,18 26,41 26,70 0,19 -4,37 -12,53 -8,17 -19,29 -34,38 -14,9 -30,13 -49,13 -31,0 -56,-11 -76,-34 -19,-23 -29,-61 -29,-113 0,-58 11,-101 33,-128 18,-23 44,-34 76,-34 24,0 44,6 59,20 15,13 24,31 27,55zm-152 131c0,13 3,25 8,37 5,11 13,20 23,26 9,6 20,10 31,10 16,0 29,-7 40,-19 12,-13 17,-30 17,-52 0,-21 -5,-38 -16,-50 -12,-12 -26,-18 -43,-18 -17,0 -31,6 -43,18 -11,12 -17,28 -17,48z"/>
  <path id="1" class="fil0" d="M11547 171l-37 3c-3,-15 -8,-25 -14,-32 -10,-11 -23,-16 -38,-16 -12,0 -22,3 -31,10 -12,9 -21,21 -28,37 -7,17 -10,40 -11,70 9,-13 20,-23 33,-30 13,-7 27,-10 41,-10 25,0 46,9 64,28 17,18 26,41 26,70 0,19 -4,37 -13,53 -8,17 -19,29 -33,38 -15,9 -31,13 -49,13 -31,0 -57,-11 -76,-34 -20,-23 -29,-61 -29,-113 0,-58 10,-101 32,-128 19,-23 44,-34 77,-34 23,0 43,6 58,20 15,13 25,31 28,55zm-153 131c0,13 3,25 8,37 6,11 13,20 23,26 10,6 20,10 31,10 16,0 30,-7 41,-19 11,-13 17,-30 17,-52 0,-21 -6,-38 -17,-50 -11,-12 -25,-18 -42,-18 -17,0 -31,6 -43,18 -12,12 -18,28 -18,48z"/>
 </g>
</svg>
